<svg width="16" height="16" viewBox="0 0 16 16" fill="none" xmlns="http://www.w3.org/2000/svg">
<mask id="mask0_2557_3654" style="mask-type:alpha" maskUnits="userSpaceOnUse" x="0" y="0" width="16" height="16">
<rect width="16" height="16" fill="#D9D9D9"/>
</mask>
<g mask="url(#mask0_2557_3654)">
<path d="M12.093 8.06176H3.54269C3.38866 8.06176 3.25971 8.01034 3.15583 7.90751C3.05194 7.80466 3 7.67699 3 7.52451C3 7.37201 3.05194 7.24288 3.15583 7.13711C3.25971 7.03135 3.38866 6.97847 3.54269 6.97847H12.093L10.0577 4.94317C9.94762 4.83313 9.88994 4.70546 9.8846 4.56017C9.87926 4.41488 9.93363 4.28454 10.0477 4.16915C10.1697 4.05378 10.3007 3.99742 10.4407 4.00009C10.5806 4.00276 10.7083 4.06178 10.8237 4.17717L13.7088 7.06232C13.7683 7.12179 13.814 7.18994 13.8461 7.26676C13.8782 7.34356 13.8942 7.42662 13.8942 7.51594C13.8942 7.60526 13.8782 7.68833 13.8461 7.76513C13.814 7.84195 13.766 7.91519 13.7019 7.98484L10.8237 10.863C10.7136 10.9731 10.5908 11.0273 10.4551 11.0257C10.3194 11.0241 10.1906 10.9656 10.0685 10.8502C9.95446 10.7348 9.89875 10.6058 9.90142 10.4632C9.9041 10.3206 9.96312 10.1916 10.0785 10.0762L12.093 8.06176Z" fill="white"/>
</g>
</svg>
