<svg width="188" height="40" viewBox="0 0 188 40" fill="none" xmlns="http://www.w3.org/2000/svg">
<rect width="173" height="40" fill="#E00D3A"/>
<mask id="mask0_1555_881" style="mask-type:alpha" maskUnits="userSpaceOnUse" x="145" y="8" width="24" height="24">
<rect x="145" y="8" width="24" height="24" fill="#D9D9D9"/>
</mask>
<g mask="url(#mask0_1555_881)">
<path d="M161.612 20.7498H150.25C150.037 20.7498 149.859 20.678 149.715 20.5345C149.572 20.3909 149.5 20.2127 149.5 19.9999C149.5 19.787 149.572 19.6088 149.715 19.4653C149.859 19.3217 150.037 19.2499 150.25 19.2499H161.612L158.319 15.9575C158.17 15.8088 158.097 15.6348 158.099 15.4354C158.101 15.2361 158.174 15.0588 158.319 14.9037C158.474 14.7486 158.653 14.6685 158.854 14.6633C159.055 14.6582 159.233 14.7332 159.388 14.8883L163.867 19.3672C163.961 19.4608 164.027 19.5595 164.065 19.6633C164.104 19.7672 164.123 19.8793 164.123 19.9999C164.123 20.1204 164.104 20.2325 164.065 20.3364C164.027 20.4402 163.961 20.5389 163.867 20.6325L159.388 25.1114C159.24 25.2601 159.063 25.3335 158.859 25.3316C158.654 25.3296 158.474 25.2511 158.319 25.096C158.174 24.9409 158.099 24.7652 158.094 24.5691C158.089 24.3729 158.164 24.1973 158.319 24.0422L161.612 20.7498Z" fill="white"/>
</g>
<path d="M173 40V0H188V27.5L173 40Z" fill="#E00D3A"/>
</svg>
