<svg width="12" height="7" viewBox="0 0 12 7" fill="none" xmlns="http://www.w3.org/2000/svg">
<path d="M5.99966 6.66153C5.87914 6.66153 5.76697 6.64229 5.66314 6.60383C5.55929 6.56536 5.46057 6.49934 5.36699 6.40575L0.872761 1.91153C0.734294 1.77308 0.663461 1.59905 0.660261 1.38943C0.657044 1.17981 0.727878 1.00257 0.872761 0.857703C1.01763 0.712836 1.19326 0.640404 1.39966 0.640404C1.60606 0.640404 1.78169 0.712836 1.92656 0.857703L5.99966 4.9308L10.0728 0.857703C10.2112 0.719253 10.3852 0.648419 10.5949 0.645203C10.8045 0.642003 10.9817 0.712836 11.1266 0.857703C11.2714 1.00257 11.3439 1.17821 11.3439 1.38463C11.3439 1.59103 11.2714 1.76666 11.1266 1.91153L6.63234 6.40575C6.53875 6.49934 6.44004 6.56536 6.33619 6.60383C6.23235 6.64229 6.12018 6.66153 5.99966 6.66153Z" fill="#201E3D"/>
</svg>
