<svg width="24" height="24" viewBox="0 0 24 24" fill="none" xmlns="http://www.w3.org/2000/svg">
<mask id="mask0_1804_5014" style="mask-type:alpha" maskUnits="userSpaceOnUse" x="0" y="0" width="24" height="24">
<rect width="24" height="24" fill="#D9D9D9"/>
</mask>
<g mask="url(#mask0_1804_5014)">
<mask id="mask1_1804_5014" style="mask-type:alpha" maskUnits="userSpaceOnUse" x="0" y="0" width="24" height="24">
<rect width="24" height="24" fill="#D9D9D9"/>
</mask>
<g mask="url(#mask1_1804_5014)">
<path d="M4.75 17.2692C4.5375 17.2692 4.35938 17.1973 4.21563 17.0535C4.07188 16.9097 4 16.7315 4 16.5189C4 16.3063 4.07188 16.1282 4.21563 15.9846C4.35938 15.841 4.5375 15.7692 4.75 15.7692H20.25C20.4625 15.7692 20.6406 15.8411 20.7843 15.985C20.9281 16.1287 21 16.3069 21 16.5195C21 16.7321 20.9281 16.9102 20.7843 17.0538C20.6406 17.1974 20.4625 17.2692 20.25 17.2692H4.75ZM4.75 12.3846C4.5375 12.3846 4.35938 12.3127 4.21563 12.1689C4.07188 12.0251 4 11.8469 4 11.6343C4 11.4217 4.07188 11.2436 4.21563 11.1C4.35938 10.9564 4.5375 10.8846 4.75 10.8846H20.25C20.4625 10.8846 20.6406 10.9565 20.7843 11.1003C20.9281 11.2441 21 11.4223 21 11.6349C21 11.8475 20.9281 12.0256 20.7843 12.1692C20.6406 12.3128 20.4625 12.3846 20.25 12.3846H4.75ZM4.75 7.49997C4.5375 7.49997 4.35938 7.42807 4.21563 7.28425C4.07188 7.14045 4 6.96225 4 6.74965C4 6.53707 4.07188 6.35898 4.21563 6.2154C4.35938 6.0718 4.5375 6 4.75 6H20.25C20.4625 6 20.6406 6.07191 20.7843 6.21572C20.9281 6.35954 21 6.53774 21 6.75033C21 6.96293 20.9281 7.14102 20.7843 7.2846C20.6406 7.42818 20.4625 7.49997 20.25 7.49997H4.75Z" fill="#201E3D"/>
</g>
</g>
</svg>
