<svg width="96" height="96" viewBox="0 0 96 96" fill="none" xmlns="http://www.w3.org/2000/svg">
<rect width="96" height="96" rx="48" fill="#4B4B5E"/>
<g clip-path="url(#clip0_1799_560)">
<path d="M64.6351 35.365V38.8087C64.6351 41.9754 57.1054 44.5404 47.8176 44.5404C38.5298 44.5404 31 41.9754 31 38.8087V35.365C31 32.1983 38.5298 29.6333 47.8176 29.6333C57.1054 29.6333 64.6351 32.1983 64.6351 35.365ZM60.5219 45.0233C61.998 44.5562 63.3912 43.8596 64.6351 42.9729V50.28C64.6351 53.4466 57.1054 56.0116 47.8176 56.0116C38.5298 56.0116 31 53.4466 31 50.28V42.9729C32.2439 43.8596 33.6371 44.5562 35.1132 45.0233C39.218 46.29 43.5054 46.9075 47.8176 46.8362C52.1298 46.8996 56.4171 46.29 60.5219 45.0233ZM31 54.4441C32.2439 55.3308 33.6371 56.0275 35.1132 56.4946C39.218 57.7612 43.5054 58.3787 47.8176 58.3075C52.1298 58.3708 56.4171 57.7612 60.5219 56.4946C61.998 56.0275 63.3912 55.3308 64.6351 54.4441V60.6033C64.6351 63.77 57.1054 66.335 47.8176 66.335C38.5298 66.335 31 63.77 31 60.6033V54.4441Z" fill="white"/>
</g>
<defs>
<clipPath id="clip0_1799_560">
<rect width="34" height="38" fill="white" transform="translate(31 29)"/>
</clipPath>
</defs>
</svg>
