<svg width="198" height="80" viewBox="0 0 198 80" fill="none" xmlns="http://www.w3.org/2000/svg">
<g clip-path="url(#clip0_1749_819)">
<mask id="mask0_1749_819" style="mask-type:luminance" maskUnits="userSpaceOnUse" x="0" y="0" width="198" height="80">
<path d="M198 0H0V80H198V0Z" fill="white"/>
</mask>
<g mask="url(#mask0_1749_819)">
<path d="M36.2909 0C37.1902 0.891268 38.1467 1.73746 38.9886 2.68282C42.359 6.36358 44.6975 10.8731 45.7663 15.7532C45.8731 16.2513 45.9979 16.7448 46.0923 17.2451C46.1867 17.7454 46.2519 18.2524 46.3059 18.5972C46.7623 18.2563 47.1998 17.8907 47.6165 17.502C51.9596 13.0344 57.3546 9.73456 63.3043 7.90648C63.4856 7.83749 63.6826 7.82056 63.873 7.85758C64.0634 7.8946 64.2397 7.98411 64.3822 8.11606C65.8452 9.27171 67.2394 10.5121 68.5579 11.831C68.6624 11.9358 68.8456 12.0304 68.8074 12.1882C68.7636 12.3628 68.5568 12.3132 68.414 12.3392C62.8297 13.343 57.6274 15.8638 53.3737 19.627C50.149 22.4322 47.5454 25.8826 45.7304 29.7566C45.6776 29.8693 45.6607 30.0237 45.4932 30.0485C45.3325 29.9301 45.4662 29.8085 45.4932 29.6935C46.3676 26.4082 46.6796 22.9979 46.416 19.6079C46.4356 19.3989 46.3745 19.1904 46.2452 19.0254C46.1193 19.1583 46.008 19.2608 45.908 19.3758C43.9314 21.7343 42.2518 24.3277 40.9073 27.0975C40.7128 27.6059 40.4669 28.0929 40.1733 28.551C40.3812 27.4569 40.6487 26.3696 40.7859 25.2665C41.0818 23.1881 41.0837 21.0783 40.7915 18.9994C40.538 17.2236 40.0999 15.4793 39.4842 13.7949C38.6212 11.5382 37.4159 9.42852 35.911 7.54028C33.9654 5.10112 31.563 3.06673 28.8388 1.55155C28.8286 1.54592 28.8275 1.52225 28.8062 1.45577C29.9815 1.09355 31.1773 0.801581 32.3873 0.581408C33.4447 0.361017 34.5145 0.204492 35.5907 0.112676C35.6851 0.105916 35.7806 0.103662 35.8346 0H36.2909Z" fill="white"/>
<path d="M177.774 30.4139V34.2381C177.774 40.1209 177.765 46.0037 177.788 51.8865C177.788 52.4589 177.625 52.575 177.092 52.5626C175.782 52.5232 174.469 52.5299 173.158 52.5626C172.709 52.5727 172.586 52.4499 172.589 51.9992C172.605 47.1823 172.599 42.3654 172.599 37.5485C172.599 33.1316 172.607 28.7147 172.587 24.2978C172.587 23.8031 172.693 23.6567 173.209 23.6657C175.091 23.7006 176.973 23.6927 178.856 23.6657C179.03 23.6479 179.206 23.6834 179.36 23.7674C179.514 23.8515 179.639 23.9802 179.718 24.1367C183.94 30.9724 188.17 37.8039 192.407 44.6313C192.52 44.8184 192.647 44.9998 192.857 45.3232V44.5716C192.857 37.811 192.853 31.0505 192.847 24.2899C192.847 23.8122 192.923 23.6375 193.454 23.6556C194.822 23.7006 196.192 23.6837 197.56 23.6623C197.919 23.6567 198 23.766 198 24.113C197.991 33.4418 197.991 42.7707 198 52.0995C198 52.4375 197.935 52.5592 197.567 52.5502C195.666 52.5307 193.765 52.5307 191.864 52.5502C191.507 52.5502 191.374 52.3699 191.218 52.1153C186.971 45.1834 182.72 38.2535 178.467 31.3254C178.272 31.0077 178.074 30.691 177.877 30.3744L177.778 30.4094" fill="white"/>
<path d="M146.922 38.104C146.922 33.4967 146.931 28.8882 146.909 24.2809C146.909 23.7671 147.047 23.6589 147.542 23.6612C153.493 23.6792 159.445 23.6792 165.397 23.6612C165.877 23.6612 166.059 23.74 166.035 24.2741C165.987 25.4009 166 26.5209 166.035 27.6431C166.047 28.0837 165.938 28.2189 165.473 28.2167C161.214 28.1975 156.955 28.2167 152.696 28.1907C152.169 28.1907 152.083 28.3462 152.09 28.824C152.116 30.8799 152.116 32.9363 152.09 34.993C152.09 35.4223 152.202 35.5305 152.626 35.5282C156.657 35.5113 160.689 35.5282 164.719 35.5068C165.19 35.5068 165.331 35.6195 165.314 36.1017C165.276 37.1665 165.281 38.2347 165.314 39.2995C165.326 39.7423 165.21 39.8741 164.752 39.8719C160.74 39.8527 156.727 39.8719 152.716 39.8493C152.228 39.8493 152.082 39.9451 152.09 40.4612C152.123 42.765 152.123 45.0689 152.09 47.3727C152.082 47.9 152.244 47.9868 152.726 47.9846C157.213 47.9654 161.701 47.9789 166.188 47.9643C166.611 47.9643 166.776 48.0375 166.761 48.5107C166.723 49.7096 166.736 50.9096 166.761 52.1085C166.767 52.4657 166.657 52.5513 166.312 52.5513C159.999 52.5408 153.687 52.5408 147.373 52.5513C146.878 52.5513 146.933 52.2899 146.934 51.9789C146.934 47.3517 146.934 42.7248 146.934 38.0984" fill="white"/>
<path d="M93.2759 52.5452C92.4767 52.5452 91.6776 52.5181 90.8807 52.5565C90.7249 52.5818 90.5653 52.5464 90.4347 52.4576C90.3041 52.3687 90.2123 52.2332 90.1782 52.0787C89.4228 50.1734 88.6349 48.2815 87.8819 46.3762C87.8478 46.233 87.7619 46.1076 87.6408 46.0243C87.5197 45.941 87.3721 45.9058 87.2265 45.9255C83.3862 45.9397 79.5458 45.9397 75.7054 45.9255C75.5611 45.9069 75.415 45.9437 75.2966 46.0285C75.1782 46.1134 75.0962 46.24 75.067 46.3829C74.333 48.2984 73.5597 50.1936 72.8257 52.108C72.7921 52.2517 72.7054 52.3772 72.5833 52.4596C72.4611 52.5419 72.3125 52.5749 72.167 52.552C70.608 52.5317 69.049 52.5441 67.49 52.5429C66.8718 52.5429 66.8685 52.5429 67.118 51.9672C70.1641 44.9535 73.2109 37.9401 76.2585 30.9272C77.2341 28.6827 78.221 26.4438 79.1809 24.1914C79.2233 24.0208 79.3271 23.8719 79.4723 23.7734C79.6175 23.6748 79.7939 23.6335 79.9677 23.6573C81.0917 23.6945 82.2157 23.69 83.3318 23.6573C83.4951 23.6337 83.6613 23.6709 83.799 23.7619C83.9367 23.8528 84.0365 23.9912 84.0793 24.1508C87.7271 32.6594 91.3831 41.1642 95.0474 49.6652C95.3925 50.4674 95.7274 51.2731 96.0882 52.0686C96.2456 52.4156 96.249 52.5677 95.7892 52.5497C94.9541 52.5182 94.1167 52.5407 93.2804 52.5407M77.0205 41.4984C79.9092 41.4984 82.7001 41.4984 85.4899 41.4984C85.8271 41.4984 85.8642 41.406 85.7473 41.1041C85.1853 39.655 84.6503 38.197 84.1007 36.7435C83.2532 34.5001 82.4023 32.259 81.4963 29.8703L77.0216 41.4973" fill="white"/>
<path d="M101.39 38.0661C101.39 33.479 101.401 28.8909 101.377 24.3038C101.377 23.7607 101.54 23.6469 102.043 23.6604C103.335 23.6953 104.629 23.6999 105.921 23.6604C106.435 23.6435 106.544 23.7968 106.543 24.2914C106.526 31.8482 106.523 39.4054 106.532 46.963C106.532 47.977 106.532 47.977 107.543 47.977C111.098 47.977 114.653 47.9838 118.208 47.968C118.634 47.968 118.8 48.0458 118.784 48.519C118.747 49.6976 118.761 50.8796 118.784 52.0593C118.784 52.4086 118.729 52.5585 118.327 52.5573C112.833 52.5438 107.339 52.5438 101.846 52.5573C101.374 52.5573 101.387 52.332 101.387 52.0018C101.393 47.3573 101.393 42.7128 101.387 38.0683" fill="white"/>
<path d="M124.158 38.05C124.158 33.4427 124.164 28.8365 124.148 24.2291C124.148 23.7931 124.239 23.6477 124.702 23.6601C126.032 23.6939 127.363 23.6939 128.693 23.6601C129.181 23.6477 129.327 23.7536 129.326 24.2742C129.306 31.9076 129.302 39.5414 129.313 47.1756C129.313 47.9734 129.313 47.9734 130.083 47.9734C133.713 47.9734 137.345 47.9824 140.975 47.9621C141.425 47.9621 141.546 48.0748 141.537 48.5255C141.505 49.686 141.509 50.8477 141.537 52.0083C141.546 52.4173 141.464 52.5582 141.015 52.557C135.559 52.5398 130.103 52.5398 124.647 52.557C124.233 52.557 124.154 52.4286 124.155 52.0444C124.167 47.3803 124.17 42.7163 124.163 38.0522" fill="white"/>
<path d="M22.0229 50.5363C20.5276 50.9609 19.0861 51.5567 17.7269 52.3121C15.4057 53.6164 13.432 55.4618 11.9727 57.6923C10.5134 59.9229 9.61136 62.4729 9.3429 65.1267C9.32941 65.2338 9.36538 65.36 9.21701 65.4648C8.9702 65.2724 8.761 65.0359 8.59993 64.7673C7.37473 63.2147 6.26175 61.5764 5.26949 59.8648C5.17909 59.725 5.12575 59.5644 5.11454 59.3982C5.10333 59.232 5.13461 59.0656 5.20542 58.9149C6.44668 55.6884 8.41915 52.7954 10.9671 50.4642C11.0795 50.365 11.1795 50.2625 11.3414 50.1093C10.1286 49.7712 8.98097 49.4603 7.86933 49.0512C5.38877 48.1371 3.0442 46.888 0.900462 45.3386C0.696829 45.2096 0.526719 45.0339 0.404178 44.8261C0.281636 44.6182 0.21018 44.3841 0.195708 44.1431C-0.00834583 41.9453 -0.0582996 39.736 0.0462148 37.5312C0.0554388 37.4427 0.0693209 37.3547 0.0878031 37.2676C0.380673 37.4535 0.635503 37.6936 0.838642 37.9752C4.20399 41.5986 8.64511 44.0378 13.5029 44.9307C15.4501 45.2691 17.4295 45.3848 19.4028 45.2755C19.701 45.229 20.0049 45.2324 20.302 45.2856C19.1904 45.7059 18.045 46.0281 16.9569 46.525C15.1276 47.3615 13.4127 48.4293 11.8539 49.7025C11.7415 49.7949 11.5729 49.9279 11.5763 50.0405C11.5842 50.2434 11.8112 50.1532 11.9472 50.1927C13.0976 50.4918 14.2767 50.666 15.4643 50.7121C16.5178 50.8038 17.5759 50.8328 18.6328 50.7988C19.7569 50.7098 20.8809 50.5972 22.0161 50.551" fill="white"/>
<path d="M23.4243 44.6882C24.6349 44.2646 25.8758 43.9299 27.0515 43.4003C32.054 41.2161 36.1363 37.3458 38.5906 32.4606C38.6738 32.2972 38.694 32.0877 38.8896 31.9941C38.9131 32.0641 38.9226 32.138 38.9177 32.2116C38.1031 34.8386 37.5902 37.5502 37.389 40.2939C37.3249 41.1863 37.3789 42.0877 37.3789 43.0387C37.697 42.7558 37.9971 42.5248 38.2556 42.2499C40.4698 39.9756 42.3054 37.3598 43.6925 34.5023C43.7599 34.3615 43.7723 34.153 43.996 34.1316C43.788 35.3632 43.4148 36.5575 43.2092 37.7936C42.2355 43.4256 42.8286 49.2176 44.9233 54.5339C45.0246 54.6958 45.0773 54.8836 45.075 55.0747C44.8097 54.9542 44.7378 54.677 44.5939 54.4629C42.8741 51.8947 40.6379 49.7151 38.0286 48.064C37.9061 47.9862 37.7835 47.8161 37.6296 47.9186C37.4756 48.0212 37.6015 48.1924 37.6217 48.3355C38.0242 51.2907 38.8043 54.1817 39.9428 56.9372C40.0001 57.0781 40.0844 57.2122 39.9911 57.3677C39.7539 57.3158 39.7022 57.0826 39.5831 56.926C38.112 54.9206 36.2135 53.2692 34.0257 52.0918C31.8379 50.9143 29.4159 50.2405 26.9357 50.1192C26.059 50.0584 25.1969 50.2138 24.328 50.1316C24.4355 50.0577 24.5518 49.9975 24.6742 49.9524C27.0336 49.3857 29.3072 48.5067 31.4351 47.3384C32.2126 46.9361 32.9608 46.4794 33.6742 45.9716C33.5879 45.9217 33.499 45.8766 33.4078 45.8364C31.1427 45.0644 28.7743 44.6397 26.3827 44.5767C25.3925 44.5429 24.4168 44.7277 23.4288 44.6894M33.7821 45.9457C35.0916 46.4518 36.3593 47.0606 37.5734 47.7665C37.3761 46.239 37.2863 44.6994 37.3047 43.1592C36.1939 44.1659 35.0171 45.0968 33.7821 45.9457Z" fill="white"/>
<path d="M47.0027 58.9772C47.1488 58.9772 47.1814 59.1 47.2354 59.1901C50.829 65.2066 56.349 69.8258 62.8962 72.2954C62.9985 72.3349 63.0963 72.3879 63.193 72.4341C63.1716 72.6436 63.0109 72.6932 62.8962 72.7721C61.3485 73.8429 59.7342 74.8135 58.063 75.678C57.896 75.7784 57.7045 75.8302 57.5098 75.8279C57.3151 75.8255 57.1248 75.7689 56.9603 75.6645C53.996 74.108 51.2583 72.1518 48.8236 69.8504C48.673 69.7084 48.5201 69.5687 48.3122 69.376C48.1414 70.2774 48.0042 71.1191 47.8176 71.9541C47.2187 74.6109 46.1316 77.1327 44.612 79.3907C44.5407 79.5096 44.4407 79.6086 44.3213 79.6787C44.2019 79.7488 44.0669 79.7877 43.9286 79.7918C41.5988 80.038 39.2509 80.0596 36.917 79.856C37.6959 79.0594 38.4557 78.3789 39.0953 77.5834C41.2346 74.9596 42.5323 71.7486 42.818 68.3721C43.0071 66.1318 42.7515 63.8762 42.0661 61.7355C41.9985 61.5996 41.9723 61.4467 41.9908 61.296C42.129 61.314 42.1549 61.4459 42.2066 61.5349C43.4319 63.6593 44.8694 65.6534 46.4969 67.4865C47.0297 68.0859 47.6659 68.5941 48.2627 69.1507C48.4887 66.9628 48.3914 64.7535 47.9739 62.5941C47.7491 61.3546 47.3062 60.1851 47.0005 58.9727" fill="white"/>
<path d="M44.0006 34.1366C43.7758 34.158 43.7646 34.362 43.6971 34.5073C42.3102 37.3649 40.4745 39.9807 38.2603 42.2549C38.0017 42.5253 37.6983 42.7574 37.3835 43.0436C37.3835 42.0926 37.3296 41.1924 37.3937 40.2989C37.5932 37.555 38.1046 34.843 38.9178 32.2155C38.9227 32.1418 38.9132 32.0679 38.8897 31.998L38.9504 31.8786C39.0628 31.8391 39.0628 31.7659 39.0224 31.6701L40.0924 28.7969C40.1129 28.7913 40.1317 28.7809 40.1473 28.7665C40.1629 28.7521 40.1749 28.7341 40.1821 28.7141C40.1894 28.6942 40.1918 28.6727 40.1891 28.6516C40.1864 28.6306 40.1787 28.6104 40.1666 28.5929L40.1846 28.558C40.4782 28.1 40.7242 27.6129 40.9186 27.1045C42.2631 24.3346 43.9426 21.7412 45.9193 19.3828C46.0148 19.2701 46.125 19.1642 46.2565 19.0312C46.3857 19.1964 46.4468 19.4048 46.4273 19.6138C46.6909 23.0038 46.3789 26.4141 45.5045 29.6994C45.4753 29.8121 45.3415 29.936 45.5045 30.0543L45.4213 30.2797C45.2842 30.3225 45.2921 30.4194 45.3269 30.5276L44.1501 33.6994C44.0759 33.7332 44.0534 33.7839 44.0984 33.8572L44.0085 34.1411" fill="white"/>
<path d="M47.003 58.9776C47.3087 60.19 47.7527 61.3618 47.9764 62.599C48.3939 64.7584 48.4912 66.9678 48.2652 69.1556C47.6684 68.599 47.0288 68.0909 46.4994 67.4914C44.8723 65.6583 43.4352 63.6642 42.2102 61.5399C42.1585 61.4509 42.1327 61.3145 41.9944 61.301C41.9693 61.2823 41.9505 61.2564 41.9404 61.2266C42.0011 61.141 41.9685 61.0892 41.8797 61.0576C41.3784 59.9557 40.8468 58.8683 40.251 57.8148C40.2769 57.7314 40.2848 57.6582 40.1656 57.6503C40.1424 57.6309 40.1235 57.6067 40.1105 57.5793C40.1105 57.5343 40.1162 57.488 40.1184 57.4419L40.0341 57.4554L39.9903 57.425L39.9959 57.372C40.0892 57.2154 40.0049 57.0813 39.9476 56.9416C38.8092 54.186 38.0291 51.295 37.6265 48.3399C37.6074 48.1968 37.4758 48.0289 37.6343 47.923C37.7928 47.8171 37.912 47.9906 38.0334 48.0683C40.6434 49.7203 42.8801 51.901 44.5998 54.4706C44.7437 54.6835 44.8156 54.9619 45.0809 55.0824L47.003 58.981" fill="white"/>
<path d="M23.4245 44.6883C24.4113 44.73 25.3881 44.5452 26.3784 44.5757C28.77 44.6387 31.1383 45.0634 33.4034 45.8354C33.4946 45.8756 33.5835 45.9208 33.6698 45.9706C32.9565 46.4781 32.2083 46.9344 31.4308 47.3362C29.3029 48.5046 27.0293 49.3836 24.6699 49.9503C24.5475 49.995 24.4312 50.0548 24.3237 50.1284L22.0228 50.5317C20.8921 50.5779 19.7647 50.6906 18.6395 50.7796C17.5826 50.8136 16.5245 50.7846 15.471 50.6929C14.2834 50.6467 13.1043 50.4725 11.9539 50.1734C11.8191 50.1385 11.592 50.2241 11.583 50.0213C11.583 49.9086 11.746 49.779 11.8606 49.6833C13.4197 48.41 15.135 47.3422 16.9648 46.5058C18.0517 46.0134 19.1982 45.6912 20.3098 45.2664L23.4256 44.6759" fill="white"/>
<path d="M116.835 70.1928C116.835 67.1505 116.845 64.1635 116.825 61.1787C116.825 60.7201 116.913 60.5545 117.406 60.5725C118.451 60.6108 118.453 60.5815 118.453 61.6091C118.453 65.0548 118.445 68.5015 118.463 71.9471C118.463 72.3686 118.35 72.4328 117.94 72.4914C117.447 72.5793 116.939 72.5002 116.495 72.2666C116.052 72.0331 115.698 71.6583 115.491 71.2012C113.778 68.5083 111.939 65.8964 110.146 63.2542C110.066 63.1415 110.034 62.9714 109.799 62.9071V63.4626C109.799 66.2998 109.791 69.137 109.808 71.9731C109.808 72.3708 109.713 72.4846 109.309 72.4779C108.163 72.4587 108.162 72.4779 108.162 71.3162C108.162 67.9269 108.169 64.5376 108.153 61.1494C108.153 60.7257 108.245 60.6198 108.698 60.5567C109.2 60.4636 109.718 60.5421 110.17 60.7795C110.622 61.0169 110.981 61.3995 111.19 61.866C112.87 64.5579 114.692 67.1618 116.461 69.7939C116.551 69.9269 116.597 70.1071 116.834 70.1939" fill="white"/>
<path d="M190.021 66.5059C190.021 64.6963 190.033 62.8878 190.01 61.0783C190.01 60.6749 190.123 60.569 190.52 60.5723C192.744 60.5911 194.969 60.5911 197.195 60.5723C197.577 60.5723 197.722 60.6501 197.718 61.067C197.704 62.143 197.726 62.1431 196.643 62.1431C195.14 62.1431 193.639 62.1532 192.136 62.1363C191.782 62.1363 191.635 62.2062 191.649 62.5994C191.68 63.4557 191.675 64.3132 191.649 65.1695C191.639 65.5211 191.743 65.6202 192.099 65.6202C193.639 65.6011 195.18 65.6202 196.72 65.6033C197.144 65.5966 197.319 65.6755 197.302 66.1555C197.266 67.1695 197.295 67.1695 196.283 67.1695C194.914 67.1695 193.544 67.1898 192.175 67.1571C191.726 67.147 191.637 67.2878 191.65 67.7014C191.681 68.6332 191.674 69.5673 191.65 70.5002C191.642 70.8574 191.763 70.9509 192.109 70.9509C193.915 70.9363 195.723 70.951 197.529 70.9352C197.905 70.9352 198.002 71.0377 197.998 71.4084C197.985 72.4687 197.998 72.4687 196.926 72.4687C194.791 72.4687 192.666 72.4552 190.536 72.48C190.097 72.48 190.002 72.3538 190.008 71.9357C190.032 70.1273 190.018 68.3177 190.018 66.5081" fill="white"/>
<path d="M164.463 64.7388C164.463 63.4994 164.476 62.26 164.455 61.0205C164.45 60.6645 164.559 60.5698 164.905 60.5698C166.101 60.5619 166.101 60.5473 166.101 61.7506C166.101 63.712 166.101 65.6733 166.101 67.6346C166.091 68.0723 166.138 68.5094 166.24 68.9349C166.361 69.6285 166.739 70.2506 167.298 70.6765C167.858 71.1024 168.557 71.3006 169.256 71.2312C169.968 71.1995 170.642 70.9008 171.144 70.3942C171.647 69.8877 171.941 69.2103 171.968 68.4966C172.114 66.9022 172.006 65.3 172.027 63.7022C172.038 62.8076 172.043 61.9118 172.027 61.0171C172.018 60.6644 172.129 60.5664 172.476 60.5664C173.671 60.5664 173.671 60.5473 173.671 61.7495C173.671 63.9017 173.681 66.0538 173.671 68.2048C173.692 69.145 173.416 70.068 172.882 70.8409C172.347 71.6138 171.582 72.197 170.696 72.5067C169.788 72.8378 168.801 72.8827 167.867 72.6356C166.933 72.3885 166.097 71.8611 165.47 71.1242C164.813 70.2983 164.46 69.2703 164.471 68.2138C164.456 67.0521 164.471 65.8904 164.471 64.7287" fill="white"/>
<path d="M126.195 72.7887C124.948 72.8159 123.737 72.3686 122.805 71.5369C122.53 71.2721 122.416 71.0647 122.815 70.7966C123.129 70.587 123.362 70.1825 123.693 70.0935C124.074 69.9898 124.238 70.5138 124.542 70.7143C125.039 71.0526 125.626 71.2335 126.228 71.2335C126.829 71.2335 127.416 71.0526 127.914 70.7143C128.161 70.5589 128.361 70.3389 128.492 70.0779C128.623 69.8169 128.68 69.5248 128.658 69.2334C128.636 68.942 128.534 68.6622 128.365 68.4244C128.195 68.1865 127.964 67.9996 127.697 67.8839C127.09 67.6147 126.466 67.3862 125.83 67.2C125.474 67.0704 125.118 66.9363 124.773 66.7819C124.17 66.51 123.661 66.063 123.314 65.4986C122.966 64.9343 122.795 64.2785 122.823 63.6159C122.851 62.9532 123.076 62.3142 123.47 61.7811C123.864 61.248 124.408 60.8455 125.032 60.6253C125.807 60.301 126.652 60.1807 127.486 60.2757C128.321 60.3708 129.117 60.6781 129.8 61.1684C130.362 61.5853 130.347 61.6191 129.838 62.0777C129.584 62.3031 129.367 62.6411 129.07 62.7414C128.733 62.854 128.586 62.3853 128.305 62.2287C127.895 61.9844 127.431 61.8444 126.955 61.821C126.478 61.7977 126.003 61.8916 125.571 62.0946C125.278 62.2145 125.026 62.4187 124.848 62.6815C124.67 62.9443 124.573 63.254 124.57 63.5718C124.548 63.8782 124.616 64.1842 124.764 64.4531C124.912 64.7219 125.135 64.9422 125.405 65.0873C125.939 65.3736 126.505 65.5956 127.091 65.7487C127.47 65.8693 127.845 66 128.215 66.1329C128.844 66.3043 129.399 66.6781 129.796 67.1968C130.192 67.7156 130.408 68.3504 130.409 69.0039C130.433 69.6935 130.256 70.3753 129.898 70.965C129.541 71.5546 129.019 72.0265 128.397 72.3222C127.705 72.6432 126.95 72.8042 126.188 72.7932" fill="white"/>
<path d="M137.414 67.2972C137.414 65.7366 137.403 64.175 137.421 62.6144C137.421 62.2527 137.343 62.1231 136.957 62.1344C135.969 62.1625 134.98 62.1344 133.992 62.1502C133.695 62.1502 133.61 62.0713 133.601 61.7716C133.564 60.5806 133.553 60.5806 134.715 60.5806C137.262 60.5806 139.809 60.5919 142.358 60.5693C142.797 60.5693 142.895 60.6888 142.885 61.1091C142.859 62.1434 142.885 62.1434 141.839 62.1434C141.116 62.1434 140.392 62.175 139.673 62.1321C139.187 62.104 139.036 62.2212 139.041 62.744C139.07 65.7862 139.041 68.8353 139.067 71.8809C139.067 72.3474 138.972 72.4972 138.483 72.4803C137.417 72.442 137.416 72.4702 137.416 71.4088L137.414 67.2972Z" fill="white"/>
<path d="M157.138 67.3176C157.138 68.8781 157.126 70.4398 157.147 72.0004C157.147 72.3677 157.059 72.4793 156.68 72.4759C155.521 72.4658 155.521 72.4838 155.521 71.3288C155.521 68.4353 155.514 65.5418 155.53 62.6528C155.53 62.264 155.446 62.1243 155.034 62.1378C154.065 62.1683 153.095 62.1379 152.126 62.1548C151.782 62.1627 151.676 62.0714 151.669 61.7108C151.669 60.584 151.648 60.584 152.747 60.584C155.294 60.584 157.841 60.5919 160.391 60.5762C160.808 60.5762 160.993 60.6381 160.977 61.1215C160.945 62.1457 160.977 62.1469 159.966 62.1469C159.168 62.1469 158.369 62.166 157.571 62.1378C157.215 62.1255 157.121 62.2302 157.13 62.5807C157.15 64.1581 157.139 65.7356 157.139 67.3198" fill="white"/>
<path d="M182.603 67.304C182.603 68.8454 182.59 70.3879 182.612 71.9237C182.618 72.3226 182.556 72.4871 182.099 72.4736C180.988 72.4431 180.987 72.4736 180.987 71.3378C180.987 68.4443 180.977 65.5507 180.998 62.6617C180.998 62.2347 180.898 62.1164 180.469 62.1322C179.501 62.1671 178.53 62.1322 177.561 62.1479C177.277 62.1479 177.168 62.0826 177.154 61.7727C177.1 60.5795 177.088 60.5795 178.278 60.5795C180.825 60.5795 183.372 60.5907 185.921 60.5693C186.351 60.5693 186.469 60.682 186.459 61.1079C186.434 62.1423 186.459 62.1423 185.401 62.1423C184.622 62.1423 183.841 62.1648 183.063 62.1333C182.671 62.1175 182.593 62.2617 182.598 62.62C182.616 64.1806 182.605 65.7412 182.605 67.3029" fill="white"/>
<path d="M148.122 66.569C148.122 68.3719 148.109 70.1747 148.132 71.9854C148.132 72.3899 148.02 72.4834 147.629 72.4767C146.464 72.4586 146.464 72.4767 146.464 71.3352C146.464 67.9336 146.473 64.5319 146.453 61.1302C146.453 60.6716 146.584 60.5589 147.025 60.5668C148.121 60.5938 148.122 60.5724 148.122 61.662V66.569Z" fill="white"/>
<path d="M103.258 66.5517C103.258 68.3759 103.249 70.2012 103.266 72.0255C103.266 72.3714 103.188 72.4762 102.83 72.4762C101.619 72.4762 101.62 72.4976 101.62 71.2672C101.62 67.9027 101.629 64.5393 101.608 61.1748C101.608 60.715 101.702 60.5517 102.192 60.5674C103.257 60.6024 103.258 60.5753 103.258 61.648V66.5517Z" fill="white"/>
<path d="M40.1653 28.5879C40.1774 28.6054 40.185 28.6255 40.1878 28.6466C40.1905 28.6677 40.1881 28.6891 40.1808 28.7091C40.1736 28.7291 40.1616 28.747 40.146 28.7614C40.1304 28.7758 40.1116 28.7862 40.0911 28.7918C40.0596 28.7028 40.0518 28.6239 40.1653 28.5879Z" fill="white"/>
<path d="M45.319 30.5243C45.2842 30.4116 45.2763 30.3192 45.4134 30.2764C45.4381 30.38 45.4348 30.4736 45.319 30.5243Z" fill="white"/>
<path d="M39.021 31.666C39.0626 31.7584 39.0592 31.8362 38.948 31.8745C38.9097 31.7832 38.9131 31.7066 39.021 31.666Z" fill="white"/>
<path d="M40.0315 57.4561L40.1158 57.4414C40.1158 57.4876 40.1158 57.5326 40.1079 57.5788C40.0236 57.5788 40.0079 57.527 40.0326 57.4561" fill="white"/>
<path d="M40.1642 57.6484C40.2834 57.6552 40.2767 57.7296 40.2497 57.8129C40.1553 57.7927 40.1373 57.7341 40.1642 57.6484Z" fill="white"/>
<path d="M41.8796 61.0557C41.9684 61.0872 42.001 61.1402 41.9403 61.2247C41.8504 61.1931 41.8571 61.1266 41.8796 61.0557Z" fill="white"/>
<path d="M44.0895 33.8521C44.0445 33.7789 44.067 33.7281 44.1412 33.6943C44.1488 33.708 44.1535 33.723 44.155 33.7386C44.1565 33.7541 44.1548 33.7698 44.1499 33.7846C44.1451 33.7995 44.1372 33.8131 44.1268 33.8247C44.1164 33.8363 44.1037 33.8457 44.0895 33.8521Z" fill="white"/>
</g>
</g>
<defs>
<clipPath id="clip0_1749_819">
<rect width="198" height="80" fill="white"/>
</clipPath>
</defs>
</svg>
