<svg width="197" height="71" viewBox="0 0 197 71" fill="none" xmlns="http://www.w3.org/2000/svg">
<g clip-path="url(#clip0_1749_827)">
<mask id="mask0_1749_827" style="mask-type:luminance" maskUnits="userSpaceOnUse" x="0" y="0" width="197" height="71">
<path d="M197 0H0V71H197V0Z" fill="white"/>
</mask>
<g mask="url(#mask0_1749_827)">
<path d="M197 49.872H196.413C193.071 49.872 189.728 49.8645 186.385 49.8819C186.216 49.8992 186.045 49.8617 185.899 49.7749C185.753 49.688 185.639 49.5564 185.573 49.3996C182.608 43.9995 179.638 38.6031 176.661 33.2104C176.593 33.0538 176.477 32.9229 176.33 32.8371C176.182 32.7512 176.011 32.7148 175.841 32.7332C173.216 32.7506 170.591 32.7558 167.966 32.7309C167.446 32.7261 167.283 32.8519 167.285 33.3959C167.307 38.6353 167.299 43.8742 167.299 49.1136V49.8415C167.093 49.853 166.925 49.8704 166.755 49.8708C163.64 49.8708 160.525 49.8625 157.41 49.8819C156.953 49.885 156.821 49.7699 156.821 49.3007C156.834 33.4087 156.837 17.5163 156.832 1.62356V1.10805C157.057 1.09421 157.242 1.07284 157.426 1.07245C164.634 1.07245 171.846 1.05583 179.057 1.07561C185.96 1.0946 192.114 5.32667 194.298 11.5598C196.809 18.7275 194.46 27.0441 186.9 31.1927C186.794 31.2508 186.694 31.3193 186.54 31.4146C190.011 37.5378 193.474 43.6475 197 49.8692M167.297 16.8581C167.297 18.7603 167.294 20.6625 167.297 22.5647C167.297 23.4395 167.174 23.3924 168.101 23.3928C170.934 23.3928 173.765 23.3987 176.6 23.39C177.403 23.3876 178.208 23.3773 179.008 23.3156C179.89 23.2434 180.747 22.9868 181.524 22.5625C182.3 22.1382 182.979 21.5557 183.515 20.8526C184.052 20.1496 184.435 19.3418 184.639 18.4816C184.843 17.6214 184.864 16.7279 184.7 15.8592C184.058 12.5359 181.565 10.4556 178.116 10.4279C174.688 10.4002 171.26 10.4279 167.833 10.4125C167.375 10.4105 167.284 10.5818 167.287 10.9945C167.305 12.9489 167.295 14.9037 167.295 16.8581" fill="white"/>
<path d="M154.042 49.8714H153.448C150.123 49.8714 146.799 49.8611 143.474 49.8832C143.297 49.9068 143.117 49.8612 142.973 49.7561C142.828 49.651 142.73 49.4944 142.698 49.3187C141.448 45.8395 140.17 42.3698 138.918 38.891C138.887 38.7246 138.794 38.5763 138.657 38.4768C138.52 38.3773 138.349 38.3342 138.181 38.3565C132.232 38.3747 126.283 38.3756 120.333 38.3593C120.173 38.3369 120.01 38.3763 119.877 38.4695C119.745 38.5626 119.653 38.7026 119.62 38.8609C118.361 42.3579 117.081 45.847 115.825 49.3452C115.794 49.5127 115.7 49.662 115.562 49.7622C115.425 49.8624 115.254 49.9057 115.085 49.8832C111.76 49.8623 108.435 49.8718 105.11 49.8718H104.496C104.83 49.0073 105.13 48.2172 105.439 47.4311C108.879 38.689 112.319 29.9472 115.759 21.2059C118.335 14.6582 120.908 8.10945 123.478 1.55964C123.517 1.40232 123.612 1.26473 123.746 1.17298C123.88 1.08123 124.042 1.04171 124.203 1.06193C127.563 1.07855 130.922 1.07855 134.282 1.06193C134.459 1.03848 134.637 1.0813 134.784 1.18209C134.931 1.28289 135.035 1.43448 135.076 1.60751C139.364 12.533 143.66 23.4552 147.963 34.3741C149.93 39.3717 151.894 44.3699 153.857 49.3685C153.908 49.4975 153.953 49.6277 154.042 49.8714ZM129.334 13.3748L129.201 13.3791L123.325 29.2542H135.211L129.334 13.3748Z" fill="white"/>
<path d="M47.1515 41.1595C45.5966 43.1153 43.7524 44.8229 41.6823 46.2236C38.1821 48.6965 34.11 50.2399 29.8485 50.7089C21.6167 51.5793 14.2709 49.4595 8.10945 43.838C3.6211 39.8152 0.789843 34.2697 0.165581 28.2786C-0.396739 23.2093 0.595145 18.0891 3.00998 13.5953C5.42482 9.10144 9.14878 5.44594 13.6891 3.11245C18.205 0.739268 23.2993 -0.313976 28.3874 0.0736098C35.709 0.593469 41.7639 3.67583 46.4753 9.32545C46.5756 9.44414 46.6639 9.57549 46.7233 9.65461L40.1059 16.2439C38.8562 14.5765 37.3135 13.15 35.5529 12.0339C33.0859 10.41 30.2136 9.50702 27.2601 9.42673C20.8737 9.27995 15.8343 11.7831 12.6022 17.3394C7.93873 25.3525 10.8527 36.7823 20.6451 40.4268C26.6149 42.6491 32.2476 41.5935 37.3706 37.9047C38.6618 36.9749 39.7657 35.7861 40.9995 34.6771L47.1515 41.1595Z" fill="white"/>
<path d="M84.3422 49.8316H73.9771V1.07239H74.6068C86.1384 1.07239 97.67 1.06909 109.202 1.0625C109.709 1.0625 109.893 1.16141 109.886 1.71608C109.855 4.38778 109.873 7.05948 109.872 9.73118C109.872 10.4196 109.872 10.4212 109.196 10.4212H85.0999C84.343 10.4212 84.3422 10.4212 84.3422 11.1986C84.3422 15.0402 84.3513 18.8817 84.3311 22.7233C84.3287 23.2408 84.4531 23.407 84.9985 23.405C91.1774 23.3856 97.3524 23.3927 103.529 23.3927C104.254 23.3927 104.254 23.3927 104.254 24.1385C104.254 26.8102 104.242 29.4819 104.265 32.1532C104.27 32.6485 104.143 32.8028 103.629 32.8016C97.4346 32.7842 91.2401 32.7805 85.0456 32.7906C84.3438 32.7906 84.3426 32.7906 84.3426 33.5098C84.3426 38.7134 84.3426 43.9172 84.3426 49.121L84.3422 49.8316Z" fill="white"/>
<path d="M64.3691 25.447V49.1817C64.3691 49.8705 64.3691 49.8713 63.6914 49.8713C60.6637 49.8713 57.6356 49.8614 54.6084 49.8816C54.1243 49.8848 53.9449 49.7835 53.9453 49.2561C53.9588 33.3979 53.9597 17.5399 53.9481 1.68224C53.9481 1.21223 54.0705 1.05753 54.562 1.0611C57.642 1.08325 60.7222 1.08325 63.8027 1.0611C64.2819 1.05793 64.379 1.215 64.3782 1.66008C64.3655 9.5888 64.3625 17.5178 64.3691 25.447Z" fill="white"/>
<path d="M196.858 60.6636H156.857V71.0002H196.858V60.6636Z" fill="white"/>
</g>
</g>
<defs>
<clipPath id="clip0_1749_827">
<rect width="197" height="71" fill="white"/>
</clipPath>
</defs>
</svg>
