<svg width="96" height="96" viewBox="0 0 96 96" fill="none" xmlns="http://www.w3.org/2000/svg">
<rect width="96" height="96" rx="48" fill="#4B4B5E"/>
<g clip-path="url(#clip0_1799_550)">
<path d="M39.9961 37.5815C39.6841 37.0352 39.1321 36.6632 38.5001 36.584C37.5721 36.4494 36.7721 35.8952 36.3321 35.0798C35.5401 33.4727 36.6601 31.3115 38.8281 30.2665C40.9961 29.2215 43.4041 29.6807 44.1961 31.2877C44.5721 32.1348 44.5241 33.1086 44.0601 33.9082C43.7401 34.4465 43.6921 35.1036 43.9321 35.6815C44.3161 36.4573 45.2681 36.7819 46.0521 36.4019L49.5401 34.7236C51.1721 33.9398 53.1321 34.6048 53.9241 36.2198L55.6281 39.6715C56.0121 40.4473 56.9641 40.7719 57.7481 40.3919C58.3001 40.0832 58.6681 39.5369 58.7561 38.9115C58.8921 37.9932 59.4521 37.2015 60.2761 36.7661C61.9001 35.9823 64.0841 37.0907 65.1401 39.2361C66.1961 41.3815 65.7321 43.7644 64.1081 44.5482C63.2521 44.9202 62.2681 44.8727 61.4601 44.4136C60.9161 44.0969 60.2521 44.0494 59.6681 44.2869C58.8841 44.6669 58.5561 45.609 58.9401 46.3848L62.5561 53.7315C63.3481 55.3465 62.6761 57.2861 61.0441 58.0698L57.5561 59.7561C56.7721 60.1361 55.8201 59.8115 55.4361 59.0357C55.1961 58.4577 55.2441 57.7927 55.5641 57.2544C56.0281 56.4548 56.0841 55.4811 55.7001 54.634C54.9081 53.0269 52.5001 52.5677 50.3321 53.6127C48.1641 54.6577 47.0441 56.819 47.8361 58.4261C48.2761 59.2415 49.0841 59.8036 50.0041 59.9302C50.6361 60.0094 51.1881 60.3815 51.5001 60.9277C51.8841 61.7036 51.5561 62.6457 50.7721 63.0257L43.3481 66.604C41.7161 67.3877 39.7561 66.7227 38.9641 65.1077L35.3481 57.7611C34.9641 56.9852 35.2921 56.0432 36.0761 55.6632C36.6601 55.4257 37.3241 55.4732 37.8681 55.7898C38.6761 56.249 39.6601 56.3044 40.5161 55.9244C42.1401 55.1407 42.6041 52.7577 41.5481 50.6123C40.4921 48.4669 38.3081 47.3586 36.6841 48.1423C35.8601 48.5777 35.2921 49.3773 35.1641 50.2877C35.0841 50.9052 34.7081 51.4594 34.1561 51.7682C33.3721 52.1482 32.4201 51.8236 32.0361 51.0477L30.3321 47.5961C29.5401 45.9811 30.2121 44.0415 31.8441 43.2577L39.2681 39.6794C40.0521 39.2994 40.3801 38.3573 39.9961 37.5815Z" fill="white"/>
</g>
<defs>
<clipPath id="clip0_1799_550">
<rect width="36" height="38" fill="white" transform="translate(30 29)"/>
</clipPath>
</defs>
</svg>
