<svg width="24" height="24" viewBox="0 0 24 24" fill="none" xmlns="http://www.w3.org/2000/svg">
<mask id="mask0_1776_18306" style="mask-type:alpha" maskUnits="userSpaceOnUse" x="0" y="0" width="24" height="24">
<rect width="24" height="24" fill="#D9D9D9"/>
</mask>
<g mask="url(#mask0_1776_18306)">
<mask id="mask1_1776_18306" style="mask-type:alpha" maskUnits="userSpaceOnUse" x="0" y="0" width="24" height="24">
<rect width="24" height="24" fill="#D9D9D9"/>
</mask>
<g mask="url(#mask1_1776_18306)">
<path d="M12.0016 21.5C10.6877 21.5 9.45268 21.2506 8.29655 20.752C7.1404 20.2533 6.13472 19.5765 5.2795 18.7217C4.42427 17.8669 3.74721 16.8616 3.24833 15.706C2.74944 14.5504 2.5 13.3156 2.5 12.0017C2.5 10.6877 2.74933 9.45268 3.248 8.29655C3.74667 7.1404 4.42342 6.13472 5.27825 5.2795C6.1331 4.42427 7.13834 3.74721 8.29398 3.24833C9.44959 2.74944 10.6844 2.5 11.9983 2.5C13.3122 2.5 14.5473 2.74933 15.7034 3.248C16.8596 3.74667 17.8652 4.42342 18.7205 5.27825C19.5757 6.1331 20.2527 7.13834 20.7516 8.29398C21.2505 9.44959 21.5 10.6844 21.5 11.9983C21.5 13.3122 21.2506 14.5473 20.752 15.7034C20.2533 16.8596 19.5765 17.8652 18.7217 18.7205C17.8669 19.5757 16.8616 20.2527 15.706 20.7516C14.5504 21.2505 13.3156 21.5 12.0016 21.5ZM12 20C14.2333 20 16.125 19.225 17.675 17.675C19.225 16.125 20 14.2333 20 12C20 9.76664 19.225 7.87498 17.675 6.32498C16.125 4.77498 14.2333 3.99998 12 3.99998C9.76664 3.99998 7.87498 4.77498 6.32498 6.32498C4.77498 7.87498 3.99998 9.76664 3.99998 12C3.99998 14.2333 4.77498 16.125 6.32498 17.675C7.87498 19.225 9.76664 20 12 20ZM9.99998 15.75H14C14.2125 15.75 14.3906 15.6781 14.5344 15.5343C14.6781 15.3906 14.75 15.2125 14.75 15V14C14.75 13.7875 14.6781 13.6094 14.5343 13.4656C14.3904 13.3219 14.2122 13.25 13.9997 13.25C13.7871 13.25 13.609 13.3219 13.4654 13.4656C13.3218 13.6094 13.25 13.7875 13.25 14V14.25H10.75V9.74995H13.25V9.99998C13.25 10.2125 13.3219 10.3906 13.4657 10.5344C13.6095 10.6781 13.7877 10.75 14.0003 10.75C14.2129 10.75 14.391 10.6781 14.5346 10.5344C14.6782 10.3906 14.75 10.2125 14.75 9.99998V8.99998C14.75 8.78748 14.6781 8.60935 14.5344 8.4656C14.3906 8.32187 14.2125 8.25 14 8.25H9.99998C9.78748 8.25 9.60936 8.32187 9.46563 8.4656C9.32188 8.60935 9.25 8.78748 9.25 8.99998V15C9.25 15.2125 9.32188 15.3906 9.46563 15.5343C9.60936 15.6781 9.78748 15.75 9.99998 15.75Z" fill="white"/>
</g>
</g>
</svg>
