<svg width="336" height="38" viewBox="0 0 336 38" fill="none" xmlns="http://www.w3.org/2000/svg">
<g clip-path="url(#clip0_1749_821)">
<mask id="mask0_1749_821" style="mask-type:luminance" maskUnits="userSpaceOnUse" x="0" y="0" width="336" height="38">
<path d="M336 0H0V38H336V0Z" fill="white"/>
</mask>
<g mask="url(#mask0_1749_821)">
<path d="M37.7451 10.4594C37.7451 18.9847 37.7193 27.3275 37.7667 35.6697C37.7757 37.2998 37.0083 37.6852 35.5605 37.6792C27.7734 37.6457 19.9863 37.6457 12.1992 37.6792C10.7004 37.6858 10.0374 37.1783 10.047 35.602C10.0931 27.7494 10.0218 19.8955 10.1429 12.0447C10.1543 11.3211 11.222 9.99981 11.8143 9.99203C20.0964 9.88311 28.3809 9.95133 36.6642 9.99741C36.9352 9.99741 37.2038 10.2212 37.7433 10.46M31.5685 15.9955C26.8378 15.9955 22.2792 15.9393 17.726 16.0667C17.3519 16.1682 17.0102 16.3637 16.7333 16.6345C16.4565 16.9053 16.2538 17.2424 16.1445 17.6137C16.0108 21.7806 16.0246 25.9547 16.1385 30.121C16.2336 30.4552 16.4129 30.7595 16.6592 31.0049C16.9054 31.2503 17.2106 31.4287 17.5455 31.5231C22.1959 31.632 26.8492 31.5871 31.5685 31.5871V15.9955Z" fill="white"/>
<path d="M90.4699 16.8216H79.3084V10.4639H99.8209C100.166 13.784 100.613 16.8797 97.7131 19.7061C94.4512 22.885 91.6851 26.5689 88.3201 30.4779H100.382V36.8949H78.8144C78.2317 33.5497 78.1184 30.4917 80.9408 27.6928C84.1686 24.4912 86.9676 20.8611 90.4699 16.8216Z" fill="white"/>
<path d="M71.1342 28.1345L75.0519 32.4079C69.7344 39.0835 59.4913 39.7328 53.3416 33.9884C46.846 27.9203 47.0007 19.0305 53.7079 13.0815C59.8084 7.66803 69.9472 8.49806 74.8649 14.9612L70.8207 19.1777C64.9929 15.2783 60.7143 15.1574 57.6832 18.7193C56.5058 20.2155 55.8966 22.0792 55.9634 23.9806C56.0302 25.8821 56.7688 27.6986 58.0483 29.1087C61.1369 32.302 65.9431 31.9854 71.1342 28.1333" fill="white"/>
<path d="M288.372 10.1387C289.364 10.8568 290.586 11.3954 291.309 12.3176C296.161 18.5012 300.906 24.765 306.391 30.9361V28.273C306.391 23.1014 306.459 17.9285 306.36 12.7586C306.319 10.6228 307.182 10.1853 309.15 10.7198V38C307.495 36.7995 306.179 36.2113 305.392 35.2113C301.203 29.8942 297.152 24.47 293.042 19.0913C292.405 18.2576 291.709 17.4671 290.477 15.9728V36.9605H287.739V10.94L288.37 10.1387" fill="white"/>
<path d="M319.753 13.1567V21.8788H331.631C332.351 23.7747 332.103 24.6502 330.156 24.6077C326.778 24.5347 323.397 24.5874 319.802 24.5874V34.4861C324.305 34.4861 328.67 34.4167 333.029 34.5459C333.852 34.5704 334.652 35.3885 335.462 35.8403C334.648 36.2688 333.843 37.051 333.019 37.0689C327.743 37.1814 322.468 37.1288 316.99 37.1288V10.4984C322.677 10.4984 328.228 10.4386 333.773 10.5852C334.344 10.6002 334.884 11.8216 336 13.1549L319.753 13.1567Z" fill="white"/>
<path d="M254.848 17.0933C251.91 13.933 248.364 12.1802 243.927 12.9893C241.701 13.3847 239.656 14.4707 238.083 16.093C236.51 17.7153 235.49 19.7912 235.167 22.0256C234.813 24.1984 235.106 26.4273 236.01 28.4353C236.914 30.4432 238.389 32.1418 240.252 33.3199C244.01 35.6137 249.639 35.5006 252.817 32.415C254.097 31.1721 254.169 28.6964 254.859 26.5713C252.145 26.1817 250.236 25.9472 248.361 25.554C248.228 25.5259 248.343 24.3242 248.343 23.5582H256.741C258.376 30.9058 256.571 34.6723 250.495 36.6998C243.638 38.9888 236.194 35.8836 233.365 29.5545C232.085 26.6631 231.831 23.4222 232.647 20.3675C233.462 17.3129 235.297 14.6275 237.849 12.7553C240.424 10.9091 243.559 10.0079 246.724 10.2042C249.888 10.4005 252.887 11.6822 255.214 13.8324C256.6 15.0892 257.116 16.137 254.848 17.0951" fill="white"/>
<path d="M266.781 24.6228V34.4874C271.265 34.4874 275.707 34.5323 280.146 34.4653C281.964 34.4384 282.829 34.944 282.061 36.9937H263.96V10.5052C269.526 10.5052 275.176 10.4531 280.822 10.5985C281.301 10.6105 281.75 11.9402 282.577 13.2221H266.832V21.9502C270.192 21.9502 273.454 21.9119 276.713 21.964C278.791 21.9975 278.79 22.0579 278.462 24.6228H266.781Z" fill="white"/>
<path d="M142.991 13.2449V21.7881H155.037V24.6116H143.095V34.4857C147.545 34.4857 151.993 34.5222 156.439 34.4678C158.154 34.4468 159.257 34.767 158.468 36.968H140.2V10.4831H152.947C154.046 10.4831 155.199 10.2791 156.227 10.5489C157.095 10.7775 157.818 11.5561 158.606 12.0917L158.126 13.2449H142.991Z" fill="white"/>
<path d="M0.0531514 23.6086C0.0531514 19.8384 0.159863 16.0635 0.0159824 12.2982C-0.0769403 9.87808 1.3157 9.832 3.06445 9.86851C4.71068 9.90262 6.23461 9.6818 6.20044 12.194C6.09612 19.8328 6.09812 27.4729 6.20643 35.1141C6.246 37.6574 4.87074 37.6455 2.9949 37.7173C0.861279 37.7992 -0.0961243 37.2523 0.00758936 34.9184C0.17485 31.1554 0.0525519 27.3787 0.0531514 23.6086Z" fill="white"/>
<path d="M134.918 32.1759C128.829 38.7276 120.078 39.2058 114.355 33.4883C108.749 27.8882 109.043 19.0696 115.02 13.5718C120.662 8.38219 129.3 9.17631 134.689 15.4551C133.937 17.1696 133.13 17.2211 131.676 15.9201C126.901 11.646 120.626 11.7556 116.372 16.0296C114.376 18.0843 113.241 20.8218 113.198 23.6834C113.155 26.5451 114.207 29.3154 116.14 31.4291C120.168 35.7414 126.745 36.0149 131.553 32.0694C133.383 30.568 133.383 30.568 134.918 32.1759Z" fill="white"/>
<path d="M10.0655 0.322257C10.9935 0.227106 11.8358 0.0679221 12.6787 0.0655284C20.1431 0.04578 27.6099 0.143325 35.0707 -0.000299458C37.4165 -0.0451821 37.9327 0.820753 37.8799 2.94101C37.829 4.99364 37.6713 6.21624 35.0119 6.14383C27.9504 5.95233 20.8757 5.93139 13.8159 6.14922C10.8448 6.24078 9.47795 5.52086 10.0493 2.41379C10.1088 1.71706 10.1138 1.01677 10.0643 0.319265" fill="white"/>
<path d="M179.905 34.3799C180.628 36.2889 180.421 37.1716 178.462 37.1459C173.692 37.0824 168.92 37.1255 163.677 37.1255V32.3069C163.677 25.86 163.718 19.4131 163.651 12.9673C163.632 11.1158 163.992 10.0015 166.469 10.7567V34.3799H179.905Z" fill="white"/>
<path d="M184.781 10.7329C187.059 9.99323 187.419 11.1356 187.402 12.9704C187.345 18.9368 187.381 24.9038 187.381 30.8708V34.4854C191.355 34.4854 195.017 34.4028 198.669 34.55C199.467 34.5823 200.232 35.4357 201.012 35.9108C200.277 36.316 199.551 37.0544 198.807 37.0724C194.22 37.1807 189.63 37.1268 184.781 37.1268V10.7329Z" fill="white"/>
<path d="M217.58 24.0564L224.03 29.2454L221.981 31.5159L216.859 25.4747C214.281 27.6291 212.243 29.3759 210.113 31.0138C209.964 31.1281 209.179 30.4226 208.086 29.6973L214.927 24.3281L208.657 18.9518C210.44 16.6352 210.47 16.6041 212.69 18.7483C213.82 19.8399 214.82 21.0654 216.014 22.3796L222.316 16.4443L224.213 18.3318L217.58 24.0564Z" fill="white"/>
</g>
</g>
<defs>
<clipPath id="clip0_1749_821">
<rect width="336" height="38" fill="white"/>
</clipPath>
</defs>
</svg>
