<svg width="96" height="96" viewBox="0 0 96 96" fill="none" xmlns="http://www.w3.org/2000/svg">
<rect width="96" height="96" rx="48" fill="#4B4B5E"/>
<g clip-path="url(#clip0_1799_540)">
<path fill-rule="evenodd" clip-rule="evenodd" d="M69.3152 46.7434C69.2169 44.1542 68.6478 41.6041 67.6241 39.2177C65.4325 34.0308 61.2997 29.898 56.1129 27.7065C53.4436 26.5614 50.5696 25.9851 47.6653 26.0003C44.761 25.9851 41.8869 26.5614 39.2177 27.7065C34.0232 29.898 29.898 34.0308 27.7065 39.2177C26.5614 41.8869 25.9851 44.761 26.0003 47.6653C25.9851 50.5696 26.5614 53.4436 27.7065 56.1129C29.898 61.2998 34.0232 65.425 39.2101 67.6165C41.6686 68.6711 44.3008 69.2433 46.9704 69.3152H48.3526C51.0222 69.2433 53.6544 68.6711 56.1129 67.6165C61.3073 65.4326 65.4325 61.2998 67.6241 56.1129C68.6478 53.7264 69.2169 51.1763 69.3152 48.5872V46.7434ZM51.7298 52.109L37.6404 58.6836C37.4357 58.7822 37.2006 58.7822 36.9958 58.6836C36.6167 58.5016 36.4498 58.0466 36.6318 57.6674L43.2064 43.578C43.2822 43.4112 43.4187 43.2822 43.578 43.2064L57.6674 36.6318C57.8722 36.5333 58.1072 36.5333 58.312 36.6318C58.6911 36.8138 58.858 37.2688 58.676 37.648L52.1014 51.7374C52.0256 51.9043 51.8891 52.0332 51.7298 52.109ZM45.5572 47.6577C45.5344 48.8407 46.4747 49.8037 47.6501 49.8265H47.6577C48.234 49.8416 48.7876 49.6142 49.1971 49.2047C49.5838 48.8103 49.8113 48.2871 49.8189 47.7335C49.8416 46.5506 48.9013 45.5875 47.7259 45.5648C46.543 45.542 45.5799 46.4823 45.5572 47.6577Z" fill="white"/>
</g>
<defs>
<clipPath id="clip0_1799_540">
<rect width="44" height="44" fill="white" transform="translate(26 26)"/>
</clipPath>
</defs>
</svg>
