<svg width="48" height="48" viewBox="0 0 48 48" fill="none" xmlns="http://www.w3.org/2000/svg">
<g clip-path="url(#clip0_1941_465)">
<rect width="48" height="48" rx="24" fill="white"/>
<g clip-path="url(#clip1_1941_465)">
<path d="M48 24C48 37.2548 37.2548 48 24 48C10.7452 48 0 37.2548 0 24C0 10.7452 10.7452 0 24 0C37.2548 0 48 10.7452 48 24Z" fill="#B20A2F"/>
<path d="M20.1604 31.2001V47.5201C20.1604 47.7852 20.3753 48.0001 20.6404 48.0001H27.3604C27.6255 48.0001 27.8404 47.7852 27.8404 47.5201V31.2001C27.8404 30.935 28.0553 30.7201 28.3204 30.7201H33.1204C33.3855 30.7201 33.6004 30.5052 33.6004 30.2401V24.4801C33.6004 24.215 33.3855 24.0001 33.1204 24.0001H28.3204C28.0553 24.0001 27.8404 23.7855 27.8404 23.5204V19.2001C27.8404 17.2801 30.2404 16.3201 31.2004 16.3201H34.0804C34.3455 16.3201 34.5604 16.1052 34.5604 15.8401V10.0801C34.5604 9.815 34.3456 9.6001 34.0805 9.6001H27.8404C23.2324 9.6001 20.1604 14.4001 20.1604 17.2801V23.5201C20.1604 23.7852 19.9455 24.0001 19.6804 24.0001H14.8804C14.6153 24.0001 14.4004 24.215 14.4004 24.4801V30.2401C14.4004 30.5052 14.6153 30.7201 14.8804 30.7201H19.6804C19.9455 30.7201 20.1604 30.935 20.1604 31.2001Z" fill="white"/>
</g>
</g>
<defs>
<clipPath id="clip0_1941_465">
<rect width="48" height="48" rx="24" fill="white"/>
</clipPath>
<clipPath id="clip1_1941_465">
<rect width="48" height="48" fill="white"/>
</clipPath>
</defs>
</svg>
