<svg width="48" height="48" viewBox="0 0 48 48" fill="none" xmlns="http://www.w3.org/2000/svg">
<g clip-path="url(#clip0_1776_18310)">
<rect width="48" height="48" fill="white"/>
<path d="M48 24C48 37.2548 37.2548 48 24 48C10.7452 48 0 37.2548 0 24C0 10.7452 10.7452 0 24 0C37.2548 0 48 10.7452 48 24Z" fill="#E00D3A"/>
<path d="M20.16 31.2V47.52C20.16 47.7851 20.3749 48 20.64 48H27.36C27.6251 48 27.84 47.7851 27.84 47.52V31.2C27.84 30.9349 28.0549 30.72 28.32 30.72H33.12C33.3851 30.72 33.6 30.5051 33.6 30.24V24.48C33.6 24.2149 33.3851 24 33.12 24H28.32C28.0549 24 27.84 23.7854 27.84 23.5203V19.2C27.84 17.28 30.24 16.32 31.2 16.32H34.08C34.3451 16.32 34.56 16.1051 34.56 15.84V10.08C34.56 9.8149 34.3452 9.6 34.0801 9.6H27.84C23.232 9.6 20.16 14.4 20.16 17.28V23.52C20.16 23.7851 19.9451 24 19.68 24H14.88C14.6149 24 14.4 24.2149 14.4 24.48V30.24C14.4 30.5051 14.6149 30.72 14.88 30.72H19.68C19.9451 30.72 20.16 30.9349 20.16 31.2Z" fill="#E00D3A"/>
</g>
<defs>
<clipPath id="clip0_1776_18310">
<rect width="48" height="48" rx="24" fill="white"/>
</clipPath>
</defs>
</svg>
