<svg width="264" height="49" viewBox="0 0 264 49" fill="none" xmlns="http://www.w3.org/2000/svg">
<g clip-path="url(#clip0_1749_829)">
<mask id="mask0_1749_829" style="mask-type:luminance" maskUnits="userSpaceOnUse" x="0" y="0" width="264" height="49">
<path d="M264 0H0V49H264V0Z" fill="white"/>
</mask>
<g mask="url(#mask0_1749_829)">
<path d="M62.9016 0C62.7518 2.22531 62.9773 4.57684 62.2879 6.6213C61.9596 7.60025 59.9529 8.34013 58.6059 8.56014C56.9014 8.83836 56.2959 9.42985 56.3046 11.141C56.3078 19.2236 57.7953 27.2359 60.6918 34.7733C61.9013 37.9075 64.266 39.2656 67.7276 40.2611C64.804 34.897 67.97 32.0549 71.5452 29.4246C71.9993 29.0902 72.8426 28.8182 73.2906 29.0124C78.2967 31.1811 79.9254 35.2932 77.6375 40.6568C81.071 39.5696 84.0672 38.6535 85.4802 35.1365C88.5885 27.4939 90.0862 19.2838 89.8782 11.0271C89.8588 10.2542 89.1464 9.00118 88.5082 8.81157C83.4336 7.32975 82.238 5.41926 83.315 0H87.3974C90.4443 1.21287 91.4375 3.37016 91.0181 6.63727C90.6334 10.2599 90.5182 13.9064 90.6735 17.5464C91.0059 12.8134 91.3381 8.08062 91.6702 3.34801L92.0532 3.35522C91.7583 11.2016 91.4631 19.0478 91.1675 26.8938L91.8323 26.9597C92.0466 24.0471 92.3631 21.1376 92.4434 18.2213C92.5129 15.6941 92.0394 13.1756 94.2302 11.0832C94.7723 10.568 94.3755 9.0223 94.3325 7.94958C94.2916 6.94487 93.9505 5.91594 94.0891 4.9473C94.3744 2.95282 96.0953 2.07589 97.8519 3.02238C101.146 4.79737 102.045 7.92485 102.343 11.361C102.64 14.7801 101.662 17.6438 98.5367 19.3317C97.7184 19.7737 96.1919 19.8665 95.524 19.3832C94.7186 18.8015 94.2215 17.4706 94.0717 16.3974C93.9183 15.3061 94.3509 14.1304 94.5268 12.9968L93.6943 12.8273C93.5184 14.0175 93.0376 15.2572 93.2192 16.3902C94.0001 21.2638 93.168 25.8437 91.2068 30.3016C90.9166 31.0977 90.7036 31.9202 90.5707 32.7577C89.44 37.8266 87.0789 41.7743 81.9342 43.9151C79.1941 45.0564 76.9282 47.2915 74.2863 48.7383C73.468 49.1865 71.9098 49.0232 71.0461 48.5244C68.0259 46.8695 65.1417 44.9742 62.4209 42.8568C60.3814 41.1921 58.1021 39.1878 57.2348 36.8507C55.4043 31.6758 53.9683 26.3677 52.9391 20.9727C52.4062 18.3888 52.847 15.6039 52.847 12.9103L53.6013 12.8469C53.8287 17.4057 54.0561 21.9642 54.2835 26.5223L55.1529 26.4816L54.2079 2.2351L54.5316 2.21809C54.8514 6.52203 55.1713 10.8255 55.4915 15.1284C55.4915 12.5074 55.7303 9.86111 55.4403 7.27359C54.908 2.48756 55.0568 1.97645 59.3269 0L62.9016 0ZM86.882 34.9299C90.9583 31.5701 89.9084 26.8567 90.4178 22.3783C89.2098 26.6655 88.0536 30.7709 86.882 34.9299ZM59.1935 34.4992C57.9922 29.8703 56.9208 25.7428 55.8489 21.6152C56.8912 25.7453 54.8844 30.6061 59.1935 34.4992ZM63.0018 42.1051C63.1944 41.911 63.3876 41.7171 63.5812 41.5234L57.9712 34.6192C58.1258 36.19 58.6667 37.6971 59.5451 39.0041C60.4235 40.3111 61.6116 41.3773 63.0018 42.1051ZM82.5883 41.7754L83.0485 42.2365C86.1317 40.7634 87.7426 38.1661 88.8401 35.1803L88.2658 34.7341L82.5893 41.7754M82.4599 40.2003L75.8399 42.5261C79.3829 43.9625 80.5898 43.5534 82.4523 40.2008M69.9287 42.5034L63.8129 40.107C65.7051 43.5194 66.4895 43.8399 69.9287 42.5034ZM78.7411 45.1976C78.722 44.9296 78.7029 44.6619 78.6838 44.3943C77.5495 44.3021 76.3349 43.9388 75.3167 44.2397C74.8534 44.3768 74.7777 45.8256 74.5261 46.6794L75.1848 47.1534L78.7411 45.1986M67.6213 44.3881C67.5729 44.5973 67.5244 44.8067 67.476 45.0162C68.4635 45.619 69.4515 46.2213 71.131 47.2451C70.7955 45.686 70.8011 44.4041 70.438 44.2897C69.5937 44.0233 68.5714 44.3196 67.6213 44.3881Z" fill="white"/>
<path d="M264 15.8092C261.591 22.736 258.029 25.1664 249.677 25.4843C247.299 25.575 244.911 25.6002 242.535 25.49C240.497 25.3952 239.856 26.284 239.892 28.2115C239.972 32.4586 239.892 36.7082 239.92 40.9569C239.93 42.5541 239.775 43.7907 237.651 43.7706C235.646 43.7525 235.302 42.7401 235.309 41.0305C235.353 29.4741 235.35 17.9179 235.301 6.36183C235.291 4.46731 235.792 3.51361 237.858 3.58368C242.444 3.73825 247.035 3.72485 251.621 3.88045C257.926 4.09376 262.261 6.98784 263.997 13.2578L264 15.8092ZM246.989 7.4665C246.982 7.54327 246.974 7.62107 246.967 7.69733C245.266 7.69733 243.538 7.5206 241.878 7.77976C241.162 7.89209 240.064 8.8767 240.03 9.5125C239.849 12.9002 239.893 16.3054 240.01 19.6992C240.03 20.266 240.808 21.3032 241.204 21.2882C245.755 21.1156 250.372 21.1738 254.819 20.352C257.766 19.8069 259.386 16.7196 259.217 14.1857C259.029 11.3725 257.188 9.0287 254.041 8.28006C251.756 7.73648 249.345 7.71897 246.99 7.4665" fill="white"/>
<path d="M179.858 13.9038C175.204 24.6579 170.777 34.8997 166.346 45.1416L165.579 45.2719L152.303 14.4783L151.761 14.4814C150.983 17.7202 150.187 20.9548 149.433 24.1993C148.146 29.7401 146.887 35.2877 145.611 40.8306C144.907 43.8906 144.37 44.1853 140.762 43.1863C143.98 29.6572 147.2 16.1178 150.423 2.56813L151.115 2.5166L165.932 36.0538C171.097 24.4064 175.933 13.5009 180.769 2.59543L181.481 2.53927L191.13 43.0312C187.846 44.3796 187.038 43.9689 186.317 40.8445C184.445 32.7381 182.565 24.6331 180.677 16.5295C180.513 15.8267 180.249 15.1476 179.859 13.9049" fill="white"/>
<path d="M41.1844 13.1188L38.026 15.4508C37.0431 14.3981 36.208 13.4563 35.3222 12.5654C27.214 4.40255 13.4703 5.59017 7.03691 15.0504C3.76756 19.8591 3.22803 25.028 5.77888 30.2808C8.69383 36.2869 13.7618 39.4067 20.2902 40.1347C24.8248 40.637 29.381 39.4029 33.0542 36.6775C34.3978 35.7907 35.5507 34.6408 36.4442 33.296C37.3202 31.8286 37.6204 30.017 38.1687 28.3559C36.6747 28.0124 35.1614 27.7605 33.6372 27.6016C31.0055 27.4728 28.3642 27.5418 25.7279 27.5552C24.3855 27.5619 23.6823 27.0158 23.6588 25.5973C23.6363 24.217 24.2214 23.5328 25.6083 23.5333C30.6266 23.5333 35.6459 23.5441 40.6638 23.524C42.2143 23.5173 42.6664 24.2871 42.6909 25.7534C42.7866 31.4138 40.7543 36.0216 36.1931 39.4561C31.8249 42.73 26.4645 44.3752 21.0265 44.111C15.5885 43.8469 10.41 41.6898 6.37465 38.0078C4.30008 36.1432 2.65546 33.8439 1.55609 31.2713C0.456726 28.6986 -0.0707629 25.9148 0.0106087 23.115C0.0919803 20.3152 0.780243 17.5672 2.02714 15.0638C3.27403 12.5603 5.04938 10.362 7.22868 8.62285C11.9173 4.68054 17.9523 2.74573 24.04 3.23318C30.1277 3.72062 35.7837 6.59151 39.7954 11.2305C40.2357 11.7308 40.5906 12.3063 41.1864 13.1203" fill="white"/>
<path d="M106.195 23.6267C106.195 17.9421 106.271 12.256 106.153 6.57242C106.109 4.41719 106.709 3.42948 109.006 3.57684C113.826 3.88598 118.74 3.57426 123.462 4.394C134.383 6.28853 141.24 14.9837 140.59 25.3512C140.018 34.4848 131.382 42.5936 121.146 43.3933C117.003 43.7163 112.834 43.622 108.677 43.7539C106.86 43.8111 106.134 43.0764 106.163 41.1875C106.253 35.335 106.196 29.4803 106.195 23.6267ZM110.78 40.1931C115.757 39.6125 120.402 39.6042 124.738 38.4413C131.617 36.5978 136.317 30.0172 136.239 23.5747C136.16 16.9586 131.534 10.7051 124.567 8.85801C120.864 7.87906 116.856 8.05991 112.991 7.66627C111.135 7.47769 110.721 8.31701 110.74 10.0364C110.824 17.4202 110.779 24.8056 110.78 32.1915C110.78 34.5559 110.78 36.9204 110.78 40.1911" fill="white"/>
<path d="M212.271 2.86195L231.486 43.1184C228.132 44.2328 227.411 43.9644 226.209 41.278C224.961 38.4895 223.872 35.6207 222.454 32.9234C222.167 32.4597 221.783 32.0649 221.328 31.7669C220.874 31.4689 220.36 31.2748 219.823 31.1984C214.986 31.0279 210.136 31.0129 205.302 31.2077C204.33 31.2468 203.015 32.2186 202.531 33.1207C201.13 35.7294 200.073 38.522 198.879 41.2414C197.665 44.0067 197.032 44.2622 193.626 43.0962C199.615 29.663 205.594 16.2507 211.565 2.85938L212.274 2.86195M211.977 11.3633C209.567 16.8934 207.477 21.6933 205.219 26.872H219.782C217.191 21.7232 214.755 16.8862 211.977 11.3633Z" fill="white"/>
<path d="M43.8871 11.8731C44.2532 8.55245 44.8495 5.29616 47.9921 3.33311C50.2933 1.89354 52.2274 2.95286 52.277 5.67177C52.343 9.34128 52.3855 13.0196 52.1865 16.6803C52.1313 17.6897 51.4036 19.1019 50.5797 19.5053C49.7702 19.9026 48.2784 19.5414 47.3804 19.0112C44.735 17.4459 43.7152 14.9259 43.8871 11.8731Z" fill="white"/>
</g>
</g>
<defs>
<clipPath id="clip0_1749_829">
<rect width="264" height="49" fill="white"/>
</clipPath>
</defs>
</svg>
