<svg width="220" height="226" viewBox="0 0 220 226" fill="none" xmlns="http://www.w3.org/2000/svg">
<path d="M220 110.189C220 49.3333 170.751 0 110 0C49.2487 0 0 49.3333 0 110.189V115.811C0 176.667 49.2487 226 110 226C170.751 226 220 176.667 220 115.811V110.189Z" fill="#FF0043"/>
<path d="M201.457 75.2038C196.457 63.3646 189.301 52.7322 180.187 43.6009C171.074 34.4696 160.457 27.3013 148.638 22.2953C136.399 17.1104 123.4 14.4795 110.001 14.4795C96.6022 14.4795 83.6034 17.1082 71.3639 22.2953C59.5449 27.3036 48.9306 34.4719 39.8149 43.6009C30.6992 52.7299 23.5431 63.3646 18.5457 75.2038C13.3696 87.4641 10.7432 100.485 10.7432 113.907C10.7432 127.329 13.3674 140.35 18.5457 152.61C23.5454 164.45 30.7015 175.082 39.8149 184.213C48.9284 193.342 59.5449 200.513 71.3639 205.519C83.6034 210.704 96.6022 213.335 110.001 213.335C123.4 213.335 136.399 210.706 148.638 205.519C160.457 200.511 171.074 193.342 180.187 184.213C189.301 175.082 196.459 164.45 201.457 152.61C206.633 140.35 209.259 127.329 209.259 113.907C209.259 100.485 206.635 87.4641 201.457 75.2038ZM202.472 113.001H179.69C179.668 111.242 179.582 109.494 179.43 107.758L197.296 105.946C197.668 105.908 197.94 105.575 197.901 105.201C197.863 104.828 197.531 104.554 197.158 104.595L179.299 106.406C178.271 96.6951 175.249 87.4234 170.432 79.071L190.13 67.7072C197.838 81.0702 202.311 96.5275 202.469 113.001H202.472ZM17.5308 113.001C17.5805 107.871 18.0484 102.84 18.9005 97.9403L41.3044 102.004C40.6896 105.607 40.3574 109.281 40.3122 113.001H17.5308ZM43.5421 102.41L63.9163 106.107C63.5388 108.355 63.3196 110.658 63.2766 113.001H42.5747C42.6222 109.397 42.9522 105.86 43.5444 102.41H43.5421ZM139.805 145.714L132.586 137.18C133.892 135.908 135.093 134.527 136.171 133.05L145.551 139.116C143.858 141.505 141.93 143.712 139.805 145.714ZM75.9116 141.061L84.6544 134.135C85.5359 135.24 86.4875 136.288 87.5023 137.269L80.0117 145.544C78.5448 144.147 77.1751 142.648 75.9116 141.061ZM81.169 81.2106L88.3771 89.7306C83.3095 94.2838 79.675 100.406 78.2465 107.327L67.2705 105.335C69.1714 95.8166 74.1712 87.4075 81.1668 81.2106H81.169ZM131.185 125.162L133.66 126.439C132.403 128.81 130.803 130.972 128.924 132.853L125.084 128.316C128.407 124.741 130.511 120.016 130.73 114.81H136.752C136.627 118.519 135.748 122.04 134.263 125.223L131.804 123.953C131.472 123.781 131.062 123.912 130.891 124.245C130.719 124.578 130.85 124.988 131.182 125.16L131.185 125.162ZM85.6602 125.067L98.3178 119.031C99.8955 122.629 103.082 125.361 106.961 126.317L104.509 140.155C96.1163 138.396 89.1569 132.688 85.6602 125.067ZM92.0297 94.0483L95.5015 98.1509C92.3054 101.02 89.9728 104.864 88.9919 109.277L83.8136 108.337C85.0002 102.731 87.9408 97.766 92.0319 94.0483H92.0297ZM88.9896 110.658C89.0303 110.665 89.071 110.669 89.1116 110.669C89.2518 110.669 89.3829 110.624 89.4936 110.547C89.7265 110.515 89.9254 110.341 89.9706 110.097C90.8182 105.691 93.0807 101.853 96.2315 99.0135L101.098 104.767C98.9235 106.891 97.5041 109.784 97.278 113.001H83.2462C83.2847 111.874 83.3909 110.762 83.5649 109.673L88.9896 110.658ZM120.394 122.773C120.154 122.49 119.777 122.391 119.442 122.493C121.312 120.432 122.514 117.758 122.722 114.815H129.602C129.385 119.674 127.432 124.089 124.352 127.451L120.396 122.776L120.394 122.773ZM100.183 113.909C100.183 108.487 104.588 104.074 110.001 104.074C115.415 104.074 119.82 108.487 119.82 113.909C119.82 119.332 115.415 123.745 110.001 123.745C104.588 123.745 100.183 119.332 100.183 113.909ZM122.722 113.004C122.584 111.032 121.996 109.184 121.063 107.558L127.057 104.101C128.551 106.755 129.458 109.782 129.602 113.004H122.722ZM120.588 106.789C118.294 103.379 114.406 101.131 110.001 101.131C107.189 101.131 104.59 102.047 102.479 103.596L97.6307 97.8679C100.998 95.3456 105.164 93.8694 109.615 93.8694C116.768 93.8694 123.057 97.6505 126.594 103.322L120.586 106.789H120.588ZM97.2803 114.815C97.3639 115.99 97.6035 117.122 97.9833 118.191L85.2986 124.241C84.078 121.322 83.3592 118.146 83.2485 114.815H97.2803ZM107.847 126.503C108.548 126.623 109.267 126.688 110.001 126.688C113.428 126.688 116.54 125.325 118.834 123.115C118.757 123.394 118.814 123.706 119.015 123.946L123.066 128.735C120.484 131.085 117.291 132.772 113.756 133.519C113.719 133.517 113.683 133.519 113.647 133.524C113.604 133.53 113.563 133.546 113.525 133.567C112.261 133.818 110.953 133.952 109.617 133.952C109.305 133.952 109.052 134.205 109.052 134.518C109.052 134.83 109.305 135.084 109.617 135.084C110.91 135.084 112.176 134.966 113.407 134.742L114.418 140.359C112.98 140.599 111.507 140.726 110.001 140.726C108.496 140.726 106.893 140.588 105.397 140.327L107.847 126.503ZM114.291 134.561C117.894 133.743 121.149 132.002 123.796 129.598L127.602 134.096C124.162 137.11 119.949 139.256 115.304 140.196L114.289 134.558L114.291 134.561ZM130.732 113.006C130.588 109.578 129.625 106.358 128.036 103.537L133.208 100.553C135.332 104.244 136.605 108.484 136.754 113.006H130.732ZM127.575 102.758C123.841 96.7471 117.189 92.7373 109.617 92.7373C104.891 92.7373 100.467 94.3132 96.9006 97.003L93.4107 92.88C97.9742 89.2596 103.74 87.0951 110.001 87.0951C119.587 87.0951 128.013 92.169 132.742 99.7788L127.575 102.758ZM136.356 95.0196L145.544 88.6913C146.161 89.563 146.749 90.4574 147.303 91.3743L137.638 96.9509C137.233 96.292 136.806 95.6468 136.356 95.0196ZM135.542 93.9305C133.058 90.7517 129.996 88.046 126.515 85.9743L132.077 76.2951C136.998 79.2046 141.302 83.0536 144.739 87.5977L135.542 93.9328V93.9305ZM125.335 85.3042C121.011 82.9698 116.102 81.5887 110.887 81.4461L110.849 70.2725C118.1 70.4129 124.924 72.3351 130.9 75.6204L125.335 85.3019V85.3042ZM109.079 81.4483C103.731 81.5978 98.7043 83.0536 94.3013 85.5034L88.7026 75.8446C94.742 72.4416 101.668 70.4355 109.041 70.277L109.079 81.4506V81.4483ZM93.1304 86.1872C91.9551 86.9072 90.8272 87.7019 89.7559 88.5623L82.5478 80.0423C84.1232 78.7585 85.7868 77.5834 87.5317 76.5261L93.1304 86.1849V86.1872ZM78.0024 108.668C77.7718 110.085 77.6317 111.534 77.591 113.006H66.4365C66.4795 110.855 66.6806 108.743 67.0264 106.678L78.0001 108.668H78.0024ZM77.591 114.817C77.7063 119.017 78.6217 123.018 80.1903 126.677L70.1185 131.481C67.8628 126.364 66.5608 120.733 66.4388 114.817H77.5933H77.591ZM80.5587 127.503C81.4674 129.469 82.5659 131.33 83.8316 133.059L75.0821 139.99C73.301 137.604 71.7617 135.029 70.4914 132.303L80.5587 127.503ZM88.4991 138.195C92.6852 141.917 97.8341 144.575 103.521 145.734L101.573 156.733C93.7769 155.196 86.7225 151.571 81.0131 146.465L88.5014 138.195H88.4991ZM104.409 145.902C106.227 146.219 108.094 146.386 110.001 146.386C111.909 146.386 113.656 146.228 115.419 145.931L117.397 156.926C114.992 157.34 112.521 157.558 110.001 157.558C107.481 157.558 104.911 157.331 102.461 156.901L104.409 145.902ZM116.307 145.768C121.951 144.65 127.073 142.059 131.255 138.414L138.463 146.932C132.812 151.825 125.898 155.289 118.285 156.763L116.307 145.768ZM136.951 131.943C137.577 131.008 138.155 130.037 138.682 129.036L148.593 134.153C147.899 135.478 147.138 136.761 146.317 138L136.951 131.943ZM139.292 127.823C141.175 123.86 142.28 119.459 142.409 114.815H153.564C153.43 121.3 151.88 127.442 149.21 132.942L139.294 127.823H139.292ZM142.409 113.004C142.396 112.506 142.371 112.012 142.335 111.521L153.432 110.395C153.5 111.258 153.546 112.127 153.564 113.004H142.409ZM142.206 110.169C141.69 105.681 140.26 101.47 138.103 97.7275L147.764 92.1532C150.691 97.2294 152.623 102.951 153.301 109.044L142.206 110.169ZM150.505 90.5706L168.441 80.2234C173.016 88.157 176.024 97.1026 177.048 106.637L156.45 108.724C155.727 102.174 153.652 96.0271 150.505 90.5706ZM150.044 89.7917C149.448 88.8023 148.817 87.8355 148.15 86.8936L165.204 75.1495C166.183 76.5419 167.107 77.9751 167.98 79.4423L150.044 89.7894V89.7917ZM147.35 85.7977C143.643 80.8687 138.987 76.6936 133.655 73.5465L143.98 55.5782C151.986 60.2763 158.945 66.582 164.411 74.0468L147.348 85.7977H147.35ZM132.477 72.874C126.033 69.317 118.667 67.2408 110.837 67.1027L110.767 46.3632C122.381 46.4945 133.298 49.5782 142.805 54.9035L132.477 72.874ZM109.029 67.105C101.082 67.268 93.6187 69.428 87.1136 73.1027L76.7208 55.1707C86.2637 49.7254 97.2532 46.5466 108.959 46.3677L109.029 67.105ZM85.9428 73.7865C84.0373 74.9366 82.2201 76.2204 80.5022 77.6242L67.1191 61.8069C69.7682 59.6175 72.5867 57.6273 75.55 55.8567L85.9428 73.7865ZM79.1235 78.797C71.5787 85.4604 66.1924 94.5192 64.1582 104.776L43.7862 101.078C46.693 86.0015 54.6152 72.6951 65.7426 62.9797L79.1235 78.797ZM63.2744 114.817C63.3964 121.22 64.8069 127.313 67.2593 132.844L48.56 141.761C44.8237 133.524 42.6968 124.408 42.5702 114.817H63.2721H63.2744ZM67.6345 133.669C69.0065 136.61 70.6745 139.388 72.6003 141.958L56.3669 154.818C53.4828 151.032 50.9875 146.932 48.9419 142.58L67.6322 133.666L67.6345 133.669ZM73.4321 143.033C74.8041 144.758 76.2936 146.384 77.8894 147.899L63.9886 163.254C61.5498 160.972 59.2805 158.511 57.201 155.891L73.4321 143.033ZM78.8884 148.816C85.0296 154.315 92.6264 158.216 101.019 159.858L97.4001 180.28C85.0929 177.942 73.9587 172.24 64.9877 164.171L78.8884 148.816ZM101.909 160.025C104.538 160.487 107.244 160.73 110.003 160.73C112.763 160.73 115.374 160.494 117.96 160.048L121.63 180.459C117.851 181.12 113.966 181.467 110.001 181.467C106.037 181.467 102.095 181.116 98.2884 180.446L101.907 160.025H101.909ZM118.848 159.885C127.021 158.309 134.444 154.598 140.508 149.352L153.887 165.165C145.097 172.727 134.349 178.064 122.519 180.296L118.848 159.885ZM141.853 148.141C144.213 145.936 146.347 143.493 148.211 140.844L154.009 144.593C154.122 144.668 154.251 144.702 154.375 144.702C154.597 144.702 154.816 144.593 154.945 144.392C155.148 144.077 155.058 143.656 154.743 143.452L148.975 139.723C149.852 138.396 150.666 137.024 151.407 135.609L169.808 145.107C166.09 152.232 161.142 158.615 155.245 163.97L141.855 148.141H141.853ZM152.022 134.398C154.917 128.463 156.595 121.827 156.728 114.82H177.43C177.292 125.248 174.785 135.111 170.423 143.896L152.022 134.395V134.398ZM156.728 113.008C156.71 112.026 156.66 111.05 156.581 110.081L177.179 107.993C177.324 109.648 177.407 111.321 177.43 113.008H156.728ZM110.001 21.2787C143.885 21.2787 173.572 39.6296 189.678 66.9306L169.98 78.2944C169.08 76.7797 168.122 75.2966 167.105 73.8453L182.47 63.265C182.78 63.0522 182.857 62.6288 182.644 62.3208C182.432 62.0107 182.009 61.9337 181.702 62.1465L166.312 72.745C164.203 69.8627 161.859 67.1186 159.289 64.5442C154.997 60.2446 150.239 56.5767 145.133 53.5835L154.418 37.4221C154.606 37.096 154.493 36.6817 154.169 36.4938C153.844 36.3058 153.43 36.419 153.243 36.7428L143.955 52.9043C133.908 47.2733 122.568 44.2258 110.761 44.1013L110.697 25.3044C110.697 24.8063 110.29 24.401 109.793 24.401H109.791C109.291 24.401 108.889 24.8085 108.889 25.3089L108.952 44.1035C97.0588 44.2779 85.6489 47.416 75.5658 53.1737L66.041 36.7383C65.8534 36.4145 65.4375 36.3036 65.1143 36.4915C64.791 36.6794 64.6803 37.096 64.8679 37.4198L74.395 53.8575C71.3413 55.6824 68.4143 57.7518 65.6386 60.0522L50.9423 42.6794C66.9722 29.3187 87.5679 21.2742 110.003 21.2742L110.001 21.2787ZM49.5612 43.8568L64.2599 61.2318C63.0461 62.2914 61.8639 63.394 60.7135 64.5442C50.7208 74.554 44.1388 87.0702 41.5463 100.675L19.1424 96.609C23.1024 75.7019 34.0964 57.2605 49.5612 43.8568ZM17.5308 114.82H40.3122C40.4365 124.61 42.5589 134.078 46.4873 142.752L25.9549 152.542C20.6636 141.036 17.6596 128.266 17.5308 114.82ZM26.3368 153.364L46.8647 143.576C48.9578 148.039 51.5367 152.284 54.5655 156.249L39.7923 167.952C39.4985 168.185 39.4487 168.613 39.6816 168.905C39.8149 169.075 40.0138 169.163 40.2127 169.163C40.3596 169.163 40.5088 169.116 40.6331 169.016L55.3996 157.318C57.0473 159.389 58.8171 161.382 60.7135 163.284C61.2831 163.854 61.8617 164.407 62.4471 164.954L49.3533 179.418C49.1024 179.696 49.1228 180.124 49.4008 180.378C49.5296 180.496 49.6946 180.554 49.8551 180.554C50.0404 180.554 50.2235 180.48 50.3569 180.333L63.4439 165.876C72.9981 174.486 84.5459 180.183 97 182.524L93.0197 204.982C63.4733 199.469 38.8226 179.837 26.3323 153.364H26.3368ZM93.9125 205.145L97.8906 182.689C101.851 183.38 105.897 183.733 109.999 183.733C114.101 183.733 118.095 183.385 122.03 182.703L126.067 205.148C120.848 206.067 115.478 206.549 109.999 206.549C104.52 206.549 99.1383 206.067 93.9102 205.145H93.9125ZM126.958 204.987L122.921 182.54C134.896 180.303 146.032 174.966 155.37 166.922L162.88 175.8C163.059 176.01 163.314 176.119 163.57 176.119C163.776 176.119 163.984 176.049 164.153 175.904C164.535 175.58 164.58 175.01 164.259 174.627L156.726 165.722C157.596 164.932 158.448 164.121 159.284 163.284C164.39 158.169 168.603 152.398 171.852 146.164L175.852 148.229C175.952 148.281 176.058 148.304 176.162 148.304C176.408 148.304 176.646 148.17 176.765 147.935C176.937 147.602 176.806 147.192 176.474 147.02L172.471 144.953C177.068 135.69 179.557 125.445 179.69 114.82H202.472C202.04 159.695 169.594 197.037 126.958 204.985V204.987Z" fill="url(#paint0_linear_2387_2933)"/>
<defs>
<linearGradient id="paint0_linear_2387_2933" x1="24.0201" y1="163.63" x2="196.127" y2="64.4341" gradientUnits="userSpaceOnUse">
<stop offset="0.12" stop-color="white" stop-opacity="0"/>
<stop offset="0.44" stop-color="white"/>
</linearGradient>
</defs>
</svg>
