<svg width="78" height="79" viewBox="0 0 78 79" fill="none" xmlns="http://www.w3.org/2000/svg">
<path d="M74.7514 24.2828C72.7969 19.6729 69.9996 15.5328 66.437 11.9773C62.8745 8.4217 58.7244 5.63052 54.1042 3.68127C49.3197 1.66237 44.2383 0.637939 39.0006 0.637939C33.7628 0.637939 28.6814 1.66149 23.8969 3.68127C19.2768 5.6314 15.1275 8.42259 11.5641 11.9773C8.0007 15.5319 5.20334 19.6729 3.24977 24.2828C1.22641 29.0567 0.199707 34.1269 0.199707 39.3531C0.199707 44.5793 1.22553 49.6495 3.24977 54.4234C5.20422 59.0334 8.00158 63.1734 11.5641 66.729C15.1266 70.2836 19.2768 73.0757 23.8969 75.0249C28.6814 77.0438 33.7628 78.0683 39.0006 78.0683C44.2383 78.0683 49.3197 77.0447 54.1042 75.0249C58.7244 73.0748 62.8745 70.2836 66.437 66.729C69.9996 63.1734 72.7978 59.0334 74.7514 54.4234C76.7747 49.6495 77.8014 44.5793 77.8014 39.3531C77.8014 34.1269 76.7756 29.0567 74.7514 24.2828ZM75.1481 39.0005H66.2426C66.2338 38.3154 66.2002 37.6348 66.141 36.9586L73.1247 36.2534C73.2705 36.2384 73.3765 36.1088 73.3615 35.9633C73.3465 35.8178 73.2166 35.7112 73.0708 35.727L66.0898 36.4323C65.6878 32.6511 64.5064 29.0409 62.6236 25.7886L70.3238 21.3638C73.3368 26.5671 75.0854 32.5858 75.1472 39.0005H75.1481ZM2.85305 39.0005C2.87249 37.0027 3.05539 35.0438 3.38849 33.136L12.1464 34.7185C11.9061 36.1211 11.7762 37.552 11.7585 39.0005H2.85305ZM13.0211 34.8763L20.9856 36.3159C20.838 37.1914 20.7523 38.088 20.7355 39.0005H12.6429C12.6615 37.5969 12.7905 36.2199 13.022 34.8763H13.0211ZM50.6513 51.738L47.8292 48.4152C48.3399 47.9197 48.809 47.382 49.2305 46.8071L52.8973 49.169C52.2355 50.0991 51.4818 50.9587 50.6513 51.738ZM25.6747 49.9263L29.0923 47.2294C29.4369 47.6597 29.8088 48.0679 30.2056 48.4496L27.2774 51.6719C26.704 51.1279 26.1686 50.5443 25.6747 49.9263ZM27.7298 26.6217L30.5475 29.9392C28.5665 31.7122 27.1458 34.096 26.5874 36.7911L22.2968 36.0153C23.0399 32.309 24.9943 29.0347 27.7289 26.6217H27.7298ZM47.2813 43.7356L48.2488 44.2328C47.7576 45.1559 47.132 45.9978 46.3978 46.7304L44.8966 44.9637C46.1954 43.5716 47.018 41.7317 47.1037 39.7049H49.4576C49.409 41.149 49.0653 42.5199 48.4847 43.7594L47.5234 43.2648C47.3935 43.1978 47.2336 43.249 47.1665 43.3786C47.0993 43.5082 47.1506 43.6677 47.2805 43.7347L47.2813 43.7356ZM29.4855 43.6986L34.4334 41.3482C35.0502 42.7491 36.296 43.8132 37.8122 44.1852L36.8535 49.5737C33.5728 48.8886 30.8523 46.6661 29.4855 43.6986ZM31.9753 31.6205L33.3325 33.218C32.0831 34.335 31.1713 35.8319 30.7878 37.5502L28.7636 37.1843C29.2275 35.0015 30.377 33.0681 31.9762 31.6205H31.9753ZM30.787 38.088C30.8029 38.0906 30.8188 38.0924 30.8347 38.0924C30.8894 38.0924 30.9407 38.0748 30.984 38.0448C31.075 38.0325 31.1527 37.9646 31.1704 37.8694C31.5018 36.1537 32.3862 34.6594 33.6179 33.5539L35.5202 35.794C34.6702 36.621 34.1153 37.7477 34.027 39.0005H28.5418C28.5568 38.5614 28.5984 38.1285 28.6664 37.7045L30.787 38.088ZM43.0632 42.8055C42.9695 42.6953 42.822 42.6565 42.6912 42.6962C43.4219 41.8939 43.892 40.8527 43.9733 39.7066H46.6628C46.578 41.5986 45.8146 43.3177 44.6103 44.6269L43.0641 42.8064L43.0632 42.8055ZM35.1624 39.354C35.1624 37.2425 36.8844 35.5243 39.0006 35.5243C41.1167 35.5243 42.8388 37.2425 42.8388 39.354C42.8388 41.4655 41.1167 43.1837 39.0006 43.1837C36.8844 43.1837 35.1624 41.4655 35.1624 39.354ZM43.9733 39.0013C43.9194 38.2335 43.6896 37.5141 43.3247 36.8811L45.6679 35.5348C46.252 36.5681 46.6063 37.7468 46.6628 39.0013H43.9733ZM43.1392 36.5813C42.2424 35.2536 40.7226 34.3782 39.0006 34.3782C37.9014 34.3782 36.8853 34.7352 36.0601 35.3382L34.1648 33.1078C35.4813 32.1256 37.1097 31.5508 38.8495 31.5508C41.646 31.5508 44.104 33.0231 45.4868 35.2316L43.1383 36.5813H43.1392ZM34.0279 39.7066C34.0606 40.1642 34.1542 40.605 34.3027 41.0211L29.3441 43.3768C28.867 42.2404 28.586 41.0035 28.5427 39.7066H34.0279ZM38.1585 44.2575C38.4324 44.3042 38.7134 44.3298 39.0006 44.3298C40.3401 44.3298 41.5567 43.7991 42.4535 42.9386C42.4235 43.0471 42.4456 43.1687 42.5242 43.2622L44.1076 45.1268C43.0985 46.0419 41.8501 46.6987 40.4682 46.9896C40.454 46.9888 40.4399 46.9896 40.4258 46.9914C40.409 46.994 40.3931 47.0002 40.378 47.0082C39.8841 47.106 39.3726 47.158 38.8504 47.158C38.7284 47.158 38.6295 47.2568 38.6295 47.3784C38.6295 47.5001 38.7284 47.5988 38.8504 47.5988C39.3558 47.5988 39.8506 47.553 40.3321 47.4657L40.7271 49.653C40.1651 49.7464 39.589 49.7958 39.0006 49.7958C38.4121 49.7958 37.7857 49.742 37.2007 49.6407L38.1585 44.2575ZM40.6776 47.3952C42.086 47.0769 43.3583 46.399 44.393 45.4627L45.8809 47.2145C44.5361 48.3879 42.8891 49.2237 41.0734 49.5895L40.6767 47.3943L40.6776 47.3952ZM47.1046 39.0022C47.0481 37.6675 46.6717 36.4138 46.0505 35.3153L48.0721 34.1534C48.9027 35.5904 49.4001 37.2416 49.4585 39.0022H47.1046ZM45.8703 35.012C44.4106 32.6714 41.8103 31.11 38.8504 31.11C37.0028 31.11 35.2737 31.7236 33.8794 32.771L32.5152 31.1656C34.2991 29.7559 36.5531 28.913 39.0006 28.913C42.7478 28.913 46.0417 30.8887 47.8901 33.8518L45.8703 35.012ZM49.3029 31.9987L52.8946 29.5346C53.1358 29.874 53.3656 30.2222 53.582 30.5793L49.8039 32.7507C49.6458 32.4942 49.4788 32.2429 49.3029 31.9987ZM48.9849 31.5746C48.0138 30.3368 46.8166 29.2833 45.4559 28.4766L47.6304 24.7077C49.5539 25.8406 51.2362 27.3394 52.5801 29.1088L48.9849 31.5755V31.5746ZM44.9947 28.2157C43.3044 27.3067 41.3853 26.769 39.3469 26.7134L39.3319 22.3627C42.1664 22.4173 44.8339 23.1658 47.17 24.445L44.9947 28.2148V28.2157ZM38.6401 26.7143C36.5496 26.7725 34.5845 27.3394 32.8633 28.2933L30.6747 24.5323C33.0356 23.2072 35.7429 22.4261 38.6251 22.3644L38.6401 26.7152V26.7143ZM32.4056 28.5595C31.9462 28.8399 31.5053 29.1493 31.0865 29.4843L28.2688 26.1668C28.8846 25.6669 29.5349 25.2094 30.2171 24.7977L32.4056 28.5586V28.5595ZM26.4919 37.3131C26.4018 37.8649 26.347 38.4292 26.3311 39.0022H21.9707C21.9875 38.1647 22.0662 37.3421 22.2014 36.5381L26.4911 37.3131H26.4919ZM26.3311 39.7075C26.3762 41.3429 26.734 42.9007 27.3472 44.3254L23.4101 46.1962C22.5283 44.2037 22.0193 42.0112 21.9716 39.7075H26.332H26.3311ZM27.4913 44.6472C27.8464 45.4124 28.2759 46.1371 28.7707 46.8107L25.3504 49.5093C24.6541 48.5801 24.0524 47.5777 23.5559 46.5162L27.4913 44.6472ZM30.5952 48.8102C32.2316 50.2595 34.2443 51.2946 36.4674 51.7459L35.7058 56.0288C32.6583 55.4302 29.9007 54.0187 27.6689 52.0307L30.5961 48.8102H30.5952ZM36.8146 51.8112C37.525 51.9346 38.2548 51.9998 39.0006 51.9998C39.7463 51.9998 40.4293 51.9381 41.1185 51.8226L41.8916 56.1038C40.9515 56.2651 39.9857 56.3497 39.0006 56.3497C38.0154 56.3497 37.0108 56.2616 36.053 56.0941L36.8146 51.8112ZM41.4657 51.7592C43.672 51.3237 45.6741 50.3151 47.3087 48.8957L50.1264 52.2123C47.9175 54.1175 45.2147 55.4664 42.2388 56.0403L41.4657 51.7592ZM49.5353 46.376C49.7801 46.0119 50.0062 45.6337 50.2121 45.244L54.0866 47.2365C53.8153 47.7522 53.5175 48.2521 53.1968 48.7344L49.5353 46.376ZM50.4507 44.7715C51.1867 43.2287 51.6187 41.5148 51.6691 39.7066H56.0295C55.9774 42.2316 55.3713 44.6234 54.3278 46.7648L50.4516 44.7715H50.4507ZM51.6691 39.0013C51.6638 38.8074 51.6541 38.6152 51.64 38.4239L55.9783 37.9857C56.0048 38.3216 56.0224 38.6602 56.0295 39.0013H51.6691ZM51.5896 37.8976C51.3881 36.1502 50.8289 34.5104 49.9859 33.0531L53.7623 30.8826C54.9065 32.8591 55.662 35.087 55.927 37.4594L51.5896 37.8976ZM54.834 30.2663L61.8451 26.2373C63.6335 29.3265 64.8095 32.8098 65.2097 36.5222L57.1578 37.3351C56.8751 34.7846 56.064 32.391 54.834 30.2663ZM54.6538 29.963C54.4205 29.5778 54.174 29.2013 53.9134 28.8346L60.5799 24.2617C60.9625 24.8038 61.3238 25.3619 61.6649 25.9332L54.6538 29.9622V29.963ZM53.6006 28.4079C52.1515 26.4886 50.3314 24.8629 48.2471 23.6375L52.2832 16.641C55.4128 18.4703 58.1333 20.9256 60.2697 23.8323L53.5997 28.4079H53.6006ZM47.7867 23.3756C45.2677 21.9906 42.3882 21.1822 39.3275 21.1284L39.3001 13.0528C43.8399 13.104 48.1075 14.3047 51.8237 16.3783L47.7867 23.3756ZM38.6206 21.1293C35.514 21.1928 32.5965 22.0338 30.0536 23.4647L25.991 16.4823C29.7214 14.362 34.0173 13.1242 38.5932 13.0546L38.6206 21.1293ZM29.5959 23.7309C28.8511 24.1788 28.1407 24.6787 27.4692 25.2253L22.2376 19.0663C23.2731 18.2138 24.3749 17.4388 25.5333 16.7494L29.5959 23.7309ZM26.9302 25.6819C23.9809 28.2765 21.8753 31.8039 21.0801 35.7976L13.1165 34.3579C14.2528 28.4872 17.3497 23.306 21.6995 19.523L26.9302 25.6819ZM20.7346 39.7075C20.7824 42.2007 21.3337 44.5731 22.2924 46.7269L14.9826 50.1987C13.5221 46.9914 12.6907 43.442 12.6412 39.7075H20.7338H20.7346ZM22.439 47.0478C22.9754 48.193 23.6274 49.2748 24.3802 50.2754L18.0345 55.283C16.907 53.8089 15.9316 52.2123 15.132 50.5179L22.4382 47.0469L22.439 47.0478ZM24.7054 50.6942C25.2417 51.366 25.824 51.999 26.4478 52.5888L21.0138 58.5679C20.0605 57.6792 19.1734 56.7209 18.3605 55.7009L24.7054 50.6942ZM26.8383 52.9458C29.2389 55.0873 32.2086 56.6063 35.4893 57.2454L34.0747 65.1976C29.2637 64.2869 24.9112 62.067 21.4044 58.9249L26.8383 52.9458ZM35.8374 57.3107C36.865 57.4905 37.9226 57.5849 39.0015 57.5849C40.0803 57.5849 41.1008 57.4932 42.1116 57.3195L43.5465 65.2673C42.0692 65.5247 40.5503 65.6596 39.0006 65.6596C37.4508 65.6596 35.9099 65.5229 34.4219 65.262L35.8365 57.3107H35.8374ZM42.4588 57.256C45.6538 56.6424 48.5554 55.1975 50.926 53.1548L56.1559 59.312C52.7197 62.2565 48.5183 64.3345 43.8938 65.2038L42.4588 57.256ZM51.4518 52.6831C52.3742 51.8244 53.2083 50.8731 53.9372 49.8417L56.2036 51.3016C56.2477 51.3307 56.2981 51.3439 56.3467 51.3439C56.4333 51.3439 56.519 51.3016 56.5694 51.2231C56.6489 51.1006 56.6135 50.9366 56.4907 50.8573L54.2359 49.4053C54.5787 48.8886 54.8968 48.3544 55.1866 47.8034L62.3797 51.5017C60.9262 54.2762 58.9921 56.7614 56.6869 58.8465L51.4526 52.6831H51.4518ZM55.4269 47.3317C56.5588 45.021 57.2144 42.437 57.2665 39.7084H65.3591C65.3052 43.7691 64.3253 47.6094 62.62 51.0301L55.4269 47.3308V47.3317ZM57.2665 39.0031C57.2594 38.6205 57.24 38.2405 57.2091 37.8632L65.261 37.0503C65.3175 37.6948 65.3502 38.3463 65.3591 39.0031H57.2665ZM39.0006 3.28542C52.2461 3.28542 63.8508 10.4309 70.1471 21.0614L62.4469 25.4862C62.0952 24.8964 61.7205 24.319 61.3229 23.7538L67.3294 19.6341C67.4505 19.5512 67.4805 19.3863 67.3974 19.2664C67.3144 19.1456 67.1492 19.1157 67.029 19.1985L61.0128 23.3254C60.1884 22.2031 59.2722 21.1346 58.2676 20.1322C56.5897 18.458 54.7298 17.0298 52.7338 15.8643L56.3635 9.57133C56.4368 9.44438 56.3927 9.28304 56.2663 9.20987C56.1391 9.13669 55.9774 9.18077 55.9041 9.30684L52.2735 15.5998C48.346 13.4072 43.9132 12.2206 39.2974 12.1721L39.2727 4.85293C39.2727 4.65898 39.1137 4.50117 38.9193 4.50117H38.9184C38.7231 4.50117 38.5659 4.65986 38.5659 4.8547L38.5906 12.173C33.9413 12.2409 29.481 13.4628 25.5395 15.7047L21.8161 9.30508C21.7428 9.17901 21.5802 9.13581 21.4539 9.20898C21.3275 9.28216 21.2842 9.44438 21.3575 9.57045L25.0818 15.971C23.8881 16.6815 22.7439 17.4873 21.6588 18.3831L15.9139 11.6184C22.1801 6.41603 30.2312 3.28366 39.0015 3.28366L39.0006 3.28542ZM15.374 12.0769L21.1199 18.8424C20.6454 19.255 20.1833 19.6843 19.7336 20.1322C15.8273 24.0298 13.2544 28.9033 12.2409 34.201L3.48304 32.6176C5.03104 24.4768 9.3287 17.296 15.374 12.0769ZM2.85305 39.7084H11.7585C11.8071 43.5205 12.6368 47.2074 14.1724 50.5849L6.1461 54.397C4.07768 49.9166 2.90342 44.9443 2.85305 39.7084ZM6.29542 54.717L14.32 50.9058C15.1381 52.6434 16.1463 54.2965 17.3303 55.8402L11.5553 60.3972C11.4404 60.488 11.421 60.6546 11.512 60.7684C11.5641 60.8345 11.6419 60.8689 11.7196 60.8689C11.7771 60.8689 11.8354 60.8504 11.884 60.8116L17.6563 56.2563C18.3004 57.063 18.9922 57.8388 19.7336 58.5793C19.9562 58.8015 20.1824 59.0166 20.4113 59.23L15.2928 64.8617C15.1947 64.9701 15.2026 65.1368 15.3113 65.2355C15.3617 65.2814 15.4262 65.3043 15.4889 65.3043C15.5614 65.3043 15.6329 65.2752 15.6851 65.2179L20.8009 59.5888C24.5357 62.9416 29.0499 65.1597 33.9183 66.0713L32.3623 74.816C20.8124 72.6693 11.1762 65.0248 6.29365 54.717H6.29542ZM32.7113 74.8795L34.2664 66.1356C35.8144 66.4045 37.396 66.5421 38.9997 66.5421C40.6034 66.5421 42.1646 66.4063 43.7029 66.1409L45.2809 74.8804C43.2408 75.2383 41.1414 75.4261 38.9997 75.4261C36.8579 75.4261 34.7542 75.2383 32.7105 74.8795H32.7113ZM45.6291 74.8178L44.051 66.0774C48.7322 65.2064 53.0855 63.1285 56.7355 59.9961L59.6716 63.4529C59.7414 63.5349 59.8412 63.5772 59.9411 63.5772C60.0215 63.5772 60.1028 63.5499 60.169 63.4934C60.3183 63.3674 60.336 63.1452 60.2105 62.9962L57.2656 59.5288C57.6058 59.2211 57.9389 58.9055 58.2658 58.5793C60.2618 56.5878 61.9087 54.3405 63.1784 51.9135L64.7424 52.7175C64.7812 52.7378 64.8227 52.7466 64.8634 52.7466C64.9597 52.7466 65.0525 52.6946 65.0993 52.6029C65.1664 52.4733 65.1152 52.3137 64.9853 52.2467L63.4205 51.4418C65.2177 47.8351 66.1905 43.8458 66.2426 39.7084H75.1481C74.9793 57.182 62.2958 71.7224 45.6291 74.8169V74.8178Z" fill="url(#paint0_linear_1760_3915)"/>
<defs>
<linearGradient id="paint0_linear_1760_3915" x1="5.38977" y1="58.7142" x2="72.5361" y2="19.8617" gradientUnits="userSpaceOnUse">
<stop offset="0.12" stop-color="white" stop-opacity="0"/>
<stop offset="0.44" stop-color="white"/>
</linearGradient>
</defs>
</svg>
