<svg width="110" height="47" viewBox="0 0 110 47" fill="none" xmlns="http://www.w3.org/2000/svg">
<g clip-path="url(#clip0_1749_825)">
<mask id="mask0_1749_825" style="mask-type:luminance" maskUnits="userSpaceOnUse" x="0" y="-1" width="111" height="48">
<path d="M110.03 -0.0576172H0.0297852V46.9424H110.03V-0.0576172Z" fill="white"/>
</mask>
<g mask="url(#mask0_1749_825)">
<path fill-rule="evenodd" clip-rule="evenodd" d="M34.8438 3.70898C35.2438 3.70898 35.4437 4.20898 35.4437 5.30898V22.909L41.4438 5.20898C41.7438 4.20898 42.0437 3.70898 42.3438 3.70898H44.9438C45.1438 3.70898 45.3438 3.90898 45.3438 4.20898C45.3438 4.50898 45.2438 4.80898 45.1438 5.20898L39.0437 22.609C38.9437 23.109 38.9437 23.309 38.9437 23.409C38.9437 23.609 38.9437 23.809 39.0437 24.009L45.5437 41.209C45.7437 41.609 45.7437 41.909 45.8438 42.309C45.8438 42.609 45.7437 42.809 45.5437 42.809H43.0437C42.8438 42.809 42.6438 42.709 42.5437 42.509C42.3438 42.109 42.1438 41.809 42.0437 41.309L35.3438 24.009V41.309C35.3438 42.309 35.1438 42.809 34.7438 42.809H32.3438C31.9437 42.809 31.8438 42.309 31.8438 41.209V5.30898C31.8438 4.20898 32.0437 3.70898 32.3438 3.70898H34.8438ZM55.1437 3.70898C55.6437 3.70898 56.1438 3.70898 56.5438 3.70898C56.9438 3.70898 57.4438 3.80898 57.8438 3.90898C58.2437 4.00898 58.7437 4.10898 59.1437 4.30898C59.5437 4.50898 59.9438 4.70898 60.2437 5.00898C60.6437 5.30898 61.0437 5.70898 61.2437 6.10898C61.5437 6.60898 61.8438 7.10898 62.0438 7.70898C62.3438 8.40898 62.5437 9.10898 62.7437 9.90898C62.9438 10.809 63.0437 11.809 63.1437 12.709C63.2437 13.809 63.3438 15.009 63.3438 16.209C63.3438 17.609 63.2437 19.009 63.1437 20.409C63.0437 21.609 62.8438 22.709 62.5438 23.709C62.3438 24.509 62.0437 25.209 61.6437 25.909C61.3438 26.409 60.9438 26.909 60.4438 27.409C60.0438 27.809 59.5438 28.109 59.0438 28.209C58.5438 28.409 58.0438 28.509 57.5438 28.609C56.9438 28.709 56.4438 28.709 55.8438 28.709H52.4438C52.3438 28.709 52.2437 28.909 52.2437 29.209V41.509C52.2437 42.409 52.0437 42.809 51.6437 42.809H49.1437C48.7437 42.809 48.6437 42.409 48.6437 41.509V5.00898C48.6437 4.70898 48.6437 4.30898 48.7437 4.00898C48.9438 3.80898 49.1437 3.70898 49.2437 3.70898H55.1437ZM71.3438 3.70898C71.8438 3.70898 72.1438 4.20898 72.2438 5.10898L76.4437 32.609C76.4437 32.709 76.5438 32.709 76.5438 32.709C76.5438 32.709 76.6437 32.709 76.6437 32.609L80.8438 5.20898C81.0438 4.20898 81.3438 3.70898 81.7438 3.70898H84.5438C84.8438 3.70898 85.0438 4.20898 85.0438 5.30898L86.0438 41.209V41.409C86.0438 42.309 85.8438 42.809 85.5438 42.809H83.7438C83.3438 42.809 83.2437 42.309 83.1437 41.209L82.4437 11.409C82.4437 11.309 82.3438 11.309 82.3438 11.309L77.9437 41.309C77.8438 42.309 77.5438 42.709 77.1437 42.709H76.5438H75.9437C75.5437 42.709 75.3438 42.209 75.1437 41.209L70.8438 11.609C70.8438 11.509 70.8438 11.509 70.7438 11.609V11.709L70.0438 41.209C70.0438 42.309 69.8438 42.809 69.5438 42.809H67.6437C67.3438 42.809 67.1437 42.309 67.1437 41.409V41.209L68.1437 5.30898C68.1437 4.20898 68.3438 3.70898 68.6437 3.70898L71.3438 3.70898ZM97.3438 3.70898C97.8438 3.70898 98.3438 3.70898 98.7438 3.70898C99.1438 3.70898 99.6437 3.80898 100.044 3.90898C100.444 4.00898 100.944 4.10898 101.344 4.30898C101.744 4.50898 102.144 4.70898 102.444 5.00898C102.844 5.30898 103.244 5.70898 103.444 6.10898C103.744 6.60898 104.044 7.10898 104.244 7.70898C104.544 8.40898 104.744 9.10898 104.944 9.90898C105.144 10.809 105.244 11.809 105.344 12.709C105.444 13.809 105.544 15.009 105.544 16.209C105.544 17.609 105.444 19.009 105.344 20.409C105.244 21.509 105.044 22.509 104.744 23.609C104.544 24.409 104.244 25.109 103.844 25.809C103.544 26.309 103.144 26.809 102.644 27.309C102.244 27.709 101.744 28.009 101.244 28.109C100.744 28.309 100.244 28.409 99.7438 28.509C99.1438 28.709 98.5437 28.709 98.0437 28.709H94.6437C94.5438 28.709 94.4437 28.909 94.4437 29.209V41.509C94.4437 42.409 94.2438 42.809 93.8438 42.809H91.3438C90.9437 42.809 90.8438 42.409 90.8438 41.509V5.00898C90.8438 4.70898 90.8438 4.30898 90.9437 4.00898C91.1437 3.80898 91.2437 3.70898 91.4437 3.70898H97.3438ZM55.0438 7.20898H52.5438C52.4438 7.20898 52.3438 7.40898 52.3438 7.70898V24.809C52.3438 25.109 52.4438 25.209 52.5438 25.209H55.5438C56.1438 25.209 56.6437 25.209 57.2437 25.009C57.6437 24.909 58.1438 24.609 58.4438 24.309C58.8438 23.909 59.1437 23.409 59.2437 22.809C59.4438 22.009 59.6437 21.109 59.7437 20.209C59.8438 18.909 59.9438 17.609 59.9438 16.309C59.9438 14.909 59.8438 13.409 59.6437 12.009C59.5437 11.109 59.3438 10.209 59.0438 9.30898C58.8438 8.70898 58.4438 8.20898 57.9438 7.90898C57.5438 7.60898 57.1437 7.40898 56.6437 7.30898C56.0437 7.20898 55.5438 7.20898 55.0438 7.20898ZM97.1438 7.20898H94.6437C94.5438 7.20898 94.4437 7.40898 94.4437 7.70898V24.809C94.4437 25.109 94.5438 25.209 94.6437 25.209H97.6438C98.2438 25.209 98.7438 25.209 99.3438 25.009C99.7438 24.909 100.244 24.609 100.544 24.309C100.944 23.909 101.244 23.409 101.344 22.809C101.544 22.009 101.744 21.109 101.844 20.209C101.944 18.909 102.044 17.609 102.044 16.309C102.044 14.909 101.944 13.409 101.744 12.009C101.644 11.109 101.444 10.209 101.144 9.30898C100.944 8.70898 100.544 8.20898 100.044 7.90898C99.6437 7.60898 99.2438 7.40898 98.7438 7.30898C98.2438 7.20898 97.7438 7.20898 97.1438 7.20898Z" fill="white"/>
<path d="M2.81055 24.9754C2.81055 20.5754 3.91055 12.7754 8.31055 7.87542C10.1105 5.87542 15.5105 1.77542 20.8105 4.47542C29.3105 8.77542 26.9105 16.1754 23.3105 20.0754C21.2105 22.3754 19.9105 25.2754 22.1105 28.4754C24.3105 31.6754 27.3105 37.5754 20.9105 41.1754C15.7105 44.0754 10.6105 41.8754 8.81055 39.8754C5.11055 35.7754 2.91055 30.4754 2.81055 24.9754Z" stroke="white" stroke-width="2"/>
<path d="M21.0105 25.3752C19.7105 25.1752 16.5105 24.9752 11.9105 24.1752C8.81055 23.5752 5.81055 22.7752 2.81055 21.8752M21.8105 28.0752C20.8105 28.8752 19.5105 29.4752 18.3105 29.8752C12.2105 32.0752 6.21055 31.1752 3.51055 29.8752M4.91055 13.4752C8.11055 13.4752 11.3105 14.2752 14.3105 15.6752C18.6105 17.7752 20.8105 19.9752 21.8105 22.0752M10.6105 5.9752C13.8105 6.4752 16.8105 7.8752 19.3105 10.0752C22.6105 13.1752 24.3105 15.5752 24.9105 18.0752M24.0105 32.1752C23.1105 33.5752 21.8105 34.7752 20.3105 35.5752C15.0105 38.4752 9.61055 38.1752 6.51055 36.8752M22.3105 40.1752C17.8105 35.0752 16.9105 29.4752 17.1105 24.1752C17.3105 18.7752 21.4105 13.2752 25.5105 8.4752M17.8105 42.3752C13.4105 36.2752 11.6105 29.8752 11.6105 24.5752C11.7105 19.6752 15.3105 11.4752 21.8105 5.1752M17.6105 3.5752C9.51055 9.4752 6.01055 17.8752 6.01055 24.9752C6.01055 30.0752 8.51055 36.1752 12.9105 42.2752" stroke="white" stroke-width="2"/>
</g>
</g>
<defs>
<clipPath id="clip0_1749_825">
<rect width="110" height="47" fill="white"/>
</clipPath>
</defs>
</svg>
