<svg width="96" height="96" viewBox="0 0 96 96" fill="none" xmlns="http://www.w3.org/2000/svg">
<rect width="96" height="96" rx="48" fill="#4B4B5E"/>
<g clip-path="url(#clip0_1798_519)">
<path fill-rule="evenodd" clip-rule="evenodd" d="M63.4866 56.3642L60.2182 32.4735C60.1266 31.8162 59.2789 31.4082 58.332 31.5593L54.1626 32.2317C53.2538 32.3753 52.5971 32.9948 52.6811 33.6295L55.9571 57.573L63.4789 56.3566L63.4866 56.3642ZM40.7684 57.2859V32.7304C40.7684 32.0806 40.2338 31.5593 39.5847 31.5593H34.0025C33.3458 31.5593 32.8189 32.0882 32.8189 32.7304V57.2859H40.7684ZM67.8622 64.9322H27.7636C27.3436 64.9322 27 64.5922 27 64.1766C27 63.761 27.3436 63.421 27.7636 63.421H67.8622C68.2822 63.421 68.6258 63.761 68.6258 64.1766C68.6258 64.5922 68.2822 64.9322 67.8622 64.9322ZM32.8189 59.7264V58.6384H40.7684V59.7264C40.7684 60.3686 40.2415 60.8975 39.5847 60.8975H34.0025C33.3535 60.8975 32.8189 60.3762 32.8189 59.7264ZM50.6651 36.2513V32.7304C50.6651 32.0806 50.1306 31.5593 49.4815 31.5593H43.8993C43.2426 31.5593 42.7156 32.0882 42.7156 32.7304V36.2513H50.6651ZM42.7156 59.7264V37.6113H50.6651V59.7264C50.6651 60.3686 50.1382 60.8975 49.4815 60.8975H43.8993C43.2502 60.8975 42.7156 60.3762 42.7156 59.7264ZM56.3313 60.3459L56.1251 58.8122L63.6469 57.5957L63.8684 59.1899C63.9524 59.8246 63.2956 60.4442 62.3869 60.5877L58.2175 61.2602C57.2706 61.4113 56.4229 61.0033 56.3313 60.3459Z" fill="white"/>
</g>
<defs>
<clipPath id="clip0_1798_519">
<rect width="42" height="34" fill="white" transform="translate(27 31)"/>
</clipPath>
</defs>
</svg>
