<svg width="88" height="53" viewBox="0 0 88 53" fill="none" xmlns="http://www.w3.org/2000/svg">
<path d="M35.8002 46.3002C29.3002 46.3002 22.8002 46.3002 16.3002 46.3002C13.7002 46.3002 12.2002 44.9002 12.2002 42.3002C12.2002 31.8002 12.2002 21.2002 12.2002 10.7002C12.2002 8.2002 13.7002 6.7002 16.2002 6.7002C29.3002 6.7002 42.4002 6.7002 55.5002 6.7002C56.2002 6.7002 56.6002 6.9002 57.0002 7.5002C60.3002 13.6002 63.7002 19.6002 67.1002 25.7002C67.4002 26.3002 67.4002 26.7002 67.1002 27.3002C63.7002 33.4002 60.3002 39.5002 56.9002 45.6002C56.6002 46.2002 56.3002 46.4002 55.6002 46.4002C49.1002 46.3002 42.5002 46.3002 35.8002 46.3002ZM21.6002 22.9002C21.7002 22.9002 21.7002 22.8002 21.8002 22.8002C22.0002 23.1002 22.1002 23.3002 22.3002 23.6002C24.4002 26.9002 26.5002 30.2002 28.4002 33.5002C29.3002 35.0002 30.2002 35.7002 32.0002 35.5002C32.9002 35.4002 33.2002 35.2002 33.2002 34.3002C33.2002 29.4002 33.2002 24.4002 33.2002 19.5002C33.2002 17.2002 33.5002 17.6002 31.2002 17.5002C30.3002 17.5002 30.0002 17.8002 30.0002 18.7002C30.0002 22.2002 30.0002 25.7002 30.0002 29.2002C30.0002 29.5002 30.0002 29.8002 30.0002 30.2002C29.6002 29.9002 29.4002 29.7002 29.2002 29.4002C27.0002 26.0002 25.0002 22.7002 23.0002 19.5002C21.8002 17.5002 21.8002 17.6002 19.5002 17.6002C18.7002 17.6002 18.5002 17.9002 18.5002 18.6002C18.5002 23.9002 18.5002 29.2002 18.5002 34.5002C18.5002 34.8002 18.5002 35.1002 18.6002 35.5002C19.0002 35.5002 19.3002 35.5002 19.7002 35.5002C21.7002 35.5002 21.7002 35.5002 21.7002 33.6002C21.6002 30.0002 21.6002 26.5002 21.6002 22.9002ZM42.3002 35.5002C43.1002 35.5002 43.8002 35.5002 44.5002 35.5002C45.3002 35.6002 45.5002 35.3002 45.5002 34.5002C45.5002 32.5002 45.5002 30.4002 45.5002 28.4002C45.5002 27.7002 45.7002 27.5002 46.4002 27.5002C48.5002 27.5002 50.6002 27.5002 52.6002 27.5002C53.2002 27.5002 53.4002 27.7002 53.4002 28.3002C53.4002 29.9002 53.4002 31.6002 53.4002 33.2002C53.4002 35.5002 53.4002 35.5002 55.7002 35.5002C56.6002 35.5002 56.8002 35.2002 56.7002 34.4002C56.7002 29.4002 56.7002 24.4002 56.7002 19.4002C56.7002 17.3002 57.1002 17.5002 54.8002 17.5002C53.4002 17.5002 53.4002 17.5002 53.4002 18.9002C53.4002 20.8002 53.4002 22.6002 53.4002 24.6002C51.0002 24.6002 48.8002 24.6002 46.5002 24.6002C45.7002 24.6002 45.4002 24.4002 45.5002 23.6002C45.6002 21.8002 45.5002 20.1002 45.5002 18.3002C45.5002 18.0002 45.2002 17.5002 45.0002 17.5002C44.1002 17.4002 43.3002 17.5002 42.3002 17.5002C42.3002 23.6002 42.3002 29.5002 42.3002 35.5002ZM39.3002 26.5002C39.3002 24.2002 39.3002 22.0002 39.3002 19.7002C39.3002 17.2002 39.6002 17.6002 37.2002 17.5002C36.0002 17.5002 36.0002 17.5002 36.0002 18.8002C36.0002 23.6002 36.0002 28.3002 36.0002 33.1002C36.0002 35.5002 36.0002 35.5002 38.4002 35.5002C39.2002 35.5002 39.4002 35.2002 39.4002 34.5002C39.3002 31.8002 39.3002 29.2002 39.3002 26.5002Z" fill="white"/>
<path d="M59.5 46.3C60.6 44.4 61.6 42.6 62.5 40.8C65 36.2 67.6 31.7 70.1 27.2C70.4 26.6 70.3 26.2 70 25.7C66.7 19.8 63.4 13.8 60.1 7.80001C59.9 7.50001 59.8 7.10001 59.6 6.80001C62.7 6.20001 65.1 7.10001 66.5 9.70001C69.4 15.1 72.4 20.4 75.4 25.7C75.7 26.2 75.7 26.6 75.4 27.1C72.3 32.6 69.2 38.2 66.1 43.7C65.2 45.4 63.6 46.2 61.8 46.2C61.2 46.3 60.4 46.3 59.5 46.3Z" fill="white"/>
</svg>
