<svg width="215" height="73" viewBox="0 0 215 73" fill="none" xmlns="http://www.w3.org/2000/svg">
<g clip-path="url(#clip0_1749_822)">
<path d="M95.8511 31.061C95.8302 30.739 95.7338 30.4264 95.5698 30.1485C95.4058 29.8706 95.1789 29.6351 94.9071 29.461C94.3943 29.0535 93.7561 28.8361 93.1011 28.846C91.9521 28.846 90.6391 29.093 90.6391 30.488C90.6391 31.103 91.1311 31.388 91.5831 31.596C92.9371 32.17 96.0151 32.335 98.7241 33.238C101.433 34.1 103.813 35.7 103.813 39.189C103.813 45.099 98.1491 46.699 92.9781 46.699C87.9711 46.699 82.4721 44.688 82.3491 39.189H90.1061C90.1286 39.5552 90.2279 39.9126 90.3976 40.2379C90.5673 40.5632 90.8036 40.8491 91.0911 41.077C91.7232 41.5274 92.4918 41.7448 93.2661 41.692C94.3331 41.692 96.0151 41.282 96.0151 40.05C96.0151 38.818 95.3151 38.45 91.5421 37.793C85.3421 36.726 82.8421 34.756 82.8421 31.103C82.8421 25.727 88.6281 24.332 92.8971 24.332C97.4971 24.332 103.034 25.604 103.239 31.062H95.8521L95.8511 31.061Z" fill="white"/>
<path d="M125.477 41.4031C125.341 43.0518 125.683 44.7047 126.462 46.1641H118.172C117.956 45.5164 117.859 44.8352 117.885 44.1531H117.803C116.08 46.1231 113.576 46.6971 110.95 46.6971C106.85 46.6971 103.44 44.7281 103.44 40.2541C103.44 33.5231 111.32 33.7701 115.464 32.9901C116.572 32.7901 117.68 32.4571 117.68 31.1021C117.68 29.6661 116.326 29.1321 115.012 29.1321C112.512 29.1321 112.012 30.4041 111.975 31.3071H104.424C104.67 25.3151 110.334 24.3301 115.382 24.3301C125.56 24.3301 125.482 28.5571 125.482 32.6611V41.4031H125.477ZM117.677 36.6031C116.656 37.0732 115.581 37.4177 114.477 37.6291C112.672 38.0391 111.727 38.4911 111.727 39.9291C111.819 40.5205 112.133 41.0543 112.607 41.4207C113.08 41.7871 113.675 41.9583 114.271 41.8991C114.718 41.9244 115.165 41.8565 115.584 41.6995C116.004 41.5425 116.386 41.3 116.706 40.9873C117.026 40.6746 117.278 40.2987 117.445 39.8834C117.613 39.4681 117.691 39.0225 117.677 38.5751V36.6051V36.6031Z" fill="white"/>
<path d="M127.317 24.8641H135.156V27.5731H135.238C136.756 25.4391 138.931 24.3311 142.174 24.3311C145.991 24.3311 149.474 26.6701 149.474 31.5541V46.1641H141.348V35.0011C141.348 32.5391 141.061 30.8151 138.68 30.8151C137.28 30.8151 135.438 31.5151 135.438 34.9151V46.16H127.312V24.8601L127.317 24.8641Z" fill="white"/>
<path d="M173.19 43.4131C173.19 47.6401 172.082 53.5911 162.109 53.5911C157.061 53.5911 151.726 52.2361 150.987 46.4911H159.031C159.161 46.7497 159.312 46.9969 159.483 47.2301C159.729 47.6592 160.072 48.0242 160.486 48.2951C160.9 48.5661 161.371 48.7353 161.863 48.7891C164.49 48.7891 165.063 45.6711 165.063 43.9061V41.9361H164.981C164.354 42.8664 163.504 43.6245 162.508 44.1408C161.512 44.6571 160.402 44.9151 159.281 44.8911C153.002 44.8911 150.17 40.2131 150.17 34.5081C150.17 28.9681 153.33 24.3301 159.404 24.3301C161.784 24.3301 164.041 25.2741 164.985 27.4491H165.067V24.8631H173.193L173.19 43.4131ZM161.945 39.6781C164.945 39.6781 165.269 36.8061 165.269 34.4251C165.269 32.0861 164.12 30.2391 161.74 30.2391C159.44 30.2391 158.293 32.2091 158.293 34.4661C158.293 36.8881 159.031 39.6781 161.945 39.6781Z" fill="white"/>
<path d="M181.69 37.3407C181.895 39.7617 183.29 41.4857 185.835 41.4857C186.483 41.5224 187.13 41.4038 187.722 41.1397C188.315 40.8757 188.836 40.4738 189.241 39.9677H196.833C195.191 44.5677 190.718 46.6987 185.876 46.6987C179.063 46.6987 173.933 42.6767 173.933 35.5767C173.89 34.0883 174.152 32.6068 174.702 31.2231C175.252 29.8394 176.078 28.5825 177.131 27.5296C178.184 26.4768 179.441 25.65 180.825 25.1001C182.208 24.5502 183.69 24.2887 185.178 24.3317C193.632 24.3317 197.285 29.0517 197.285 37.3407H181.69ZM189.49 33.1137C189.5 32.6423 189.414 32.1738 189.238 31.7363C189.062 31.2989 188.799 30.9015 188.466 30.5681C188.132 30.2347 187.735 29.9721 187.298 29.796C186.86 29.62 186.392 29.5342 185.92 29.5437C185.41 29.4982 184.896 29.5549 184.408 29.7105C183.92 29.8661 183.468 30.1174 183.078 30.4498C182.688 30.7822 182.368 31.1891 182.138 31.6465C181.907 32.1039 181.77 32.6027 181.734 33.1137H189.49Z" fill="white"/>
<path d="M198.102 24.8641H205.902V28.2701H205.984C207.297 25.7261 209.021 24.3311 211.976 24.3311C212.78 24.3366 213.58 24.4469 214.356 24.659V31.841C213.335 31.4525 212.248 31.2714 211.156 31.3081C207.956 31.3081 206.231 33.1961 206.231 37.7511V46.1641H198.105L198.102 24.8641Z" fill="white"/>
<path d="M87.1234 52.8972H84.1724V50.8252H87.1234V52.8972ZM84.1724 53.7312H87.1234V61.4662H84.1724V53.7312Z" fill="white"/>
<path d="M87.8403 53.7313H90.6873V54.7153H90.7173C91.0007 54.3191 91.3813 54.0027 91.8225 53.7963C92.2637 53.59 92.7506 53.5008 93.2363 53.5373C93.5883 53.5136 93.9412 53.565 94.2718 53.6881C94.6023 53.8111 94.903 54.003 95.1538 54.251C95.4047 54.499 95.6 54.7975 95.7267 55.1266C95.8535 55.4558 95.9089 55.8081 95.8893 56.1603V61.4663H92.9383V57.4123C92.9383 56.5183 92.8383 55.8923 91.9693 55.8923C91.4623 55.8923 90.7913 56.1453 90.7913 57.3833V61.4663H87.8403V53.7313Z" fill="white"/>
<path d="M101.064 55.9821C101.057 55.8651 101.022 55.7515 100.962 55.6506C100.903 55.5497 100.82 55.4642 100.721 55.4011C100.535 55.2525 100.303 55.1733 100.065 55.1771C99.6472 55.1771 99.1712 55.2671 99.1712 55.7771C99.1712 56.0011 99.3502 56.1051 99.5142 56.1771C100.006 56.3861 101.124 56.4451 102.107 56.7771C102.619 56.8654 103.083 57.1297 103.421 57.5243C103.758 57.9189 103.947 58.419 103.955 58.9381C103.955 61.0841 101.898 61.6661 100.02 61.6661C98.2022 61.6661 96.2052 60.9351 96.1602 58.9381H98.9772C98.9853 59.071 99.0214 59.2007 99.0831 59.3188C99.1448 59.4368 99.2307 59.5405 99.3352 59.6231C99.5646 59.7871 99.8438 59.8663 100.125 59.8471C100.513 59.8471 101.125 59.6981 101.125 59.2471C101.125 58.7961 100.872 58.6651 99.5002 58.4271C97.2502 58.0401 96.3412 57.3271 96.3412 55.9981C96.3412 54.0451 98.4412 53.5381 99.9922 53.5381C101.661 53.5381 103.673 54.0001 103.748 55.9821H101.064Z" fill="white"/>
<path d="M107.852 53.731H109.432V55.549H107.852V58.249C107.852 58.965 108.016 59.278 108.761 59.278C108.986 59.278 109.21 59.263 109.432 59.233V61.467C108.832 61.467 108.165 61.556 107.539 61.556C106.287 61.556 104.901 61.362 104.901 59.246V55.546H103.589V53.728H104.901V51.373H107.852V53.731Z" fill="white"/>
<path d="M112.859 52.8972H109.908V50.8252H112.859V52.8972ZM109.908 53.7312H112.859V61.4662H109.908V53.7312Z" fill="white"/>
<path d="M117.568 53.731H119.148V55.549H117.568V58.249C117.568 58.965 117.732 59.278 118.477 59.278C118.702 59.278 118.926 59.263 119.148 59.233V61.467C118.548 61.467 117.881 61.556 117.255 61.556C116.003 61.556 114.617 61.362 114.617 59.246V55.546H113.309V53.728H114.621V51.373H117.572L117.568 53.731Z" fill="white"/>
<path d="M127.612 61.4664H124.765V60.4825H124.735C124.451 60.8786 124.071 61.1951 123.63 61.4014C123.188 61.6077 122.702 61.6969 122.216 61.6604C121.864 61.6839 121.511 61.6324 121.181 61.5093C120.85 61.3862 120.55 61.1943 120.299 60.9464C120.048 60.6984 119.853 60.4 119.726 60.0709C119.599 59.7418 119.543 59.3896 119.563 59.0374V53.7314H122.514V57.7854C122.514 58.6794 122.614 59.3055 123.483 59.3055C123.99 59.3055 124.66 59.0524 124.66 57.8144V53.7314H127.611L127.612 61.4664Z" fill="white"/>
<path d="M131.893 53.731H133.473V55.549H131.893V58.249C131.893 58.965 132.057 59.278 132.802 59.278C133.026 59.278 133.25 59.263 133.473 59.233V61.467C132.873 61.467 132.206 61.556 131.58 61.556C130.328 61.556 128.942 61.362 128.942 59.246V55.546H127.63V53.728H128.943V51.373H131.894L131.893 53.731Z" fill="white"/>
<path d="M136.379 58.2618C136.389 58.5761 136.494 58.8799 136.681 59.1333C136.867 59.3866 137.125 59.5775 137.422 59.6809C137.719 59.7842 138.041 59.7951 138.344 59.712C138.647 59.629 138.918 59.456 139.121 59.2158H141.878C141.56 59.9923 141.002 60.6474 140.287 61.0867C139.572 61.526 138.736 61.7267 137.899 61.6598C135.425 61.6598 133.562 60.1988 133.562 57.6208C133.547 57.0803 133.642 56.5422 133.841 56.0397C134.041 55.5371 134.341 55.0806 134.724 54.6982C135.106 54.3158 135.563 54.0156 136.065 53.8159C136.568 53.6162 137.106 53.5212 137.646 53.5368C140.716 53.5368 142.046 55.2518 142.046 58.2618H136.379ZM139.211 56.7268C139.215 56.555 139.184 56.3841 139.121 56.2245C139.057 56.0649 138.961 55.92 138.84 55.7984C138.718 55.6769 138.573 55.5813 138.414 55.5174C138.254 55.4535 138.083 55.4227 137.911 55.4268C137.726 55.4104 137.539 55.4312 137.361 55.488C137.184 55.5448 137.02 55.6364 136.878 55.7574C136.737 55.8785 136.621 56.0266 136.537 56.193C136.453 56.3595 136.404 56.541 136.391 56.7268H139.211Z" fill="white"/>
<path d="M103.05 13.2559C102.521 11.4839 101.213 10.5059 98.9814 10.5059C98.2235 10.4805 97.4739 10.6701 96.8192 11.0527C96.1644 11.4352 95.6313 11.9952 95.2814 12.6679L95.8904 10.7059H92.8304L91.7393 15.6629H91.6794L90.6284 10.7059H87.8723L86.8813 15.6629H86.8354L85.6674 10.7059H82.6104L85.0374 18.6759H88.0504L89.2184 13.7449H89.2644L90.4064 18.6759H93.4214L94.8524 14.0699C94.8212 14.2836 94.8048 14.4991 94.8033 14.7149C94.7749 15.2823 94.8684 15.8493 95.0775 16.3775C95.2866 16.9058 95.6064 17.3831 96.0154 17.7774C96.4245 18.1716 96.9132 18.4737 97.4488 18.6632C97.9844 18.8527 98.5544 18.9252 99.1204 18.8759C99.9235 18.9357 100.726 18.7554 101.427 18.358C102.127 17.9606 102.694 17.364 103.054 16.6439V18.6759H105.976V7.71094H103.054L103.05 13.2559ZM99.1174 12.4089C99.305 12.4011 99.4923 12.4324 99.6672 12.5008C99.8422 12.5692 100.001 12.6733 100.134 12.8063C100.266 12.9394 100.37 13.0986 100.437 13.2737C100.505 13.4489 100.536 13.6363 100.527 13.8239H97.6064C97.6123 13.6318 97.6561 13.4427 97.7353 13.2675C97.8144 13.0923 97.9274 12.9345 98.0677 12.803C98.2079 12.6716 98.3728 12.5691 98.5527 12.5015C98.7327 12.4338 98.9242 12.4024 99.1164 12.4089H99.1174ZM103.051 16.4009H100.42C100.209 16.6551 99.9239 16.8376 99.6046 16.9232C99.2852 17.0088 98.9472 16.9934 98.6369 16.8791C98.3267 16.7648 98.0595 16.5571 97.8721 16.2847C97.6847 16.0123 97.5863 15.6886 97.5904 15.3579H103.051V16.4009Z" fill="white"/>
<path d="M143.018 16.9705C142.808 16.9741 142.599 16.9344 142.405 16.8539C142.211 16.7734 142.035 16.6538 141.889 16.5025C141.743 16.3512 141.629 16.1715 141.556 15.9746C141.482 15.7776 141.45 15.5676 141.46 15.3575H147.198C147.185 12.2715 145.85 10.5065 142.852 10.5065C141.936 10.4741 141.036 10.757 140.303 11.3081C139.57 11.8592 139.048 12.6451 138.824 13.5345V13.1945C138.856 12.8364 138.81 12.4757 138.688 12.1374C138.567 11.799 138.373 11.4912 138.12 11.2354C137.868 10.9796 137.563 10.7819 137.226 10.656C136.889 10.5301 136.529 10.4791 136.17 10.5065C135.758 10.4842 135.345 10.5446 134.956 10.684C134.568 10.8235 134.211 11.0392 133.906 11.3185C133.864 11.362 133.825 11.4081 133.789 11.4565C133.638 11.6125 133.561 11.7195 133.503 11.7815C133.309 11.3928 133.009 11.067 132.637 10.8414C132.266 10.6158 131.838 10.4998 131.403 10.5065C130.901 10.4697 130.399 10.5687 129.948 10.793C129.498 11.0173 129.116 11.3588 128.842 11.7815H128.795V10.7065H125.962V18.6765H128.886V14.3595C128.886 13.5165 129.141 12.8875 129.921 12.8875C130.865 12.8875 130.921 13.6075 130.921 14.3595V18.6765H133.861V14.3595C133.861 13.5165 134.114 12.8875 134.892 12.8875C135.823 12.8875 135.897 13.6075 135.897 14.3595V18.6765H138.821V15.9475C139.122 16.7681 139.656 17.4825 140.358 18.0026C141.061 18.5226 141.9 18.8255 142.772 18.8737C143.645 18.9219 144.512 18.7133 145.267 18.2738C146.023 17.8342 146.632 17.183 147.021 16.4005H144.288C144.137 16.5891 143.943 16.739 143.722 16.8381C143.501 16.9372 143.26 16.9826 143.018 16.9705ZM142.988 12.4085C143.175 12.4017 143.362 12.4337 143.536 12.5026C143.71 12.5715 143.867 12.6757 143.999 12.8087C144.131 12.9417 144.233 13.1006 144.3 13.2753C144.367 13.45 144.397 13.6366 144.388 13.8235H141.469C141.476 13.6308 141.52 13.4411 141.6 13.2656C141.68 13.09 141.794 12.932 141.935 12.8006C142.076 12.6692 142.242 12.567 142.423 12.4999C142.603 12.4327 142.796 12.4011 142.988 12.4085Z" fill="white"/>
<path d="M121.724 10.5061C120.869 10.4326 120.013 10.6457 119.292 11.1116C118.571 11.5776 118.025 12.27 117.74 13.0801C117.509 12.2756 117.003 11.5776 116.311 11.1073C115.618 10.6371 114.783 10.4243 113.949 10.5061C112.968 10.4499 112.001 10.7545 111.229 11.3623C110.457 11.9701 109.933 12.8393 109.758 13.8061V7.70605H106.833V18.6761H109.758V15.6701C109.905 16.6258 110.411 17.4895 111.172 18.0852C111.934 18.6808 112.894 18.9637 113.857 18.8761C114.696 18.9297 115.53 18.7085 116.232 18.246C116.934 17.7836 117.466 17.105 117.747 16.3131C118.035 17.1189 118.58 17.8071 119.299 18.2707C120.018 18.7342 120.87 18.9471 121.723 18.8761C122.287 18.9206 122.854 18.843 123.385 18.6487C123.917 18.4543 124.4 18.1477 124.803 17.7498C125.205 17.3518 125.517 16.8718 125.718 16.3424C125.918 15.813 126.002 15.2467 125.964 14.6821C126.001 14.1185 125.917 13.5535 125.716 13.0256C125.515 12.4976 125.203 12.0192 124.801 11.6228C124.398 11.2264 123.915 10.9215 123.384 10.7288C122.854 10.5361 122.287 10.4601 121.724 10.5061ZM115.134 15.5251C115.125 15.8465 114.989 16.1513 114.756 16.373C114.523 16.5948 114.212 16.7155 113.891 16.7091C112.947 16.7091 112.6 15.9731 112.6 14.6971C112.6 13.7291 112.84 12.6721 113.951 12.6721C114.641 12.6721 115.056 13.1331 115.056 13.9321H117.536C117.459 14.4606 117.463 14.9979 117.549 15.5251H115.134ZM121.724 16.7101C120.571 16.7101 120.404 15.5421 120.404 14.6831C120.404 13.8241 120.571 12.6721 121.724 12.6721C122.877 12.6721 123.042 13.8231 123.042 14.6831C123.042 15.5431 122.876 16.7101 121.724 16.7101Z" fill="white"/>
<path d="M4.5929 16.441H1.6059C1.38551 16.441 1.17414 16.3535 1.0183 16.1976C0.862454 16.0418 0.774902 15.8304 0.774902 15.61V12.621C0.774902 12.5119 0.796397 12.4038 0.838159 12.303C0.87992 12.2022 0.941131 12.1106 1.0183 12.0334C1.09546 11.9563 1.18707 11.8951 1.28789 11.8533C1.38871 11.8115 1.49677 11.79 1.6059 11.79H4.5919C4.70103 11.79 4.80909 11.8115 4.90991 11.8533C5.01073 11.8951 5.10234 11.9563 5.17951 12.0334C5.25667 12.1106 5.31788 12.2022 5.35965 12.303C5.40141 12.4038 5.4229 12.5119 5.4229 12.621V15.607C5.4233 15.7163 5.40213 15.8246 5.3606 15.9257C5.31908 16.0268 5.25802 16.1188 5.18092 16.1962C5.10383 16.2737 5.0122 16.3352 4.9113 16.3772C4.8104 16.4192 4.7022 16.4409 4.5929 16.441Z" fill="white"/>
<path d="M38.807 18.2454H33.498C33.1063 18.2454 32.7306 18.0898 32.4536 17.8128C32.1766 17.5358 32.021 17.1602 32.021 16.7684V11.4584C32.021 11.0667 32.1766 10.691 32.4536 10.414C32.7306 10.1371 33.1063 9.98145 33.498 9.98145H38.807C39.1987 9.98145 39.5744 10.1371 39.8514 10.414C40.1284 10.691 40.284 11.0667 40.284 11.4584V16.7674C40.2841 16.9615 40.246 17.1537 40.1719 17.333C40.0977 17.5123 39.9889 17.6752 39.8517 17.8125C39.7146 17.9497 39.5517 18.0586 39.3725 18.1329C39.1932 18.2072 39.0011 18.2454 38.807 18.2454Z" fill="white"/>
<path d="M49.1559 6.198H45.1739C44.8801 6.198 44.5982 6.08126 44.3904 5.87347C44.1827 5.66568 44.0659 5.38386 44.0659 5.09V1.108C44.0659 0.962495 44.0946 0.818415 44.1503 0.683987C44.206 0.549558 44.2876 0.427413 44.3904 0.324526C44.4933 0.221639 44.6155 0.140024 44.7499 0.0843415C44.8843 0.0286593 45.0284 0 45.1739 0H49.1559C49.3014 0 49.4455 0.0286593 49.5799 0.0843415C49.7144 0.140024 49.8365 0.221639 49.9394 0.324526C50.0423 0.427413 50.1239 0.549558 50.1796 0.683987C50.2353 0.818415 50.2639 0.962495 50.2639 1.108V5.09C50.2639 5.38386 50.1472 5.66568 49.9394 5.87347C49.7316 6.08126 49.4498 6.198 49.1559 6.198Z" fill="white"/>
<path d="M49.827 18.2454H44.518C44.1263 18.2454 43.7506 18.0898 43.4736 17.8128C43.1966 17.5358 43.041 17.1602 43.041 16.7684V11.4584C43.041 11.0667 43.1966 10.691 43.4736 10.414C43.7506 10.1371 44.1263 9.98145 44.518 9.98145H49.827C50.2187 9.98145 50.5944 10.1371 50.8714 10.414C51.1484 10.691 51.304 11.0667 51.304 11.4584V16.7674C51.3041 16.9615 51.266 17.1537 51.1919 17.333C51.1177 17.5123 51.0089 17.6752 50.8718 17.8125C50.7346 17.9497 50.5717 18.0586 50.3925 18.1329C50.2132 18.2072 50.0211 18.2454 49.827 18.2454Z" fill="white"/>
<path d="M59.6808 5.42339H56.6948C56.4744 5.42339 56.263 5.33584 56.1072 5.18C55.9513 5.02415 55.8638 4.81279 55.8638 4.59239V1.60639C55.8638 1.386 55.9513 1.17463 56.1072 1.01878C56.263 0.862942 56.4744 0.775391 56.6948 0.775391H59.6808C59.9012 0.775391 60.1125 0.862942 60.2684 1.01878C60.4242 1.17463 60.5118 1.386 60.5118 1.60639V4.59239C60.5118 4.81279 60.4242 5.02415 60.2684 5.18C60.1125 5.33584 59.9012 5.42339 59.6808 5.42339Z" fill="white"/>
<path d="M71.1969 17.2156H67.2149C66.9211 17.2156 66.6392 17.0988 66.4315 16.8911C66.2237 16.6833 66.1069 16.4014 66.1069 16.1076V12.1256C66.1069 11.8317 66.2237 11.5499 66.4315 11.3421C66.6392 11.1343 66.9211 11.0176 67.2149 11.0176H71.1969C71.3424 11.0176 71.4865 11.0462 71.6209 11.1019C71.7554 11.1576 71.8775 11.2392 71.9804 11.3421C72.0833 11.445 72.1649 11.5671 72.2206 11.7016C72.2763 11.836 72.3049 11.9801 72.3049 12.1256V16.1076C72.3049 16.2531 72.2763 16.3972 72.2206 16.5316C72.1649 16.666 72.0833 16.7882 71.9804 16.8911C71.8775 16.9939 71.7554 17.0756 71.6209 17.1312C71.4865 17.1869 71.3424 17.2156 71.1969 17.2156Z" fill="white"/>
<path d="M5.09 39.2507H1.108C0.81414 39.2507 0.532316 39.134 0.324526 38.9262C0.116736 38.7184 0 38.4366 0 38.1427V34.1607C0 33.8669 0.116736 33.585 0.324526 33.3773C0.532316 33.1695 0.81414 33.0527 1.108 33.0527H5.09C5.2355 33.0527 5.37958 33.0814 5.51401 33.1371C5.64844 33.1928 5.77059 33.2744 5.87347 33.3773C5.97636 33.4801 6.05798 33.6023 6.11366 33.7367C6.16934 33.8711 6.198 34.0152 6.198 34.1607V38.1427C6.198 38.2882 6.16934 38.4323 6.11366 38.5667C6.05798 38.7012 5.97636 38.8233 5.87347 38.9262C5.77059 39.0291 5.64844 39.1107 5.51401 39.1664C5.37958 39.2221 5.2355 39.2507 5.09 39.2507Z" fill="white"/>
<path d="M16.7709 29.2659H11.4619C11.0701 29.2659 10.6945 29.1103 10.4175 28.8333C10.1405 28.5563 9.98486 28.1807 9.98486 27.7889V22.4799C9.98486 22.0882 10.1405 21.7125 10.4175 21.4355C10.6945 21.1585 11.0701 21.0029 11.4619 21.0029H16.7709C17.1626 21.0029 17.5383 21.1585 17.8153 21.4355C18.0923 21.7125 18.2479 22.0882 18.2479 22.4799V27.7889C18.2479 28.1807 18.0923 28.5563 17.8153 28.8333C17.5383 29.1103 17.1626 29.2659 16.7709 29.2659Z" fill="white"/>
<path d="M16.7709 40.2845H11.4619C11.0701 40.2845 10.6945 40.1289 10.4175 39.8519C10.1405 39.5749 9.98486 39.1992 9.98486 38.8075V33.4985C9.98486 33.1068 10.1405 32.7311 10.4175 32.4541C10.6945 32.1771 11.0701 32.0215 11.4619 32.0215H16.7709C17.1626 32.0215 17.5383 32.1771 17.8153 32.4541C18.0923 32.7311 18.2479 33.1068 18.2479 33.4985V38.8075C18.2479 39.1992 18.0923 39.5749 17.8153 39.8519C17.5383 40.1289 17.1626 40.2845 16.7709 40.2845Z" fill="white"/>
<path d="M28.3198 41.1103H21.9478C21.4778 41.1103 21.0271 40.9236 20.6948 40.5913C20.3625 40.259 20.1758 39.8083 20.1758 39.3383V32.9673C20.1758 32.4974 20.3625 32.0466 20.6948 31.7143C21.0271 31.382 21.4778 31.1953 21.9478 31.1953H28.3188C28.7887 31.1953 29.2395 31.382 29.5718 31.7143C29.9041 32.0466 30.0908 32.4974 30.0908 32.9673V39.3383C30.0908 39.8081 29.9042 40.2587 29.5721 40.5909C29.24 40.9232 28.7896 41.11 28.3198 41.1103Z" fill="white"/>
<path d="M39.3349 30.0918H32.9639C32.4939 30.0918 32.0432 29.9051 31.7109 29.5728C31.3786 29.2405 31.1919 28.7898 31.1919 28.3198V21.9478C31.1919 21.4778 31.3786 21.0271 31.7109 20.6948C32.0432 20.3625 32.4939 20.1758 32.9639 20.1758H39.3349C39.8049 20.1758 40.2556 20.3625 40.5879 20.6948C40.9202 21.0271 41.1069 21.4778 41.1069 21.9478V28.3198C41.1069 28.7898 40.9202 29.2405 40.5879 29.5728C40.2556 29.9051 39.8049 30.0918 39.3349 30.0918Z" fill="white"/>
<path d="M39.3349 41.1103H32.9639C32.4939 41.1103 32.0432 40.9236 31.7109 40.5913C31.3786 40.259 31.1919 39.8083 31.1919 39.3383V32.9673C31.1919 32.4974 31.3786 32.0466 31.7109 31.7143C32.0432 31.382 32.4939 31.1953 32.9639 31.1953H39.3349C39.8049 31.1953 40.2556 31.382 40.5879 31.7143C40.9202 32.0466 41.1069 32.4974 41.1069 32.9673V39.3383C41.1069 39.8083 40.9202 40.259 40.5879 40.5913C40.2556 40.9236 39.8049 41.1103 39.3349 41.1103Z" fill="white"/>
<path d="M50.3559 30.0918H43.9839C43.514 30.0918 43.0632 29.9051 42.7309 29.5728C42.3986 29.2405 42.2119 28.7898 42.2119 28.3198V21.9478C42.2119 21.4778 42.3986 21.0271 42.7309 20.6948C43.0632 20.3625 43.514 20.1758 43.9839 20.1758H50.3549C50.8249 20.1758 51.2756 20.3625 51.6079 20.6948C51.9402 21.0271 52.1269 21.4778 52.1269 21.9478V28.3198C52.1269 28.7896 51.9404 29.2401 51.6083 29.5724C51.2762 29.9047 50.8257 30.0915 50.3559 30.0918Z" fill="white"/>
<path d="M60.8421 40.2845H55.5361C55.1443 40.2845 54.7687 40.1289 54.4917 39.8519C54.2147 39.5749 54.0591 39.1992 54.0591 38.8075V33.4985C54.0591 33.1068 54.2147 32.7311 54.4917 32.4541C54.7687 32.1771 55.1443 32.0215 55.5361 32.0215H60.8451C61.2368 32.0215 61.6125 32.1771 61.8895 32.4541C62.1665 32.7311 62.3221 33.1068 62.3221 33.4985V38.8075C62.3221 39.0017 62.2838 39.194 62.2094 39.3734C62.135 39.5528 62.0259 39.7158 61.8884 39.853C61.7509 39.9901 61.5878 40.0989 61.4082 40.1729C61.2287 40.247 61.0363 40.2849 60.8421 40.2845Z" fill="white"/>
<path d="M16.7709 62.3187H11.4619C11.0701 62.3187 10.6945 62.1631 10.4175 61.8861C10.1405 61.6091 9.98486 61.2334 9.98486 60.8417V55.5327C9.98486 55.1409 10.1405 54.7653 10.4175 54.4883C10.6945 54.2113 11.0701 54.0557 11.4619 54.0557H16.7709C17.1626 54.0557 17.5383 54.2113 17.8153 54.4883C18.0923 54.7653 18.2479 55.1409 18.2479 55.5327V60.8417C18.2479 61.2334 18.0923 61.6091 17.8153 61.8861C17.5383 62.1631 17.1626 62.3187 16.7709 62.3187Z" fill="white"/>
<path d="M28.3198 52.1278H21.9478C21.4778 52.1278 21.0271 51.9411 20.6948 51.6088C20.3625 51.2765 20.1758 50.8258 20.1758 50.3558V43.9888C20.1758 43.5188 20.3625 43.0681 20.6948 42.7358C21.0271 42.4035 21.4778 42.2168 21.9478 42.2168H28.3188C28.5516 42.2167 28.7821 42.2624 28.9972 42.3514C29.2123 42.4404 29.4078 42.5709 29.5724 42.7355C29.7371 42.9 29.8677 43.0954 29.9568 43.3105C30.0459 43.5255 30.0918 43.756 30.0918 43.9888V50.3598C30.0907 50.8291 29.9036 51.2788 29.5714 51.6102C29.2392 51.9417 28.7891 52.1278 28.3198 52.1278Z" fill="white"/>
<path d="M38.807 62.3187H33.498C33.1063 62.3187 32.7306 62.1631 32.4536 61.8861C32.1766 61.6091 32.021 61.2334 32.021 60.8417V55.5327C32.021 55.1409 32.1766 54.7653 32.4536 54.4883C32.7306 54.2113 33.1063 54.0557 33.498 54.0557H38.807C39.1987 54.0557 39.5744 54.2113 39.8514 54.4883C40.1284 54.7653 40.284 55.1409 40.284 55.5327V60.8417C40.284 61.2334 40.1284 61.6091 39.8514 61.8861C39.5744 62.1631 39.1987 62.3187 38.807 62.3187Z" fill="white"/>
<path d="M50.3559 52.1278H43.9839C43.514 52.1278 43.0632 51.9411 42.7309 51.6088C42.3986 51.2765 42.2119 50.8258 42.2119 50.3558V43.9888C42.2119 43.5188 42.3986 43.0681 42.7309 42.7358C43.0632 42.4035 43.514 42.2168 43.9839 42.2168H50.3549C50.5877 42.2167 50.8182 42.2624 51.0333 42.3514C51.2484 42.4404 51.4439 42.5709 51.6086 42.7355C51.7732 42.9 51.9038 43.0954 51.9929 43.3105C52.082 43.5255 52.1279 43.756 52.1279 43.9888V50.3598C52.1269 50.8291 51.9397 51.2788 51.6075 51.6102C51.2753 51.9417 50.8252 52.1278 50.3559 52.1278Z" fill="white"/>
<path d="M49.827 62.3187H44.518C44.1263 62.3187 43.7506 62.1631 43.4736 61.8861C43.1966 61.6091 43.041 61.2334 43.041 60.8417V55.5327C43.041 55.1409 43.1966 54.7653 43.4736 54.4883C43.7506 54.2113 44.1263 54.0557 44.518 54.0557H49.827C50.2187 54.0557 50.5944 54.2113 50.8714 54.4883C51.1484 54.7653 51.304 55.1409 51.304 55.5327V60.8417C51.304 61.2334 51.1484 61.6091 50.8714 61.8861C50.5944 62.1631 50.2187 62.3187 49.827 62.3187Z" fill="white"/>
<path d="M60.8421 51.3011H55.5361C55.1443 51.3011 54.7687 51.1455 54.4917 50.8685C54.2147 50.5915 54.0591 50.2158 54.0591 49.8241V44.5151C54.0591 44.1234 54.2147 43.7477 54.4917 43.4707C54.7687 43.1937 55.1443 43.0381 55.5361 43.0381H60.8451C61.2368 43.0381 61.6125 43.1937 61.8895 43.4707C62.1665 43.7477 62.3221 44.1234 62.3221 44.5151V49.8241C62.3221 50.0183 62.2838 50.2106 62.2094 50.39C62.135 50.5694 62.0259 50.7323 61.8884 50.8695C61.7509 51.0067 61.5878 51.1155 61.4082 51.1895C61.2287 51.2636 61.0363 51.3015 60.8421 51.3011Z" fill="white"/>
<path d="M70.6989 60.5123H67.7128C67.4924 60.5123 67.2811 60.4247 67.1252 60.2689C66.9694 60.113 66.8818 59.9017 66.8818 59.6813V56.6953C66.8818 56.4749 66.9694 56.2635 67.1252 56.1077C67.2811 55.9518 67.4924 55.8643 67.7128 55.8643H70.6989C70.9192 55.8643 71.1306 55.9518 71.2864 56.1077C71.4423 56.2635 71.5298 56.4749 71.5298 56.6953V59.6813C71.5298 59.9017 71.4423 60.113 71.2864 60.2689C71.1306 60.4247 70.9192 60.5123 70.6989 60.5123Z" fill="white"/>
<path d="M4.5929 71.5298H1.6059C1.49677 71.5298 1.38871 71.5083 1.28789 71.4666C1.18707 71.4248 1.09546 71.3636 1.0183 71.2864C0.941131 71.2093 0.87992 71.1177 0.838159 71.0168C0.796397 70.916 0.774902 70.808 0.774902 70.6989V67.7128C0.774902 67.4924 0.862454 67.2811 1.0183 67.1252C1.17414 66.9694 1.38551 66.8818 1.6059 66.8818H4.5919C4.8123 66.8818 5.02366 66.9694 5.17951 67.1252C5.33535 67.2811 5.4229 67.4924 5.4229 67.7128V70.6989C5.4229 70.9191 5.33549 71.1303 5.17986 71.2861C5.02424 71.4419 4.81312 71.5296 4.5929 71.5298Z" fill="white"/>
<path d="M60.1789 72.3053H56.1969C56.0514 72.3053 55.9073 72.2767 55.7729 72.221C55.6384 72.1653 55.5163 72.0837 55.4134 71.9808C55.3105 71.8779 55.2289 71.7558 55.1732 71.6213C55.1175 71.4869 55.0889 71.3428 55.0889 71.1973V67.2193C55.0889 67.0738 55.1175 66.9297 55.1732 66.7953C55.2289 66.6609 55.3105 66.5387 55.4134 66.4359C55.5163 66.333 55.6384 66.2514 55.7729 66.1957C55.9073 66.14 56.0514 66.1113 56.1969 66.1113H60.1789C60.3244 66.1113 60.4684 66.14 60.6029 66.1957C60.7373 66.2514 60.8595 66.333 60.9623 66.4359C61.0652 66.5387 61.1468 66.6609 61.2025 66.7953C61.2582 66.9297 61.2869 67.0738 61.2869 67.2193V71.2013C61.2858 71.4945 61.1686 71.7753 60.9609 71.9822C60.7533 72.1892 60.472 72.3053 60.1789 72.3053Z" fill="white"/>
</g>
<defs>
<clipPath id="clip0_1749_822">
<rect width="214.353" height="72.304" fill="white"/>
</clipPath>
</defs>
</svg>
