<svg width="107" height="107" viewBox="0 0 107 107" fill="none" xmlns="http://www.w3.org/2000/svg">
<g clip-path="url(#clip0_1749_820)">
<mask id="mask0_1749_820" style="mask-type:luminance" maskUnits="userSpaceOnUse" x="0" y="0" width="107" height="107">
<path d="M106.515 0H0V106.391H106.515V0Z" fill="white"/>
</mask>
<g mask="url(#mask0_1749_820)">
<path d="M76.1991 22.4811C76.5019 22.5329 76.7883 22.655 77.0354 22.8375C77.2826 23.02 77.4835 23.2579 77.622 23.5321C77.9953 24.2583 78.3058 25.015 78.5501 25.7941C78.6032 26.176 78.5602 26.565 78.4251 26.9261C77.9998 28.4647 77.0391 29.8009 75.7161 30.6941C74.8901 31.3051 74.0031 31.8321 73.1711 32.4351C72.2561 33.0981 71.3361 33.7621 70.4831 34.5001C68.7448 35.9311 66.8744 37.1934 64.8971 38.2701C62.7681 39.4981 60.6251 40.7031 58.5431 42.0061C56.6482 43.1528 55.0163 44.6861 53.7541 46.5061C53.023 47.5954 52.482 48.8008 52.1541 50.0711C52.1026 50.2855 52.0069 50.4868 51.8731 50.6621C51.4757 51.1015 51.202 51.6385 51.0801 52.2183C50.9582 52.7981 50.9923 53.3998 51.1791 53.9621C51.2531 54.2031 51.3201 54.4471 51.3971 54.6881C51.5051 54.9629 51.5434 55.2601 51.5085 55.5533C51.4736 55.8464 51.3666 56.1264 51.1971 56.3681C50.6501 57.1801 50.2191 58.0681 49.7451 58.9311C49.5301 59.3201 49.5871 59.5311 49.9881 59.7191C50.2991 59.8618 50.6191 59.9841 50.9461 60.0851C51.1073 60.1225 51.2483 60.2194 51.3411 60.3565C51.4338 60.4935 51.4713 60.6605 51.4461 60.8241C51.4182 61.076 51.4182 61.3302 51.4461 61.5821C51.5031 61.9181 51.4261 62.3721 51.9971 62.3921C52.0501 62.3921 52.1641 62.6771 52.1271 62.7921C52.0622 62.9267 52.0453 63.0794 52.0791 63.2249C52.1129 63.3704 52.1955 63.4999 52.3131 63.5921C52.5442 63.7819 52.7189 64.0313 52.8181 64.3134C52.9174 64.5955 52.9374 64.8994 52.8761 65.1921C52.8045 65.5096 52.8062 65.8393 52.8809 66.1561C52.9557 66.4729 53.1015 66.7685 53.3074 67.0206C53.5134 67.2726 53.7739 67.4746 54.0695 67.611C54.365 67.7475 54.6876 67.8148 55.0131 67.8081C56.2761 67.8981 57.5421 67.9571 58.8001 68.0911C59.5392 68.16 60.269 68.3072 60.9771 68.5301C61.318 68.621 61.6376 68.7782 61.9177 68.9928C62.1978 69.2073 62.4328 69.475 62.6093 69.7805C62.7858 70.086 62.9002 70.4233 62.9462 70.7731C62.9922 71.1229 62.9686 71.4784 62.877 71.8191C62.847 72.2268 62.7057 72.6185 62.4686 72.9516C62.2315 73.2846 61.9075 73.5463 61.5321 73.7081C60.2131 74.2861 58.8691 74.8081 57.5441 75.3741C56.7562 75.6821 55.9881 76.0385 55.2441 76.4411C54.6281 76.789 54.129 77.3116 53.8098 77.9428C53.4905 78.5741 53.3653 79.2858 53.4501 79.9881C53.5544 80.8013 53.9259 81.5568 54.5062 82.136C55.0865 82.7152 55.8427 83.0853 56.6561 83.1881C57.4191 83.3001 58.1871 83.3771 59.0481 83.4821C58.9622 83.6002 58.8697 83.7134 58.7711 83.8211C57.7659 84.8002 56.4958 85.4631 55.1178 85.7278C53.7398 85.9924 52.3144 85.8472 51.0181 85.3101C50.4213 85.1604 49.8788 84.8455 49.4529 84.4016C49.027 83.9576 48.7349 83.4025 48.6101 82.8001C48.3923 81.9599 48.4008 81.077 48.6348 80.2411C48.8687 79.4052 49.3198 78.6462 49.9421 78.0411C50.8241 77.2588 51.8181 76.6126 52.8911 76.1241C53.6841 75.7131 54.4911 75.3181 55.2551 74.8631C55.8406 74.5619 56.3536 74.1369 56.7585 73.6177C57.1634 73.0984 57.4506 72.4974 57.6001 71.8561C57.6536 71.598 57.6363 71.3302 57.5501 71.0811C57.3001 70.4269 56.8507 69.8679 56.2654 69.4833C55.6802 69.0986 54.9887 68.9079 54.2891 68.9381C53.1611 68.8801 52.0251 68.9841 50.8891 68.9771C50.3096 68.9813 49.7312 68.9284 49.1621 68.8191C48.8182 68.7631 48.5076 68.581 48.2909 68.3082C48.0741 68.0355 47.9669 67.6917 47.9901 67.3441C47.9555 67.0627 47.9673 66.7776 48.0251 66.5001C48.1047 66.2493 48.0939 65.9786 47.9948 65.7349C47.8956 65.4912 47.7142 65.29 47.4821 65.1661C46.8541 64.6751 46.8671 64.6831 47.0441 63.9201C47.0489 63.8297 47.0341 63.7393 47.0008 63.655C46.9675 63.5708 46.9164 63.4948 46.8511 63.4321C46.4581 63.0611 46.2261 62.6751 46.5151 62.1371C46.5381 62.082 46.5523 62.0236 46.5571 61.9641C46.7211 60.9761 46.7191 60.9801 45.7571 60.6811C45.5006 60.6045 45.2518 60.5041 45.0141 60.3811C44.3431 60.0221 44.2321 59.5731 44.6791 58.9621C45.0041 58.5181 45.3791 58.1101 45.7101 57.6721C46.1421 57.1031 46.5901 56.5421 46.9701 55.9391C47.2424 55.5964 47.3858 55.169 47.375 54.7314C47.3642 54.2938 47.2 53.8739 46.9111 53.5451C46.5721 53.1371 46.8161 52.6451 46.8631 52.2101C47.4281 46.9791 50.0831 42.9711 54.1811 39.8101C56.9117 37.8139 59.7863 36.0224 62.7811 34.4501C65.859 32.8725 68.7923 31.0274 71.5471 28.9361C72.8691 27.8571 74.0411 26.5941 75.2821 25.4161C75.5863 25.1076 75.7779 24.7057 75.8261 24.2751C75.9261 23.6751 76.066 23.0871 76.192 22.4751" fill="white"/>
<path d="M22.146 57.4158C21.8294 56.664 21.7393 55.836 21.887 55.0338C21.9954 54.5735 22.221 54.1491 22.5421 53.8019C22.8631 53.4548 23.2686 53.1967 23.719 53.0528C24.8578 52.5953 26.0824 52.3906 27.3081 52.4528C29.4331 52.5368 31.553 52.7428 33.674 52.9168C34.8025 53.0574 35.948 52.8927 36.9911 52.4398C37.5004 52.2032 37.9489 51.8532 38.3021 51.4166C38.6554 50.98 38.904 50.4683 39.0291 49.9208C39.4371 48.3708 39.829 46.8208 40.229 45.2628C40.451 44.3858 40.6711 43.5078 40.8701 42.6248C41.2029 41.2145 41.8573 39.9003 42.7821 38.7848C44.4461 36.806 46.4353 35.1252 48.664 33.8148C52.592 31.3598 56.564 28.9818 60.531 26.5818C64.8256 24.064 68.969 21.297 72.94 18.2948C73.396 17.9398 73.958 17.7198 74.405 17.3548C75.3186 16.6655 76.1753 15.9041 76.967 15.0778C77.6381 14.3783 78.116 13.5167 78.3543 12.5772C78.5925 11.6377 78.5828 10.6524 78.3261 9.71777C79.5025 10.2402 80.4235 11.208 80.8871 12.4088C81.0596 12.9731 81.1145 13.5667 81.0485 14.1531C80.9824 14.7394 80.7968 15.306 80.5031 15.8178C79.6692 17.4437 78.4876 18.866 77.0421 19.9838C75.6822 21.0486 74.2668 22.0406 72.802 22.9558C67.384 26.4298 61.9271 29.8448 56.5201 33.3348C54.2051 34.8288 51.976 36.4558 49.707 38.0208C48.0412 39.1582 46.6272 40.626 45.5527 42.3331C44.4781 44.0401 43.7662 45.9499 43.461 47.9438C43.1851 49.5079 42.7927 51.0492 42.2871 52.5548C41.9312 53.4361 41.4381 54.2556 40.8261 54.9828C40.2613 55.66 39.5529 56.203 38.7523 56.5724C37.9516 56.9419 37.0788 57.1285 36.1971 57.1188C33.9051 57.1757 31.6146 56.9565 29.3751 56.4658C28.0021 56.2318 26.599 56.1538 25.206 56.0558C24.7597 56.0527 24.3147 56.1068 23.8821 56.2168C23.522 56.272 23.1792 56.4081 22.8794 56.6149C22.5796 56.8217 22.3305 57.0938 22.1511 57.4108" fill="white"/>
<path d="M74.7621 32.4858C75.3961 32.9682 75.9225 33.5773 76.3078 34.2745C76.6932 34.9716 76.929 35.7415 77.0002 36.5349C77.0257 37.5269 76.7183 38.4989 76.1271 39.2958C75.4691 40.2609 74.625 41.0847 73.6441 41.7188C71.4551 43.1308 69.2291 44.4878 67.0061 45.8488C65.2296 46.8565 63.5449 48.018 61.9712 49.3199C60.7959 50.2281 59.9261 51.4737 59.4781 52.8899C59.2902 53.5666 59.3034 54.2835 59.5161 54.9529C59.6075 55.2536 59.6294 55.5711 59.5802 55.8815C59.531 56.1919 59.412 56.4871 59.2321 56.7448C59.1015 56.9437 58.9607 57.1356 58.8102 57.3199C58.6766 57.4623 58.584 57.6381 58.542 57.8288C58.5001 58.0195 58.5104 58.218 58.5718 58.4033C58.6332 58.5886 58.7435 58.7539 58.8911 58.8818C59.0386 59.0097 59.218 59.0954 59.4101 59.1299C60.1241 59.3229 60.2411 59.5429 60.1462 60.2719C60.1221 60.4579 60.2961 60.6719 60.3821 60.8719C60.4411 61.0089 60.5721 61.1499 60.5581 61.2719C60.5151 61.6649 60.6641 61.8818 61.0501 61.9138C61.5061 61.9518 61.6581 62.2219 61.6501 62.6359C61.6501 62.9039 61.6501 63.1719 61.6501 63.4359C61.6375 63.5513 61.648 63.6682 61.6809 63.7796C61.7138 63.891 61.7685 63.9948 61.8418 64.0849C61.9151 64.175 62.0055 64.2497 62.1079 64.3047C62.2102 64.3596 62.3225 64.3936 62.4381 64.4048C63.1928 64.5004 63.9593 64.4193 64.6772 64.1678C65.9772 63.8488 67.2651 63.4918 68.5771 63.2448C70.2364 62.994 71.9327 63.1969 73.4861 63.8318C74.6936 64.2571 75.8623 64.7853 76.9792 65.4109C77.6596 65.7975 78.4096 66.0461 79.1862 66.1425C79.9628 66.239 80.7508 66.1813 81.5052 65.9728C81.9094 65.8634 82.324 65.7964 82.7422 65.7729C81.8152 66.8289 80.9591 67.9588 79.9421 68.9218C79.3739 69.4103 78.708 69.7719 77.9889 69.9825C77.2698 70.193 76.5141 70.2477 75.7721 70.1429C74.5215 70.0451 73.3004 69.7133 72.1722 69.1649C71.4734 68.8608 70.8508 68.4055 70.3492 67.8318C69.6659 67.09 68.7529 66.5997 67.7571 66.4398C66.9117 66.204 66.044 66.0569 65.1681 66.0009C64.2504 66.0383 63.338 66.1591 62.4421 66.3618C60.9451 66.7107 59.3904 66.7326 57.8841 66.4258C56.5001 66.0708 56.1511 65.2388 56.7611 63.8818C56.9221 63.5248 56.8991 63.2899 56.6031 63.0749C56.3501 62.8652 56.142 62.6065 55.9915 62.3143C55.8409 62.0222 55.751 61.7026 55.7271 61.3748C55.5363 60.7377 55.3859 60.0891 55.2771 59.4329C55.2691 59.3329 55.0501 59.2008 54.9071 59.1578C54.6253 59.0643 54.3318 59.0102 54.0351 58.9969C53.9002 59.0098 53.7655 58.9695 53.6599 58.8845C53.5544 58.7994 53.4862 58.6764 53.4701 58.5418C53.4434 58.3179 53.5031 58.0922 53.6371 57.9109C54.0101 57.4679 54.4371 57.0659 54.8451 56.6559C55.0663 56.4737 55.2241 56.2262 55.2959 55.9488C55.3678 55.6715 55.35 55.3785 55.2451 55.1118C54.9532 54.0774 54.9948 52.9773 55.3641 51.9679C55.5068 51.3159 55.6661 50.6672 55.8421 50.0219C56.2429 48.7984 56.9952 47.7202 58.0052 46.9218C58.5209 46.5204 59.0639 46.1552 59.6302 45.8289C61.2762 44.7289 62.9001 43.5868 64.5721 42.5288C66.4201 41.3558 68.3111 40.2499 70.1871 39.1229C72.104 38.1074 73.5796 36.4214 74.3321 34.3868C74.509 33.7612 74.6542 33.1271 74.7671 32.4868" fill="white"/>
<path d="M15.0949 61.7919C15.0174 61.0145 15.2362 60.2365 15.7077 59.6135C16.1793 58.9905 16.8686 58.5685 17.6379 58.4319C19.1575 58.0795 20.7427 58.1281 22.2379 58.5729C23.7302 59.0289 25.197 59.5646 26.6319 60.1779C31.9709 62.3169 37.0789 64.9559 42.2609 67.4349C44.3197 68.3508 46.2331 69.5638 47.9399 71.035C48.7187 71.7042 49.3985 72.4806 49.9589 73.3409C50.9869 75.0409 50.7849 75.6049 49.5719 76.8069C48.8401 77.4363 48.0582 78.0048 47.2339 78.507C46.5069 79.021 45.7399 79.487 45.0569 80.054C44.5027 80.4795 44.0847 81.0574 43.8538 81.7168C43.6229 82.3762 43.5892 83.0887 43.7569 83.767C43.8581 84.4422 43.9939 85.1117 44.1639 85.7729C44.438 86.5994 44.9464 87.3284 45.6273 87.8712C46.3081 88.4139 47.1321 88.747 47.9989 88.83C48.2869 88.885 48.5749 88.936 48.9489 89.004C48.2068 89.6199 47.3637 90.1027 46.4569 90.431C45.0597 90.975 43.5322 91.091 42.0689 90.764C40.8574 90.4664 39.8066 89.7147 39.1338 88.6642C38.461 87.6137 38.2175 86.3448 38.4539 85.1199C38.747 83.5047 39.6674 82.071 41.0139 81.132C41.9989 80.41 42.9679 79.667 43.9489 78.939C44.5325 78.4569 44.9278 77.7847 45.0655 77.0403C45.2032 76.296 45.0744 75.5269 44.7019 74.8679C44.2186 73.9658 43.5152 73.2004 42.6569 72.6429C41.3569 71.8039 40.0169 71.0279 38.6629 70.2819C35.5629 68.5719 32.4549 66.8699 29.3249 65.2139C26.747 63.7805 24.014 62.6458 21.1789 61.832C19.5134 61.2959 17.7405 61.1841 16.0209 61.507C15.7209 61.577 15.4279 61.6879 15.0929 61.7919" fill="white"/>
<path d="M78.7039 20.6678C83.1409 24.0303 86.8263 28.2828 89.5239 33.1528C92.8397 39.0915 94.64 45.7561 94.7657 52.5566C94.8913 59.3571 93.3383 66.0837 90.2442 72.1408C87.1501 78.198 82.6103 83.3988 77.0267 87.2829C71.4431 91.167 64.988 93.6145 58.2329 94.4088C48.7662 95.5416 39.1988 93.3699 31.149 88.261C23.0992 83.1521 17.0611 75.4195 14.056 66.3713C11.0509 57.3231 11.2633 47.5146 14.6573 38.605C18.0512 29.6953 24.4184 22.2314 32.6819 17.4758C40.1063 13.159 48.7009 11.288 57.2479 12.1278C62.5713 12.5867 67.7442 14.1311 72.4479 16.6658C59.4309 10.4788 46.4479 10.3608 33.6479 17.1588C25.3332 21.5221 18.8396 28.698 15.3259 37.4058C11.7059 46.0675 11.1513 55.7054 13.7538 64.7252C16.3564 73.7449 21.96 81.606 29.6379 87.0079C37.3157 92.4097 46.6076 95.0287 55.9763 94.4315C65.345 93.8343 74.2291 90.0568 81.1589 83.7238C85.6703 79.7307 89.2172 74.7663 91.5327 69.2043C93.8482 63.6424 94.8719 57.6276 94.5269 51.6128C94.0199 38.9198 88.4529 28.7028 78.7059 20.6648" fill="white"/>
<path d="M4.9609 57.3348C5.1169 57.3918 5.26989 57.4628 5.42989 57.5038C7.08389 57.9331 8.73856 58.3598 10.3939 58.7838C10.482 58.7981 10.5675 58.8251 10.6479 58.8638C10.746 58.9332 10.839 59.0097 10.9259 59.0928C10.8592 59.1811 10.7796 59.2589 10.6899 59.3237C9.7089 59.8237 8.7219 60.3138 7.7389 60.8088C6.97156 61.1954 6.2049 61.5838 5.4389 61.9738L5.4609 62.0958C5.8129 62.0638 6.1609 62.0358 6.5159 61.9958C7.4779 61.8958 8.44289 61.8237 9.39989 61.6957C10.0819 61.6017 10.9549 61.7517 10.9769 60.5677L11.1329 60.6678L11.3439 62.6328C11.2907 62.6373 11.2371 62.6373 11.1839 62.6328C11.0339 62.0118 10.5989 61.8788 10.0339 61.9448C8.63389 62.1088 7.2269 62.2648 5.8229 62.4268C5.2999 62.4868 5.0759 62.8338 5.0659 63.3748L4.90289 63.3237C4.85389 62.7457 4.7869 62.1678 4.7719 61.5898C4.7719 61.4948 4.98589 61.3708 5.12189 61.3008C6.4749 60.6128 7.83189 59.9328 9.18689 59.2498C9.32789 59.1788 9.4629 59.0968 9.7099 58.9598C8.7799 58.7148 7.9679 58.4998 7.1549 58.2888C6.3209 58.0728 5.48689 57.8548 4.64989 57.6508C4.36889 57.5818 4.2219 57.4658 4.2179 57.1418C4.2129 56.7418 4.12989 56.3418 4.08789 55.9418C4.08768 55.8173 4.09604 55.693 4.1129 55.5698C4.2319 55.7098 4.3129 55.7628 4.3279 55.8298C4.4279 56.3298 4.78589 56.4298 5.20189 56.3848C6.59289 56.2458 7.98089 56.0848 9.37189 55.9418C9.93689 55.8858 10.3499 55.6948 10.3439 55.0088L10.4929 55.0388L10.7609 57.4388L10.6409 57.4658C10.5967 57.398 10.5601 57.3256 10.5319 57.2498C10.5178 57.1679 10.4874 57.0897 10.4424 57.0199C10.3974 56.9501 10.3388 56.8901 10.2701 56.8434C10.2014 56.7967 10.124 56.7644 10.0425 56.7483C9.96106 56.7322 9.87718 56.7327 9.79589 56.7498C8.66989 56.8484 7.54456 56.9531 6.4199 57.0638C5.9389 57.1108 5.45889 57.1737 4.97889 57.2297L4.96289 57.3298" fill="white"/>
<path d="M99.0198 34.11C98.1778 34.164 97.3358 34.215 96.4938 34.272C95.3938 34.345 94.2939 34.427 93.1939 34.491C93.0553 34.4758 92.9202 34.438 92.7939 34.379C92.8525 34.2523 92.9257 34.1328 93.0119 34.023C94.2686 32.7497 95.5289 31.4797 96.7929 30.213C96.9029 30.102 97.0039 29.982 97.1089 29.866L97.0309 29.745C95.5229 30.468 94.0099 31.181 92.5099 31.921C92.1099 32.121 92.1919 32.51 92.3099 32.878C91.8264 32.4034 91.5018 31.7906 91.3809 31.124C91.4069 31.117 91.4489 31.096 91.4589 31.106C92.0139 31.679 92.0709 31.695 92.8019 31.365C93.8869 30.874 94.9729 30.386 96.0489 29.876C96.6259 29.602 97.3489 29.403 96.9959 28.437H97.1669C97.4049 28.978 97.6559 29.515 97.8669 30.067C97.8959 30.143 97.7329 30.313 97.6329 30.414C96.5662 31.4974 95.4966 32.5783 94.4239 33.657C94.3139 33.769 94.2129 33.89 94.0099 34.116C94.8809 34.057 95.6159 34.009 96.3499 33.956C97.3309 33.886 98.3099 33.806 99.2919 33.748C99.3608 33.7433 99.4299 33.7541 99.4941 33.7795C99.5583 33.8049 99.6159 33.8444 99.6629 33.895C99.9209 34.395 100.142 34.906 100.377 35.419C100.3 35.447 100.259 35.471 100.25 35.463C99.6739 34.917 99.5689 34.899 98.8139 35.244C97.6629 35.771 96.5139 36.294 95.3649 36.83C94.6299 37.175 94.5649 37.301 94.6589 38.04C94.1343 37.3953 93.7678 36.6367 93.5889 35.825C93.6319 35.843 93.6799 35.847 93.7019 35.874C94.1159 36.386 94.2209 36.44 94.8389 36.174C95.9579 35.687 97.0609 35.163 98.1699 34.653C98.4649 34.518 98.7569 34.377 99.0499 34.239L99.0219 34.11" fill="white"/>
<path d="M85.7089 15.083L87.5859 16.708C87.4559 16.772 87.4089 16.816 87.3859 16.808C86.7059 16.545 86.6039 16.56 86.1179 17.08C85.7329 17.491 85.3619 17.915 84.9509 18.371L87.1049 20.299C87.6119 19.685 88.1159 19.108 88.5709 18.499C88.6589 18.38 88.5709 18.114 88.5309 17.923C88.4884 17.8142 88.4286 17.7129 88.3539 17.623L88.4769 17.516L90.3769 19.208C90.1869 19.208 90.0909 19.238 90.0459 19.208C89.6459 18.896 89.3199 19.049 89.0289 19.364C88.6039 19.823 88.1899 20.292 87.7729 20.758C87.3059 21.279 86.8319 21.795 86.3729 22.324C85.9729 22.786 85.4729 23.243 86.2049 23.914L86.0049 23.986L84.1859 22.353L84.2328 22.164C84.9618 22.784 85.3429 22.256 85.7479 21.814C86.1179 21.414 86.4859 21.002 86.8979 20.547L84.7369 18.618C84.2109 19.242 83.7099 19.825 83.2219 20.418C82.9219 20.782 83.1439 21.104 83.3829 21.423C82.6429 21.0557 81.9998 20.5192 81.5059 19.857C81.5169 19.847 81.5349 19.827 81.5389 19.829C82.2459 20.259 82.6559 19.795 83.0669 19.329C83.8529 18.429 84.6469 17.545 85.4279 16.645C86.0049 15.98 86.0089 15.896 85.6279 15.179L85.7089 15.097" fill="white"/>
<path d="M28.7919 17.3521L26.7109 18.5791C26.6809 18.4721 26.6569 18.4311 26.6669 18.4191C27.1379 17.8671 27.1579 17.7911 26.7789 17.1361C26.1789 16.0931 25.5569 15.0581 24.9359 14.0251C24.3879 13.1131 24.3789 13.1141 23.3999 13.0511L25.4709 11.8161C25.5119 11.9161 25.5389 11.9571 25.5309 11.9641C25.0049 12.4721 25.0929 12.6451 25.4179 13.2561C25.6819 13.7561 25.9889 14.2271 26.3179 14.7731L28.7789 13.2811C28.3409 12.6161 27.9549 11.9501 27.4789 11.3581C27.3449 11.1921 26.9409 11.2451 26.6489 11.1951C27.2454 10.6495 27.9535 10.24 28.7239 9.99512C28.6751 10.0727 28.6185 10.1451 28.5549 10.2111C28.4896 10.2558 28.4339 10.313 28.3908 10.3793C28.3477 10.4456 28.3181 10.5198 28.3038 10.5976C28.2895 10.6754 28.2907 10.7552 28.3074 10.8325C28.324 10.9099 28.3558 10.9831 28.4009 11.0481C29.1856 12.3815 29.9806 13.7084 30.7859 15.0291C31.0509 15.4641 31.4569 15.5101 31.9319 15.2291L31.9589 15.4141L29.8319 16.7071C29.8319 16.5761 29.8109 16.4911 29.8319 16.4751C30.3099 16.1591 30.2389 15.7601 29.9979 15.3481C29.6979 14.8341 29.3909 14.3241 29.0639 13.8271C29.0208 13.7814 28.9669 13.7473 28.9071 13.7281C28.8473 13.7089 28.7835 13.7051 28.7219 13.7171C27.9879 14.1361 27.2679 14.5801 26.4699 15.0621C26.9209 15.7621 27.3239 16.4331 27.7859 17.0621C27.8929 17.2071 28.1969 17.2211 28.4169 17.2621C28.5242 17.2599 28.6301 17.2372 28.7289 17.1951L28.7949 17.3441" fill="white"/>
<path d="M62.425 10.292C62.571 10.192 62.618 10.135 62.658 10.14C63.258 10.208 63.4341 9.81004 63.5341 9.34004C63.6521 8.78804 63.739 8.23004 63.869 7.68104C63.926 7.44204 63.8541 7.35304 63.6351 7.31004C62.9051 7.16904 62.176 7.02704 61.449 6.87204C61.194 6.81704 61.0941 6.92904 61.0491 7.15204C60.9301 7.78004 60.798 8.40504 60.692 9.03504C60.612 9.51504 60.914 9.76204 61.348 9.91004C60.5122 10.008 59.6661 9.85772 58.915 9.47804C58.976 9.45404 59.029 9.41304 59.076 9.41904C59.605 9.48704 59.798 9.15204 59.889 8.72504C60.078 7.83904 60.2511 6.95004 60.4301 6.06204C60.5091 5.66904 60.586 5.27504 60.663 4.88204C60.778 4.29304 60.988 3.67304 60.063 3.43704L60.186 3.29004L62.538 3.76504L62.6 3.91704C61.608 3.82504 61.579 4.52704 61.452 5.14804C61.363 5.58204 61.2741 6.01604 61.1721 6.51004L63.9871 7.06204C64.1211 6.34604 64.256 5.69504 64.361 5.03804C64.434 4.57904 64.155 4.30704 63.709 4.15304L63.8021 4.01204L66.176 4.44404C66.118 4.54404 66.095 4.61304 66.076 4.61204C65.445 4.58104 65.2231 4.97204 65.1171 5.51204C64.8611 6.81204 64.5791 8.10004 64.3391 9.39904C64.2061 10.118 64.263 10.184 64.918 10.787L62.4241 10.293" fill="white"/>
<path d="M73.343 13.315C73.6695 13.1794 73.9648 12.9786 74.211 12.725C74.4572 12.4714 74.6491 12.1703 74.775 11.84C74.825 11.69 74.696 11.462 74.606 11.292C74.551 11.192 74.4151 11.124 74.3161 11.043L74.38 10.928L76.313 11.869C76.265 11.935 76.24 11.98 76.232 11.978C75.646 11.778 75.258 12.096 74.856 12.461C74.4665 12.8072 74.0506 13.1225 73.612 13.404C73.5644 13.4224 73.5218 13.452 73.4879 13.4903C73.4541 13.5286 73.4298 13.5744 73.4173 13.6239C73.4048 13.6735 73.4043 13.7253 73.4159 13.7751C73.4275 13.8248 73.4509 13.8711 73.484 13.91C73.5828 14.1207 73.7414 14.2978 73.94 14.4192C74.1385 14.5407 74.3684 14.6011 74.601 14.593H75.069C74.8916 14.7149 74.6915 14.8 74.4806 14.8431C74.2697 14.8861 74.0522 14.8864 73.8412 14.8437C73.6302 14.8011 73.4299 14.7165 73.2522 14.5949C73.0746 14.4733 72.9232 14.3173 72.807 14.136C72.7545 14.0092 72.6633 13.9023 72.5464 13.8304C72.4295 13.7586 72.2928 13.7255 72.156 13.736C71.1695 13.6636 70.2265 13.3007 69.4461 12.693C69.3431 12.629 69.2556 12.5429 69.1898 12.4411C69.1241 12.3392 69.0817 12.2241 69.0657 12.1039C69.0498 11.9837 69.0606 11.8615 69.0975 11.746C69.1344 11.6306 69.1963 11.5247 69.279 11.436C69.554 11.0163 69.9221 10.6657 70.3547 10.4115C70.7872 10.1572 71.2726 10.0062 71.773 9.96999C72.119 9.94399 72.163 9.79199 72.22 9.51199C72.2705 9.07524 72.4035 8.65206 72.612 8.26499C72.7781 8.05436 72.9956 7.89007 73.2436 7.78796C73.4916 7.68585 73.7618 7.64937 74.028 7.68203C74.2942 7.71469 74.5475 7.8154 74.7635 7.97443C74.9795 8.13347 75.1508 8.34546 75.261 8.58999C75.3266 8.72145 75.3609 8.86627 75.3614 9.01317C75.3619 9.16008 75.3284 9.30511 75.2637 9.43699C75.199 9.56886 75.1047 9.68403 74.9882 9.77353C74.8717 9.86302 74.7362 9.92444 74.5921 9.95299C74.1705 10.0388 73.7421 10.0873 73.312 10.098C73.112 10.115 72.9001 10.113 72.9331 10.398C73.0344 11.2833 73.14 12.168 73.25 13.052C73.2725 13.1409 73.303 13.2276 73.341 13.311M70.416 11.722C70.3962 12.1956 70.5646 12.6578 70.8845 13.0076C71.2043 13.3574 71.6495 13.5664 72.123 13.589C72.413 13.604 72.558 13.523 72.508 13.178C72.377 12.27 72.264 11.359 72.177 10.446C72.147 10.129 72.016 10.077 71.746 10.121C71.3688 10.1832 71.0266 10.3791 70.782 10.6729C70.5374 10.9667 70.4068 11.3388 70.414 11.721M73.314 9.94699C74.138 9.94699 74.679 9.58799 74.809 8.97199C74.8519 8.77495 74.8265 8.56918 74.7369 8.38852C74.6473 8.20786 74.4989 8.06307 74.3161 7.97799C74.1314 7.89088 73.92 7.87924 73.7269 7.94553C73.5338 8.01183 73.3743 8.15083 73.2821 8.33299C73.1236 8.71245 73.0072 9.10815 72.935 9.51299C72.865 9.82799 73.006 9.99999 73.314 9.94699Z" fill="white"/>
<path d="M14.8991 72.5121L15.9901 74.6542L15.8721 74.8312C15.4401 73.9672 14.8891 74.3202 14.3721 74.5782C13.2391 75.1422 12.1201 75.7332 10.9901 76.3022C10.4971 76.5502 10.1821 76.8652 10.4031 77.4662C10.4131 77.4922 10.3661 77.5382 10.3191 77.6232C10.2467 77.5551 10.1819 77.4793 10.1261 77.3972C9.72606 76.6142 9.32606 75.8352 8.95206 75.0392C8.80834 74.7136 8.7075 74.3707 8.65206 74.0192C8.60893 73.7725 8.63186 73.5188 8.71855 73.2839C8.80524 73.049 8.95259 72.8413 9.14561 72.6818C9.33863 72.5223 9.57045 72.4167 9.81748 72.3759C10.0645 72.335 10.318 72.3603 10.5521 72.4492C10.9486 72.6502 11.3247 72.8893 11.6751 73.1631C11.743 73.087 11.8067 73.0072 11.8661 72.9242C12.2391 72.3672 12.6071 71.8072 12.9771 71.2482C13.3086 70.81 13.4798 70.2714 13.4621 69.7222C13.6621 70.1222 13.8831 70.5062 14.0621 70.9142C14.0971 70.9952 13.9861 71.1542 13.9161 71.2612C13.3821 72.0862 12.8341 72.9022 12.3161 73.7352C12.2258 73.8921 12.1936 74.0758 12.2251 74.2542C12.2911 74.5692 12.4701 74.6901 12.8031 74.4941C13.2381 74.2381 13.7031 74.0362 14.1481 73.7942C14.8101 73.4282 14.8591 73.3152 14.7571 72.5992L14.9071 72.5142M12.2491 74.7961C12.1281 74.5441 12.0491 74.3582 11.9491 74.1772C11.8381 73.9165 11.6666 73.6859 11.4489 73.5046C11.2312 73.3232 10.9735 73.1962 10.6971 73.1342C10.4039 73.0705 10.0978 73.1089 9.82936 73.2429C9.56096 73.3769 9.34636 73.5986 9.22106 73.8712C9.105 74.1843 9.08099 74.5242 9.15187 74.8506C9.22275 75.177 9.38555 75.4763 9.62106 75.7132C9.70564 75.7635 9.80002 75.795 9.89783 75.8057C9.99564 75.8164 10.0946 75.806 10.1881 75.7751C10.8671 75.4841 11.5251 75.1462 12.2531 74.7952" fill="white"/>
<path d="M100.255 70.9351C99.9067 72.1445 99.3793 73.295 98.6902 74.3481C98.5154 74.6219 98.2525 74.8279 97.9449 74.9322C97.6374 75.0365 97.3034 75.033 96.9982 74.9221C96.6853 74.7956 96.4214 74.5717 96.2457 74.2835C96.0701 73.9953 95.992 73.6582 96.0231 73.3221C96.0231 73.1321 96.0422 72.9421 96.0552 72.6891L95.1971 72.7692C94.7671 72.8082 94.3361 72.8341 93.9081 72.8881C93.2801 72.9032 92.6742 73.1226 92.1821 73.5131C92.3661 73.1061 92.5371 72.6912 92.7471 72.2982C92.7881 72.2212 92.9822 72.2091 93.1082 72.1981C94.0542 72.0921 94.9991 71.9761 95.9481 71.8981C96.3941 71.8621 96.5721 71.6341 96.6151 71.1561C95.9151 70.8681 95.2151 70.5562 94.4951 70.2902C94.3546 70.2313 94.1975 70.2258 94.0532 70.2748C93.909 70.3238 93.7877 70.4239 93.7122 70.5562C93.6595 70.6165 93.5986 70.669 93.5311 70.7122L93.4191 70.6472L94.3901 68.4102C94.4901 68.4712 94.5321 68.4881 94.5311 68.5021C94.4891 69.2411 94.5451 69.3562 95.2471 69.6732C96.4811 70.2292 97.7282 70.7582 98.9612 71.3162C99.0688 71.384 99.1897 71.4282 99.3157 71.4459C99.4417 71.4636 99.5699 71.4544 99.6921 71.4189C99.8143 71.3834 99.9277 71.3223 100.025 71.2397C100.121 71.1572 100.2 71.0551 100.254 70.9401M96.3882 72.7692C96.3789 73.0424 96.4482 73.3126 96.5879 73.5476C96.7276 73.7826 96.9317 73.9727 97.1761 74.0952C97.4112 74.2143 97.678 74.2556 97.9381 74.2132C98.1982 74.1708 98.4381 74.0468 98.6232 73.8591C98.8601 73.6173 99.0563 73.3387 99.2041 73.0341C99.2511 72.961 99.2807 72.8782 99.2908 72.7919C99.3008 72.7056 99.2909 72.6181 99.262 72.5362C99.233 72.4543 99.1857 72.3801 99.1237 72.3192C99.0616 72.2584 98.9866 72.2125 98.9042 72.1851C98.5192 71.9931 98.1241 71.8201 97.7311 71.6431C96.8071 71.2271 96.6451 71.3182 96.4601 72.3502C96.4341 72.4962 96.4131 72.6431 96.3931 72.7681" fill="white"/>
<path d="M36.094 93.3311C35.271 92.9641 34.994 93.5311 34.694 94.0521C34.159 94.9811 33.619 95.9071 33.104 96.8461C32.778 97.4461 32.26 98.0461 33.049 98.6871C32.973 98.7261 32.939 98.7571 32.926 98.7491C32.007 98.2311 31.045 97.773 30.182 97.174C29.5657 96.7757 29.1259 96.1558 28.9536 95.4425C28.7812 94.7291 28.8895 93.9769 29.256 93.3411C29.5248 92.6253 30.06 92.0412 30.7497 91.7111C31.4393 91.381 32.2299 91.3305 32.956 91.5701C34.0446 92.0136 35.1047 92.5242 36.13 93.0991L36.094 93.3311ZM29.594 95.0311C29.5339 95.5341 29.6396 96.0429 29.8952 96.4803C30.1508 96.9177 30.5422 97.2596 31.01 97.454C31.479 97.691 31.704 97.6451 31.992 97.2071C32.261 96.7981 32.492 96.3651 32.734 95.9361C33.218 95.0651 33.705 94.1961 34.17 93.3151C34.339 92.9941 34.46 92.6151 34.113 92.3361C33.8761 92.1192 33.5939 91.9576 33.287 91.863C32.98 91.7685 32.6559 91.7432 32.338 91.7891C31.6282 92.0269 30.9971 92.4548 30.5135 93.0262C30.0299 93.5976 29.7122 94.2907 29.595 95.0301" fill="white"/>
<path d="M11.3319 44.6409L10.9319 46.541H10.8229C10.7917 46.4835 10.7714 46.4208 10.7629 46.356C10.7748 46.2625 10.7676 46.1677 10.7416 46.0771C10.7157 45.9866 10.6716 45.9023 10.612 45.8294C10.5523 45.7565 10.4785 45.6965 10.3949 45.6531C10.3114 45.6097 10.2198 45.5838 10.1259 45.5769C9.05289 45.3369 7.97889 45.106 6.90389 44.877C6.54089 44.799 6.17188 44.7479 5.80988 44.6639C5.35888 44.5639 5.00989 44.64 4.84789 45.123C4.83376 45.1909 4.7988 45.2528 4.74788 45.3C4.64672 44.9901 4.65069 44.6554 4.75918 44.3481C4.86767 44.0407 5.07462 43.7777 5.34789 43.5999C6.80655 42.9626 8.26588 42.3263 9.72588 41.6909C9.90689 41.6119 10.0799 41.5119 10.2569 41.4219L10.2369 41.3109C9.00389 41.0659 7.77189 40.8169 6.53689 40.5769C6.43366 40.5457 6.32476 40.538 6.21815 40.5542C6.11154 40.5705 6.0099 40.6104 5.92067 40.6709C5.83145 40.7315 5.75688 40.8112 5.70241 40.9043C5.64795 40.9974 5.61497 41.1015 5.60589 41.209L5.44988 41.119L5.82689 39.2319C5.91989 39.2709 5.96688 39.2779 5.96988 39.2929C6.09488 40.0259 6.17989 40.1139 6.93289 40.2729C8.48889 40.6003 10.0446 40.9276 11.5999 41.2549C11.7411 41.2835 11.8723 41.3491 11.9799 41.4449C10.0059 42.4669 7.95188 43.2809 5.93488 44.2119C5.98088 44.2789 5.99989 44.3369 6.02889 44.3439C7.33589 44.6279 8.63889 44.9309 9.95189 45.1799C10.6769 45.3169 10.7289 45.2559 11.1709 44.6199L11.3229 44.6469" fill="white"/>
<path d="M97.171 51.3268L102.171 46.9548L102.122 46.8488C101.761 46.8778 101.4 46.8988 101.041 46.9378C100.036 47.0465 99.0308 47.1595 98.0261 47.2768C97.3111 47.3618 97.22 47.4458 96.926 48.1388L96.707 46.2118L96.9021 46.0778C96.9284 46.1605 96.9501 46.2447 96.967 46.3298C97.048 46.8838 97.4671 46.9738 97.8971 46.9368C99.3201 46.8158 100.74 46.6648 102.161 46.5178C102.678 46.4638 102.991 46.1798 102.979 45.5088C103.197 45.811 103.297 46.1827 103.261 46.5537C103.224 46.9247 103.053 47.2694 102.779 47.5228C101.614 48.5228 100.447 49.5228 99.2791 50.5228C99.1113 50.6537 98.9773 50.8227 98.8881 51.0158C99.2881 50.9818 99.6881 50.9488 100.088 50.9158C100.844 50.8478 101.6 50.7848 102.355 50.7088C102.901 50.6538 103.425 50.5538 103.389 49.7738L103.539 49.8228C103.598 50.4548 103.656 51.0858 103.717 51.7438C103.599 51.7228 103.552 51.7268 103.547 51.7128C103.259 51.0438 103.235 50.9938 102.488 51.0498C101.004 51.1608 99.5241 51.3158 98.0431 51.4498C97.7821 51.4738 97.5191 51.4848 97.2571 51.5018L97.165 51.3328" fill="white"/>
<path d="M14.841 23.1001C15.6775 23.1243 16.4845 23.4144 17.145 23.9283C17.8054 24.4422 18.285 25.1532 18.514 25.9581C18.5919 26.3522 18.5818 26.7587 18.4844 27.1484C18.387 27.5382 18.2047 27.9016 17.9506 28.2127C17.6965 28.5239 17.3768 28.7751 17.0144 28.9483C16.6519 29.1216 16.2557 29.2127 15.854 29.2151C15.0553 29.1821 14.2853 28.9081 13.6452 28.4292C13.0052 27.9504 12.525 27.289 12.268 26.5321C12.145 26.1323 12.1185 25.7091 12.1903 25.2971C12.2622 24.8851 12.4305 24.4959 12.6815 24.1613C12.9325 23.8268 13.2591 23.5563 13.6345 23.372C14.01 23.1878 14.4238 23.0949 14.842 23.1011M14.016 23.6741C13.9038 23.6838 13.7925 23.7018 13.683 23.7281C13.4409 23.7947 13.2183 23.9184 13.0339 24.0887C12.8495 24.2591 12.7086 24.4711 12.623 24.7072C12.5374 24.9432 12.5096 25.1963 12.542 25.4453C12.5743 25.6942 12.6659 25.9318 12.809 26.1381C13.1801 26.8049 13.7023 27.3755 14.3337 27.8041C14.9651 28.2327 15.6882 28.5074 16.445 28.6061C16.701 28.638 16.961 28.6053 17.2012 28.511C17.4414 28.4166 17.6542 28.2637 17.8201 28.066C17.9861 27.8684 18.0999 27.6323 18.1512 27.3794C18.2025 27.1265 18.1897 26.8648 18.114 26.6181C17.7531 25.8078 17.1832 25.1081 16.4627 24.5908C15.7422 24.0734 14.8971 23.757 14.014 23.6741" fill="white"/>
<path d="M35.1498 8.71775L36.0798 10.9018C35.1338 10.0908 34.9418 10.0678 33.7208 10.7018C34.0528 11.4538 34.3728 12.2168 34.7258 12.9638C34.785 13.0877 34.8904 13.1834 35.0195 13.2303C35.1485 13.2773 35.2908 13.2717 35.4158 13.2148C35.911 13.1289 36.3695 12.898 36.7332 12.5511C37.0969 12.2043 37.3495 11.7573 37.4588 11.2668C37.5097 11.091 37.5767 10.9203 37.6588 10.7568L37.8188 10.7718C37.8188 11.3218 37.8248 11.8718 37.8098 12.4218C37.8098 12.4778 37.6928 12.5498 37.6168 12.5808C36.2695 13.1368 34.9205 13.6891 33.5698 14.2378C33.5368 14.2518 33.4898 14.2328 33.4508 14.2288C33.4508 14.1878 33.4318 14.1448 33.4438 14.1338C33.9958 13.6388 34.0288 13.5448 33.7438 12.8338C33.3184 11.7711 32.8818 10.7131 32.4338 9.65975C32.1688 9.04075 32.0418 8.24375 30.9878 8.48175L31.0268 8.35975C31.1488 8.29675 31.2678 8.22475 31.3948 8.17275C32.5488 7.69375 33.7078 7.22676 34.8568 6.73576C34.9692 6.66457 35.1049 6.6396 35.2353 6.66606C35.3658 6.69252 35.481 6.76837 35.5568 6.87776C35.8038 7.17276 36.0878 7.43675 36.3568 7.71375L36.2478 7.84575C36.0478 7.73775 35.8478 7.63275 35.6478 7.51975C35.2298 7.30009 34.7559 7.20962 34.2864 7.25983C33.8169 7.31004 33.3729 7.49866 33.0108 7.80175C32.9335 7.87198 32.8748 7.96022 32.8399 8.05863C32.805 8.15703 32.795 8.26254 32.8108 8.36575C33.0198 9.01475 33.2858 9.64575 33.5578 10.2718C33.5888 10.3418 33.8098 10.3918 33.9128 10.3578C34.7938 10.0738 35.0488 9.70475 35.1488 8.71875" fill="white"/>
<path d="M78.0542 91.5918C79.0692 92.1638 79.3542 92.1298 80.3982 91.2138C79.8982 90.5478 79.3982 89.8648 78.8752 89.2068C78.6652 88.9438 78.3672 89.0068 78.0982 89.1548C77.6425 89.3665 77.2582 89.706 76.9919 90.1321C76.7256 90.5582 76.5888 91.0525 76.5982 91.5548C76.5982 91.7118 76.5772 91.8688 76.5652 92.0248L76.4342 92.0498C76.2972 91.5208 76.1552 90.9938 76.0342 90.4618C76.0222 90.4108 76.1232 90.3158 76.1912 90.2668C77.3505 89.4288 78.5122 88.5935 79.6762 87.7608C79.7295 87.7325 79.7859 87.7104 79.8442 87.6948C79.8602 87.7608 79.8912 87.8158 79.8752 87.8378C79.4552 88.4378 79.4322 88.5188 79.8652 89.1258C80.6652 90.2418 81.4892 91.3348 82.2982 92.4418C82.354 92.5562 82.4356 92.656 82.5366 92.7334C82.6376 92.8108 82.7552 92.8636 82.8802 92.8876C83.0051 92.9117 83.134 92.9064 83.2565 92.872C83.3791 92.8377 83.4919 92.7753 83.5862 92.6898L83.5952 92.8608C83.4952 92.9518 83.3952 93.0518 83.2892 93.1308C82.2522 93.8838 81.2082 94.6308 80.1772 95.3898C80.1 95.4676 79.996 95.5129 79.8865 95.5164C79.777 95.52 79.6702 95.4815 79.5882 95.4088C79.2552 95.1728 78.8982 94.9698 78.5512 94.7528L78.5952 94.6298C78.7952 94.6678 79.0092 94.6898 79.2082 94.7478C79.6737 94.8654 80.1633 94.8448 80.6173 94.6885C81.0712 94.5322 81.4697 94.247 81.7642 93.8678C81.8212 93.7649 81.8524 93.6498 81.855 93.5322C81.8577 93.4146 81.8316 93.2981 81.7792 93.1928C81.4232 92.5928 81.0012 92.0338 80.6102 91.4688C79.6532 91.7558 79.3482 92.3398 79.4792 93.5058L78.0522 91.5858" fill="white"/>
<path d="M45.4059 10.2199L43.0249 10.8889L42.9649 10.7439C43.0959 10.6819 43.2289 10.6219 43.3589 10.5569C43.6499 10.4129 43.7589 10.1949 43.5789 9.90294C43.3379 9.50994 43.0909 9.11894 42.8189 8.74794C42.7727 8.69988 42.7159 8.66329 42.6531 8.64107C42.5902 8.61884 42.523 8.61161 42.4569 8.61994C41.8639 8.76094 41.2779 8.92894 40.6939 9.10194C40.5939 9.13094 40.4499 9.22494 40.4419 9.30194C40.3845 9.77371 40.3574 10.2487 40.3609 10.7239C40.3689 11.0329 40.6129 11.1799 40.9159 11.1979C41.0559 11.2059 41.1979 11.1979 41.3379 11.1979L41.3669 11.3659L39.3039 11.9259L39.2539 11.8259C39.308 11.7722 39.3575 11.714 39.4019 11.6519C39.5869 11.3459 39.8849 11.0519 39.9249 10.7249C40.0459 9.75194 40.0639 8.76694 40.1249 7.78694C40.1709 7.01394 40.2519 6.24194 40.2539 5.46994C40.2407 5.25747 40.3088 5.04795 40.4444 4.88381C40.5799 4.71967 40.7728 4.61319 40.9839 4.58594C41.0639 4.68594 41.1579 4.80094 41.2399 4.91994C42.2399 6.3826 43.2399 7.84661 44.2399 9.31194C44.5269 9.73594 44.8319 10.1179 45.4829 10.0379L45.4109 10.2189M42.5299 8.18094L40.7309 5.63494L40.5779 5.69694V8.71994L42.5249 8.18094" fill="white"/>
<path d="M9.18101 47.9258C9.66901 48.1498 10.159 48.3678 10.641 48.6048C10.694 48.6308 10.72 48.7608 10.717 48.8398C10.657 50.2978 10.592 51.7558 10.522 53.2138C10.522 53.2438 10.471 53.2718 10.414 53.3328C10.374 53.2488 10.323 53.1908 10.323 53.1328C10.3283 53.0495 10.3162 52.966 10.2874 52.8877C10.2587 52.8093 10.2138 52.7378 10.1559 52.6778C10.0979 52.6178 10.028 52.5705 9.95074 52.5389C9.87345 52.5074 9.79044 52.4924 9.70701 52.4948C8.11601 52.4098 6.52301 52.3418 4.93001 52.3168C4.73901 52.3168 4.53501 52.5978 4.35401 52.7678C4.2901 52.8522 4.24044 52.9464 4.20701 53.0468L4.08301 53.0248C4.07501 52.8758 4.05501 52.7248 4.06201 52.5788C4.11701 51.3788 4.19201 50.1698 4.22701 48.9638C4.20535 48.8025 4.24841 48.6392 4.34678 48.5095C4.44515 48.3799 4.59083 48.2944 4.75201 48.2718C5.09701 48.1888 5.42901 48.0498 5.76701 47.9348L5.83901 48.0708C5.66001 48.2088 5.48601 48.3518 5.30201 48.4828C4.95016 48.7618 4.68114 49.1315 4.52395 49.5522C4.36676 49.9728 4.32737 50.4284 4.41001 50.8698C4.40977 50.9489 4.42592 51.0272 4.45743 51.0997C4.48894 51.1723 4.53512 51.2376 4.59308 51.2914C4.65104 51.3452 4.71951 51.3864 4.79419 51.4125C4.86887 51.4385 4.94814 51.4489 5.02701 51.4428C5.59201 51.4758 6.15901 51.4888 6.72701 51.5368C7.07001 51.5658 7.15901 51.4218 7.17001 51.1038C7.19901 50.3198 7.05401 49.6668 6.04401 49.5428L6.15301 49.4178L8.48101 49.5288C8.14301 49.7748 7.71001 49.9448 7.53001 50.2598C7.39203 50.6745 7.32707 51.1099 7.33801 51.5468C8.24701 51.5748 9.08901 51.6158 9.93201 51.6208C10.258 51.6208 10.368 51.3608 10.411 51.0718C10.5355 50.5687 10.5068 50.04 10.3286 49.5534C10.1504 49.0668 9.83087 48.6445 9.41101 48.3408C9.28816 48.2627 9.16058 48.1922 9.02901 48.1298L9.18501 47.9298" fill="white"/>
<path d="M29.4062 89.3268C28.5932 88.9118 28.2462 89.5038 27.8592 89.9928C27.1839 90.8461 26.5109 91.7011 25.8402 92.5578C25.1852 93.3968 25.1872 93.3988 25.5952 94.3688C25.4637 94.3025 25.3362 94.2287 25.2132 94.1478C24.1882 93.3538 23.1692 92.5478 22.1372 91.7648C22.0473 91.7155 21.9788 91.6347 21.9447 91.5381C21.9106 91.4414 21.9132 91.3356 21.9522 91.2408C22.0742 90.8498 22.1752 90.4518 22.2852 90.0568H22.3982C22.4382 90.3768 22.4832 90.6958 22.5172 91.0168C22.6172 91.9868 23.3402 92.4588 24.0762 92.8908C24.1789 92.9132 24.2855 92.9101 24.3868 92.8819C24.4881 92.8537 24.5809 92.8011 24.6572 92.7288C25.1332 92.2008 25.5572 91.6288 25.9972 91.0848C25.3372 90.2518 24.8092 90.1568 23.7162 90.5928L25.1752 88.7468C25.11 89.1406 25.1209 89.5431 25.2072 89.9328C25.3692 90.2938 25.7802 90.5438 26.1462 90.9038C26.7012 90.1688 27.2142 89.5188 27.6932 88.8448C27.8992 88.5548 27.7652 88.2808 27.5212 88.0538C27.1907 87.6849 26.763 87.4167 26.287 87.28C25.811 87.1432 25.306 87.1435 24.8302 87.2808C24.6655 87.3188 24.4985 87.3454 24.3302 87.3608L24.2842 87.2428C24.7212 86.9788 25.1532 86.7058 25.5992 86.4588C25.6531 86.446 25.7092 86.4454 25.7634 86.4572C25.8176 86.4689 25.8685 86.4927 25.9122 86.5268C27.0349 87.3935 28.1525 88.2634 29.2652 89.1368C29.3194 89.1932 29.3655 89.2568 29.4022 89.3258" fill="white"/>
<path d="M96.527 67.5432C96.02 67.1602 95.595 66.8432 95.184 66.5172C95.1515 66.4808 95.128 66.4374 95.1151 66.3904C95.1023 66.3434 95.1005 66.294 95.11 66.2462C95.498 64.8462 95.8934 63.4462 96.296 62.0462C96.31 61.9962 96.359 61.9572 96.444 61.8462C96.4639 61.9449 96.4737 62.0454 96.473 62.1462C96.4388 62.3022 96.4664 62.4654 96.5502 62.6014C96.634 62.7375 96.7673 62.8356 96.922 62.8752C97.339 63.0312 97.768 63.1552 98.197 63.2752C99.156 63.5452 100.118 63.8022 101.077 64.0692C101.608 64.2172 102.088 64.2442 102.342 63.6182C102.35 63.5972 102.417 63.6002 102.517 63.5792C102.494 63.7152 102.485 63.8212 102.457 63.9212C102.107 65.1812 101.745 66.4372 101.411 67.7002C101.395 67.8176 101.337 67.925 101.246 68.0015C101.156 68.078 101.04 68.1182 100.922 68.1142C100.543 68.1402 100.166 68.1802 99.788 68.2142L99.746 68.0912C99.8851 68.0104 100.029 67.9389 100.178 67.8772C100.645 67.6912 101.044 67.3675 101.323 66.9492C101.602 66.5309 101.746 66.0378 101.738 65.5352C101.724 65.4247 101.683 65.3194 101.618 65.2287C101.554 65.138 101.468 65.0646 101.368 65.0152C100.751 64.798 100.123 64.6167 99.485 64.4722C99.397 64.4512 99.196 64.5992 99.161 64.7062C98.91 65.4632 98.8541 66.1802 99.8111 66.5862L99.711 66.6702L97.38 66.0282C97.439 65.9542 97.456 65.9142 97.473 65.9152C97.6679 65.9506 97.8682 65.9403 98.0584 65.8852C98.2486 65.8301 98.4234 65.7317 98.5692 65.5977C98.715 65.4637 98.8278 65.2978 98.8987 65.113C98.9696 64.9281 98.9968 64.7293 98.9781 64.5322C98.9781 64.4482 98.851 64.3082 98.757 64.2802C98.088 64.0802 97.412 63.9052 96.74 63.7122C96.302 63.5862 96.0619 63.7832 95.9149 64.1722C95.6968 64.6165 95.6121 65.1144 95.671 65.6058C95.73 66.0973 95.93 66.5611 96.247 66.9412C96.3382 67.0583 96.4217 67.1812 96.497 67.3092C96.5155 67.3856 96.5262 67.4636 96.529 67.5422" fill="white"/>
<path d="M18.919 78.952L20.181 80.71L20.096 80.85C19.253 80.112 18.428 80.5849 17.612 80.8259C16.373 81.1919 15.134 81.5659 13.912 81.9969C13.6971 82.1107 13.446 82.1353 13.2131 82.0656C12.9801 81.9958 12.784 81.8372 12.667 81.624C12.744 81.512 12.831 81.3789 12.925 81.2499C13.851 79.9719 14.786 78.7009 15.7 77.4149C16.087 76.8709 16.592 76.356 16.31 75.562L16.453 75.5229L17.901 77.5579L17.785 77.6689C17.685 77.5689 17.585 77.469 17.485 77.369C17.4443 77.3094 17.3891 77.2611 17.3247 77.2286C17.2603 77.1962 17.1886 77.1805 17.1165 77.1832C17.0444 77.1859 16.9742 77.2069 16.9124 77.2441C16.8505 77.2813 16.7992 77.3335 16.763 77.3959C16.479 77.7589 16.211 78.135 15.963 78.522C15.9368 78.5773 15.9236 78.6378 15.9245 78.699C15.9253 78.7602 15.9402 78.8204 15.968 78.8749C16.314 79.3949 16.674 79.907 17.052 80.405C17.0996 80.4504 17.157 80.4841 17.2198 80.5037C17.2826 80.5233 17.349 80.5282 17.414 80.5179C17.761 80.4355 18.1024 80.331 18.436 80.205C18.998 79.998 19.072 79.8049 18.852 79.2599C18.8276 79.1841 18.8089 79.1066 18.796 79.028L18.921 78.9539M13.754 81.489L13.835 81.6089L16.835 80.687L15.592 78.9449L13.756 81.488" fill="white"/>
<path d="M58.9449 103.154L56.7109 103.448C56.7989 103.3 56.8209 103.21 56.8689 103.192C57.1153 103.083 57.327 102.908 57.4808 102.687C57.6346 102.466 57.7246 102.206 57.7409 101.937C58.0869 100.327 58.4199 98.7142 58.7679 97.1042C58.7905 96.933 58.8673 96.7736 58.9869 96.6492C59.4149 96.3242 59.5819 96.3812 59.8119 96.8672C60.4289 98.1672 61.0239 99.4842 61.6699 100.773C62.0159 101.464 62.1789 102.326 63.1489 102.529L63.1149 102.66L60.6569 102.96L60.6149 102.827C60.7359 102.784 60.8549 102.727 60.9789 102.699C61.3299 102.605 61.5009 102.412 61.3429 102.045C61.1609 101.623 60.9809 101.198 60.7679 100.791C60.7279 100.736 60.6755 100.691 60.6149 100.66C60.5542 100.629 60.487 100.612 60.4189 100.612C59.8129 100.673 59.2099 100.763 58.6089 100.858C58.5089 100.874 58.3619 100.951 58.3429 101.027C58.224 101.471 58.1339 101.922 58.0729 102.377C58.0329 102.725 58.2419 102.93 58.5999 102.963C58.7109 102.973 58.8209 102.99 58.9309 103.004L58.9439 103.159M60.5319 100.265L59.2159 97.4262L59.0859 97.4452L58.4169 100.531L60.5309 100.265" fill="white"/>
<path d="M96.5428 45.3088L95.8918 42.9088L96.0089 42.8518C96.0729 42.9415 96.1304 43.0358 96.1809 43.1338C96.3969 43.6338 96.5619 43.6898 97.0259 43.3988C97.1139 43.3438 97.1959 43.2787 97.2819 43.2188C98.2469 42.5447 98.2469 42.5448 97.9159 41.3678C97.6159 40.3028 97.6158 40.3028 96.5588 40.2458C95.7368 40.2008 95.5998 40.3298 95.5858 41.1458C95.5858 41.1818 95.5479 41.2168 95.4579 41.3758L94.8628 39.1758L94.9908 39.0928C95.4568 39.9268 96.2458 39.8828 97.0188 39.9178C98.5188 39.9858 100.019 40.0947 101.526 40.1497C101.951 40.1657 102.054 40.4598 102.144 40.7338C102.175 40.8338 101.954 41.0548 101.804 41.1568C100.438 42.0888 99.0589 43.0008 97.6919 43.9308C97.2029 44.2628 96.6729 44.5788 96.7029 45.3168L96.5428 45.3068M101.143 40.6358L101.085 40.5018L97.9589 40.3198L98.5269 42.4108L101.143 40.6358Z" fill="white"/>
<path d="M20.8481 85.9619C21.4074 85.4398 21.9338 84.8833 22.4241 84.2959C22.5871 84.0789 22.4501 83.6359 22.4501 83.2959L22.2711 83.3959L24.1151 85.0109C24.0611 85.0469 24.0281 85.0829 24.0151 85.0759C23.2991 84.7239 23.2211 84.7359 22.6381 85.2999C21.7288 86.1793 20.8204 87.0596 19.9131 87.9409C19.2791 88.5599 19.2721 88.6169 19.6701 89.4969C19.5516 89.4253 19.4384 89.3454 19.3311 89.2579C18.6911 88.6139 18.0311 87.9869 17.4311 87.3109C17.1404 86.9944 16.9209 86.6193 16.7871 86.2109C16.6948 85.908 16.7034 85.5834 16.8116 85.2858C16.9198 84.9882 17.1218 84.7338 17.3871 84.5609C17.6105 84.3703 17.8883 84.2548 18.181 84.2308C18.4737 84.2067 18.7665 84.2754 19.0181 84.4269C19.4783 84.7226 19.9147 85.0539 20.3231 85.4179C20.5073 85.5866 20.6823 85.7652 20.8471 85.9529M20.7041 86.0659C20.33 85.7127 19.9288 85.3894 19.5041 85.0989C19.2101 84.938 18.872 84.8763 18.5401 84.9229C18.2572 84.9667 17.9939 85.094 17.784 85.2886C17.5741 85.4832 17.4271 85.7361 17.3621 86.0149C17.3062 86.3244 17.3428 86.6436 17.4673 86.9324C17.5918 87.2213 17.7987 87.467 18.0621 87.6389C18.1164 87.7016 18.1831 87.7523 18.258 87.7879C18.3328 87.8235 18.4143 87.8432 18.4972 87.8457C18.58 87.8482 18.6625 87.8336 18.7395 87.8026C18.8164 87.7717 18.8861 87.7251 18.9441 87.6659C19.5091 87.1659 20.0621 86.6499 20.7021 86.0659" fill="white"/>
<path d="M43.6728 95.9991L46.0258 96.5051C45.9898 96.5961 45.9828 96.6431 45.9688 96.6451C45.1868 96.7651 45.1438 96.7971 44.9688 97.5771C44.7438 98.5771 44.5028 99.5771 44.3218 100.577C44.2462 100.986 44.253 101.406 44.3418 101.812C44.5148 102.548 45.1488 102.753 45.8048 102.85C46.0849 102.919 46.3803 102.887 46.6398 102.761C46.8992 102.635 47.1065 102.423 47.2258 102.16C47.4675 101.572 47.6588 100.964 47.7978 100.343C47.9698 99.6681 48.0978 98.9811 48.2268 98.2961C48.3268 97.7751 48.4138 97.2371 47.6938 97.0051L47.7668 96.8751L49.7068 97.2642C49.5978 97.3642 49.5638 97.4252 49.5218 97.4312C48.8158 97.5382 48.7218 97.6251 48.5788 98.3091C48.3708 99.2961 48.1638 100.284 47.9478 101.27C47.8996 101.503 47.83 101.73 47.7398 101.95C47.5551 102.416 47.1971 102.791 46.7412 102.999C46.2853 103.206 45.7669 103.228 45.2948 103.061C44.9953 103.039 44.7045 102.951 44.4437 102.802C44.183 102.653 43.9589 102.447 43.7881 102.2C43.6172 101.954 43.5039 101.672 43.4564 101.375C43.4089 101.078 43.4285 100.775 43.5138 100.487C43.7418 99.5201 43.9138 98.5401 44.1138 97.5671C44.2348 96.9851 44.4138 96.3931 43.5438 96.1351L43.6748 95.9951" fill="white"/>
<path d="M21.1289 17.335C20.9405 17.3384 20.752 17.3287 20.5649 17.306C20.1044 17.2421 19.6351 17.3079 19.2099 17.4961C18.7847 17.6842 18.4204 17.9872 18.1579 18.371C18.1004 18.4309 18.0559 18.5021 18.027 18.58C17.9981 18.6579 17.9855 18.7409 17.99 18.8239C17.9945 18.9068 18.016 18.988 18.0531 19.0623C18.0903 19.1366 18.1423 19.2025 18.2059 19.256C18.6649 19.762 19.1449 20.249 19.6059 20.735C20.5289 20.202 20.7059 19.652 20.4179 18.841L21.9919 20.271C21.6226 20.1507 21.2333 20.1038 20.8459 20.133C20.4395 20.3302 20.0693 20.5946 19.7509 20.915C20.3699 21.54 20.9229 22.115 21.4979 22.67C21.6024 22.7697 21.7396 22.8279 21.8839 22.8338C22.0282 22.8397 22.1697 22.7928 22.2819 22.702C22.3949 22.63 22.5139 22.567 22.6299 22.502L22.7299 22.633L20.8379 24.433C20.7829 24.327 20.7509 24.286 20.7579 24.277C21.2339 23.668 20.8699 23.251 20.4519 22.82C19.6519 21.996 18.8749 21.151 18.0839 20.32C17.3669 19.567 17.3639 19.57 16.3989 19.82C16.4436 19.7252 16.4986 19.6357 16.5629 19.553C17.5429 18.615 18.5209 17.675 19.5179 16.753C19.5883 16.7021 19.6693 16.6677 19.7548 16.6523C19.8403 16.6369 19.9282 16.6408 20.0119 16.664C20.4119 16.808 20.7889 17.013 21.1749 17.194L21.1279 17.336" fill="white"/>
<path d="M94.6421 24.6362L95.8331 26.2362C95.6681 26.2362 95.6011 26.2572 95.5661 26.2362C95.0011 25.8472 94.9141 25.8232 94.3461 26.2182C93.5511 26.7702 92.7901 27.3712 91.9961 27.9242C91.6585 28.166 91.2916 28.3639 90.9041 28.5132C90.6224 28.609 90.321 28.6317 90.0281 28.5792C89.0351 28.4022 87.8281 26.6972 88.1701 25.6792C88.3311 25.1966 88.6441 24.7791 89.0621 24.4892C89.8821 23.8952 90.7081 23.3082 91.5251 22.7092C91.9771 22.3782 92.4451 22.0422 92.0431 21.3372L92.2111 21.2852L93.6011 23.2072L93.5471 23.3782C92.8301 22.5782 92.3181 23.1602 91.7861 23.5272C91.1611 23.9582 90.5461 24.4052 89.9351 24.8562C89.6678 25.0455 89.4157 25.2555 89.1811 25.4842C89.0301 25.6134 88.9065 25.7714 88.8173 25.949C88.7282 26.1266 88.6753 26.3202 88.6619 26.5184C88.6485 26.7167 88.6748 26.9156 88.7392 27.1036C88.8036 27.2916 88.9049 27.4648 89.0371 27.6132C89.1301 27.7867 89.2591 27.9385 89.4153 28.0585C89.5715 28.1784 89.7514 28.2637 89.9432 28.3087C90.1349 28.3537 90.334 28.3575 90.5273 28.3196C90.7205 28.2817 90.9035 28.2032 91.0641 28.0892C92.1991 27.3832 93.2641 26.5612 94.3511 25.7832C94.7571 25.4932 94.6461 25.0972 94.5011 24.7002L94.6431 24.6452" fill="white"/>
<path d="M51.3469 103.419L50.7939 102.012L50.8939 101.925C50.9975 101.992 51.0977 102.063 51.1939 102.14C51.5729 102.472 51.9209 102.84 52.3289 103.14C52.5426 103.293 52.7909 103.39 53.0514 103.422C53.3119 103.454 53.5764 103.422 53.8209 103.326C54.0443 103.252 54.2418 103.115 54.3905 102.933C54.5392 102.75 54.6327 102.53 54.6603 102.296C54.6879 102.062 54.6484 101.825 54.5463 101.613C54.4442 101.401 54.2838 101.222 54.0839 101.098C53.7847 100.935 53.4723 100.796 53.1499 100.685C52.7619 100.536 52.3499 100.434 51.9749 100.267C51.7707 100.193 51.5837 100.077 51.4254 99.9285C51.267 99.7796 51.1405 99.6001 51.0535 99.4009C50.9666 99.2016 50.921 98.9868 50.9195 98.7694C50.918 98.552 50.9607 98.3365 51.0449 98.1361C51.1926 97.7428 51.4758 97.4152 51.8435 97.212C52.2112 97.0089 52.6394 96.9438 53.0509 97.0282C53.4749 97.1102 53.9009 97.1811 54.4609 97.2811L54.9529 98.5361L54.8259 98.6191C54.7269 98.4917 54.6175 98.3726 54.4989 98.2632C54.1081 97.889 53.6713 97.566 53.1989 97.3021C53.0478 97.2365 52.8846 97.2031 52.7198 97.204C52.5551 97.2048 52.3923 97.2399 52.2418 97.307C52.0913 97.3742 51.9565 97.4719 51.8458 97.594C51.7352 97.7161 51.6511 97.8598 51.5989 98.0161C51.3629 98.6441 51.6209 99.1821 52.3669 99.4941C52.9959 99.7571 53.6669 99.9331 54.2889 100.202C54.5991 100.318 54.8643 100.53 55.046 100.807C55.2278 101.084 55.3167 101.411 55.2999 101.742C55.3295 102.087 55.2486 102.433 55.0688 102.729C54.8891 103.026 54.6198 103.257 54.2999 103.39C53.8242 103.535 53.3263 103.593 52.83 103.562C52.3358 103.541 51.8432 103.495 51.3539 103.422" fill="white"/>
<path d="M73.7542 91.7598L75.0052 92.8969L74.9362 93.0238C74.7831 92.9709 74.6267 92.9275 74.4682 92.8938C73.8556 92.7444 73.2286 92.6622 72.5982 92.6488C72.4107 92.6631 72.2284 92.7171 72.0633 92.8071C71.8982 92.8972 71.7542 93.0213 71.6407 93.1713C71.5272 93.3212 71.4469 93.4937 71.4051 93.677C71.3633 93.8604 71.361 94.0505 71.3982 94.2349C71.4894 94.5774 71.709 94.8716 72.0114 95.0565C72.3138 95.2414 72.6758 95.3027 73.0222 95.2278C73.5972 95.1518 74.1692 95.0278 74.7452 95.0038C74.9599 94.9693 75.1794 94.9794 75.39 95.0334C75.6007 95.0875 75.7979 95.1843 75.9695 95.3179C76.1411 95.4515 76.2833 95.619 76.3873 95.8099C76.4914 96.0009 76.555 96.2113 76.5742 96.4279C76.6219 96.8613 76.5118 97.2974 76.2643 97.6564C76.0168 98.0154 75.6483 98.2732 75.2262 98.3828C74.8262 98.5028 74.4262 98.6268 73.9262 98.7828C73.6862 98.5758 73.3482 98.2828 73.0142 97.9918C72.9507 97.9095 72.8945 97.8219 72.8462 97.7299C73.1072 97.8109 73.2462 97.8618 73.3832 97.8938C73.8753 98.0446 74.38 98.1507 74.8912 98.2108C75.0596 98.2142 75.2269 98.1836 75.3833 98.121C75.5396 98.0584 75.6818 97.965 75.8013 97.8463C75.9208 97.7276 76.0152 97.5862 76.0789 97.4303C76.1426 97.2744 76.1744 97.1072 76.1722 96.9388C76.1726 96.7766 76.1371 96.6163 76.0682 96.4694C75.9994 96.3225 75.899 96.1926 75.7741 96.0891C75.6491 95.9856 75.5029 95.9111 75.3458 95.8707C75.1887 95.8304 75.0245 95.8253 74.8652 95.8558C74.3171 95.898 73.7719 95.9714 73.2322 96.0758C72.987 96.1481 72.7293 96.1671 72.4761 96.1317C72.223 96.0963 71.9804 96.0072 71.7645 95.8704C71.5487 95.7335 71.3645 95.5522 71.2244 95.3384C71.0843 95.1246 70.9915 94.8834 70.9522 94.6309C70.876 94.1481 70.9867 93.6543 71.2619 93.2504C71.5371 92.8464 71.956 92.5626 72.4332 92.4568C73.3972 92.1738 73.3972 92.1738 73.7452 91.7648" fill="white"/>
<path d="M13.021 37.953C13.004 37.915 12.968 37.876 12.971 37.84C13.043 37.059 13.004 36.964 12.307 36.665C10.968 36.091 9.62297 35.53 8.27697 34.972C7.84397 34.793 7.60997 34.905 7.45197 35.353C7.35159 35.681 7.32789 36.0276 7.38267 36.3662C7.43746 36.7049 7.56928 37.0264 7.76797 37.306C7.84497 37.438 7.92897 37.565 8.00997 37.694L7.90997 37.783C7.52997 37.425 7.14297 37.074 6.77897 36.7C6.72697 36.646 6.75897 36.472 6.79997 36.373C7.36864 34.9843 7.9443 33.5983 8.52697 32.215C8.5548 32.1529 8.59621 32.0979 8.64813 32.0539C8.70005 32.0099 8.76116 31.9782 8.82697 31.961C9.30997 31.934 9.79497 31.949 10.28 31.949L10.294 32.114C10.094 32.169 9.88497 32.214 9.68697 32.281C9.07996 32.4582 8.56614 32.8655 8.25497 33.416C8.20614 33.4789 8.17336 33.5528 8.15945 33.6312C8.14555 33.7096 8.15093 33.7903 8.17515 33.8662C8.19936 33.9421 8.24167 34.0109 8.29844 34.0668C8.3552 34.1227 8.42472 34.1639 8.50097 34.187C9.96764 34.805 11.437 35.414 12.909 36.014C12.9886 36.0571 13.0761 36.0838 13.1663 36.0924C13.2564 36.101 13.3474 36.0913 13.4337 36.064C13.5201 36.0366 13.6 35.9922 13.6688 35.9332C13.7375 35.8743 13.7937 35.8021 13.834 35.721C13.8895 35.6454 13.9536 35.5767 14.025 35.516L14.125 35.573L13.141 37.987L13.022 37.951" fill="white"/>
<path d="M102.905 60.5231L101.569 60.8231L101.509 60.6701C101.648 60.5831 101.786 60.4931 101.927 60.4091C102.224 60.2696 102.488 60.0674 102.7 59.8164C102.911 59.5654 103.066 59.2716 103.154 58.9551C103.221 58.694 103.199 58.4178 103.09 58.171C102.981 57.9243 102.792 57.7214 102.554 57.5951C102.31 57.4565 102.023 57.4163 101.75 57.4827C101.478 57.549 101.241 57.7169 101.088 57.9521C100.868 58.2868 100.671 58.6363 100.499 58.9981C100.379 59.2201 100.273 59.4501 100.156 59.6751C100.067 59.8992 99.9312 60.1018 99.7578 60.2694C99.5844 60.437 99.3773 60.5658 99.1503 60.6472C98.9233 60.7287 98.6816 60.7609 98.4412 60.7417C98.2008 60.7225 97.9673 60.6525 97.756 60.5361C97.3262 60.3328 96.9909 59.9721 96.8193 59.5287C96.6477 59.0852 96.653 58.5928 96.8341 58.1531C97.1701 57.1251 97.17 57.1251 97.066 56.6241L98.715 56.2451L98.78 56.4211C98.6078 56.5217 98.4451 56.6379 98.294 56.7681C97.8305 57.154 97.4238 57.6034 97.086 58.1031C96.9563 58.311 96.8898 58.5522 96.8946 58.7972C96.8994 59.0423 96.9752 59.2806 97.1129 59.4833C97.2506 59.6861 97.4442 59.8445 97.6702 59.9392C97.8962 60.034 98.1448 60.061 98.3859 60.0171C98.7005 59.9482 98.9845 59.7799 99.196 59.5371C99.4281 59.2287 99.6262 58.8961 99.7869 58.5451C99.9869 58.1951 100.147 57.8231 100.373 57.4941C100.562 57.2027 100.844 56.9844 101.173 56.8753C101.503 56.7662 101.86 56.7728 102.185 56.8941C102.508 56.9641 102.799 57.1396 103.011 57.3931C103.224 57.6466 103.346 57.9636 103.358 58.2941C103.349 58.6902 103.294 59.0839 103.193 59.4671C103.127 59.7941 103.018 60.1131 102.907 60.5121" fill="white"/>
<path d="M53.548 9.35101C53.575 9.23701 53.575 9.21201 53.582 9.20901C54.471 8.90901 54.509 8.83901 54.535 7.84801C54.57 6.50901 54.626 5.171 54.674 3.832C54.691 3.349 54.493 3.14501 54.007 3.16301C53.6635 3.18309 53.329 3.28104 53.0289 3.44943C52.7289 3.61783 52.4711 3.85227 52.275 4.13501C52.188 4.24501 52.108 4.36101 52.025 4.47401L51.877 4.4C52.094 3.918 52.3029 3.43201 52.5359 2.95901C52.5639 2.90201 52.7229 2.88801 52.8199 2.89101C54.3533 2.94434 55.8866 3.00367 57.42 3.069C57.4746 3.073 57.5275 3.08941 57.5748 3.11696C57.6221 3.14451 57.6625 3.18249 57.6929 3.228C57.8689 3.679 58.0179 4.14001 58.1749 4.59801L58.075 4.65601C58.006 4.56301 57.931 4.47401 57.868 4.37801C57.5127 3.79926 56.9441 3.38336 56.285 3.22C55.757 3.09 55.485 3.31101 55.462 3.84801C55.4093 5.14201 55.3563 6.43601 55.303 7.73001C55.303 7.83001 55.293 7.93801 55.291 8.04301C55.273 8.87701 55.34 8.977 56.204 9.353L53.548 9.35101Z" fill="white"/>
<path d="M8.59176 70.8677C8.13576 70.8677 7.67876 70.8888 7.22476 70.8538C7.15286 70.8308 7.08709 70.7919 7.03236 70.74C6.97764 70.688 6.93538 70.6244 6.90876 70.5538C6.43476 69.1311 5.97376 67.7041 5.52576 66.2728C5.5069 66.2129 5.5017 66.1496 5.51052 66.0875C5.51935 66.0253 5.54198 65.966 5.57676 65.9138C5.94376 65.5768 6.33676 65.2677 6.71976 64.9487L6.81976 65.0308C6.74076 65.1558 6.66976 65.2857 6.58076 65.4037C6.38 65.6547 6.23132 65.9431 6.1434 66.2521C6.05549 66.5612 6.03011 66.8847 6.06876 67.2037C6.13776 67.7677 6.39576 67.9597 6.91676 67.7947C8.27676 67.3657 9.63576 66.9317 10.9868 66.4747C11.8008 66.1997 11.8738 66.0587 11.8618 65.2397C12.2415 66.0411 12.5165 66.8881 12.6798 67.7598C12.619 67.7215 12.5644 67.6743 12.5178 67.6198C12.2098 67.1198 12.0178 67.0048 11.4538 67.1768C9.98976 67.6218 8.53376 68.0917 7.08076 68.5707C6.65576 68.7107 6.57476 68.9517 6.74376 69.3777C6.87648 69.6774 7.07233 69.9448 7.31793 70.1617C7.56352 70.3787 7.85306 70.54 8.16676 70.6348C8.31576 70.6928 8.46676 70.7407 8.61976 70.7927L8.59276 70.8668" fill="white"/>
<path d="M97.184 77.4529L95.727 79.6099L95.597 79.5429C95.6226 79.4405 95.656 79.3402 95.697 79.2429C95.86 78.9149 95.763 78.6749 95.426 78.5799C94.015 78.1799 92.599 77.7979 91.178 77.4079C91.164 77.4949 91.147 77.5309 91.158 77.5459C91.996 78.6669 92.823 79.7959 93.684 80.8989C93.975 81.2719 94.171 81.2409 94.542 80.9129C94.6129 80.8596 94.6881 80.8125 94.767 80.7719L94.867 80.8639L93.661 82.6639C93.592 82.5639 93.541 82.5119 93.55 82.4929C93.875 81.8109 93.516 81.2929 93.141 80.7809C92.1817 79.4702 91.2223 78.1599 90.263 76.8499C90.1778 76.7121 90.1039 76.5676 90.042 76.4179L90.128 76.3179C90.621 76.4489 91.115 76.5779 91.608 76.7119C92.971 77.0819 94.336 77.4459 95.694 77.8309C95.9037 77.9321 96.1432 77.9537 96.3676 77.8915C96.5921 77.8293 96.7863 77.6877 96.914 77.4929C96.951 77.4369 97.044 77.4179 97.114 77.3819L97.191 77.4569" fill="white"/>
<path d="M85.8189 90.753L84.5459 90.135L84.5799 90.003C84.7349 90.003 84.8899 90.013 85.0439 90.003C85.5036 89.999 85.962 89.9545 86.4139 89.87C86.6328 89.8188 86.839 89.7235 87.0199 89.59C87.2008 89.4566 87.3527 89.2877 87.4662 89.0937C87.5798 88.8997 87.6527 88.6845 87.6805 88.4614C87.7083 88.2383 87.6904 88.012 87.6279 87.796C87.4063 87.1071 87.0157 86.4846 86.4916 85.9855C85.9676 85.4865 85.3268 85.1266 84.6279 84.939C84.2951 84.8585 83.9471 84.8659 83.618 84.9603C83.2889 85.0547 82.99 85.233 82.7505 85.4776C82.511 85.7223 82.3391 86.0249 82.2517 86.3559C82.1643 86.6869 82.1644 87.035 82.2519 87.366C82.2849 87.5092 82.2927 87.6571 82.2749 87.803C82.0178 87.3383 81.9376 86.7963 82.0489 86.277C82.1235 85.8651 82.2927 85.4763 82.5434 85.1411C82.794 84.8059 83.1192 84.5336 83.4932 84.3457C83.8672 84.1577 84.2797 84.0593 84.6982 84.0581C85.1168 84.057 85.5299 84.1531 85.9049 84.339C86.6444 84.7192 87.2467 85.3207 87.628 86.0596C88.0093 86.7985 88.1505 87.638 88.0318 88.461C87.9759 88.7855 87.843 89.0918 87.6441 89.3543C87.4452 89.6167 87.1862 89.8275 86.8889 89.969C86.5125 90.2019 86.1556 90.4651 85.8219 90.756" fill="white"/>
<path d="M46.3901 9.86795C47.1621 9.73995 47.1721 9.20795 47.0901 8.66795C46.8901 7.36195 46.6724 6.05861 46.4371 4.75795C46.3001 4.00595 46.1991 3.93994 45.4371 3.83694L45.4131 3.71194L47.8021 3.29395L47.8451 3.40594C47.7971 3.44894 47.7561 3.51494 47.7001 3.53094C47.2161 3.66794 47.1441 4.03994 47.2071 4.44794C47.4261 5.87094 47.6541 7.29295 47.9021 8.71095C48.0021 9.31095 48.2191 9.46495 48.8301 9.41095C49.2652 9.4101 49.6908 9.2828 50.0549 9.04454C50.419 8.80629 50.7061 8.46734 50.8811 8.06895C50.9491 7.91595 51.0361 7.76894 51.1141 7.62194L51.2611 7.66294C51.1611 8.18194 51.0611 8.70195 50.9461 9.21695C50.9331 9.27495 50.8101 9.33595 50.7311 9.34895C49.3977 9.56761 48.0644 9.78128 46.7311 9.98994C46.6471 9.99386 46.5629 9.9885 46.4801 9.97395L46.3901 9.86795Z" fill="white"/>
<path d="M92.603 83.884L90.89 85.9C90.859 85.741 90.818 85.667 90.838 85.619C91.081 85.039 91.0709 84.895 90.5919 84.475C89.8089 83.789 89.0039 83.127 88.2089 82.455C88.0499 82.321 87.889 82.188 87.731 82.055C87.243 81.641 86.774 81.128 86.072 81.837L86.002 81.671L87.562 79.834C87.621 79.879 87.6619 79.904 87.6619 79.912C87.4049 80.642 87.4049 80.712 88.0139 81.238C89.0289 82.111 90.059 82.967 91.093 83.818C91.62 84.251 91.693 84.24 92.293 83.89C92.339 83.863 92.4149 83.89 92.6039 83.89" fill="white"/>
<path d="M67.3872 97.415C67.39 97.501 67.3739 97.5866 67.34 97.6656C67.3062 97.7447 67.2553 97.8153 67.1911 97.8725C67.1269 97.9298 67.0509 97.9722 66.9685 97.9968C66.886 98.0214 66.7993 98.0276 66.7142 98.015C66.6321 98.0188 66.5501 98.0059 66.4731 97.9771C66.3961 97.9484 66.3258 97.9042 66.2664 97.8475C66.2069 97.7908 66.1596 97.7226 66.1273 97.6471C66.0949 97.5715 66.0782 97.4902 66.0781 97.4081C66.0777 97.3186 66.0953 97.23 66.1297 97.1474C66.1642 97.0649 66.2148 96.9902 66.2787 96.9276C66.3426 96.865 66.4184 96.8159 66.5016 96.7832C66.5848 96.7504 66.6737 96.7348 66.7631 96.737C66.8489 96.7392 66.9335 96.7586 67.0117 96.794C67.0898 96.8295 67.1601 96.8803 67.2182 96.9435C67.2763 97.0066 67.3211 97.0809 67.35 97.1617C67.3788 97.2426 67.3912 97.3283 67.3862 97.414" fill="white"/>
<path d="M39.5312 97.4069C39.5312 97.4928 39.5132 97.5777 39.4783 97.6562C39.4433 97.7346 39.3923 97.8049 39.3284 97.8623C39.2646 97.9198 39.1894 97.9632 39.1076 97.9897C39.0259 98.0161 38.9396 98.025 38.8542 98.0159C38.7719 98.019 38.69 98.0048 38.6136 97.9744C38.5371 97.944 38.4679 97.8979 38.4102 97.8391C38.3526 97.7804 38.3079 97.7102 38.279 97.6332C38.25 97.5562 38.2375 97.474 38.2422 97.3919C38.2397 97.306 38.2547 97.2204 38.2861 97.1404C38.3175 97.0604 38.3647 96.9875 38.4249 96.9262C38.4851 96.8648 38.5571 96.8164 38.6365 96.7835C38.716 96.7506 38.8012 96.7341 38.8871 96.7349C39.06 96.7431 39.2232 96.8175 39.3429 96.9425C39.4625 97.0676 39.5296 97.2338 39.5302 97.4069" fill="white"/>
<path d="M16.919 91.0978C16.6266 91.1093 16.3339 91.1056 16.042 91.0869C15.9859 91.0709 15.9347 91.0411 15.8931 91.0002C15.8515 90.9594 15.8209 90.9087 15.804 90.8528C15.773 90.5648 15.793 90.2718 15.793 89.8608L16.973 90.9609L16.918 91.0958" fill="white"/>
<path d="M0.123047 48.98L1.06905 48.125L0.961047 49.859L0.123047 48.98Z" fill="white"/>
<path d="M101.049 31.6619L100.256 30.1089L101.465 30.4869L101.049 31.6619Z" fill="white"/>
<path d="M9.32724 81.732L8.09424 81.477L8.30224 80.388L8.40224 80.353L9.32224 81.732" fill="white"/>
<path d="M27.8599 99.0332L29.4289 99.8232L28.2619 100.248L27.8619 99.0332" fill="white"/>
<path d="M21.0628 11.8498L19.7178 13.0068L19.8318 11.7368L21.0628 11.8488" fill="white"/>
<path d="M15.2731 17.1449C15.2581 16.9539 15.2501 16.8819 15.2471 16.8099C15.2131 15.7999 15.2921 15.7349 16.3801 15.9099C16.3414 15.9733 16.2987 16.0341 16.2522 16.0919C15.9522 16.4199 15.6522 16.7439 15.2722 17.1489" fill="white"/>
<path d="M105.534 49.2979L105.341 47.5249L106.334 48.3139L105.534 49.299" fill="white"/>
<path d="M1.16699 59.022L0.166992 58.25L0.966992 57.271L1.16699 59.022Z" fill="white"/>
<path d="M100.294 78.2341L99.1118 78.6132L99.9028 77.0342L100.294 78.2341Z" fill="white"/>
<path d="M3.53376 33.9509L4.68276 33.4199L4.08276 35.0899L3.53076 33.9499" fill="white"/>
<path d="M89.7568 15.4248H90.7278L90.8279 16.6108L89.7609 15.4248" fill="white"/>
<path d="M103.336 68.5728L103.936 69.6888L102.822 70.2958L103.336 68.5728Z" fill="white"/>
<path d="M0.848012 51.2871V52.9221L0.0620117 52.0071L0.848012 51.2871Z" fill="white"/>
<path d="M55.3571 0.849891H53.8081L54.6611 0.0878906L55.3611 0.849891" fill="white"/>
<path d="M48.9501 0.998914L47.3291 1.19891L48.1171 0.211914L48.9841 0.880914L48.9501 0.996914" fill="white"/>
<path d="M105.654 55.3049V53.668L106.482 54.5289L105.654 55.3049Z" fill="white"/>
<path d="M51.9539 106.323L51.2109 105.578H52.8049L51.9539 106.323Z" fill="white"/>
<path d="M104.13 65.6372L104.787 66.7232L103.748 67.4002L104.13 65.6372Z" fill="white"/>
<path d="M84.2112 95.5417L84.0742 96.6178L82.8252 96.4448L84.1102 95.4878L84.2112 95.5417Z" fill="white"/>
<path d="M24.2052 96.7761L22.9762 97.015L22.7212 95.79L24.2052 96.7761Z" fill="white"/>
<path d="M76.4418 100.139L76.0488 101.317L74.8408 100.944L76.4409 100.144" fill="white"/>
<path d="M78.3462 6.24179L78.7402 7.42479L77.1802 6.63779L78.3462 6.23779" fill="white"/>
<path d="M22.1191 11.1178L22.3101 9.86279L23.5211 10.0688L22.1211 11.1178" fill="white"/>
<path d="M51.1929 0.000976562L52.1099 0.830977L50.3818 0.959977L51.1929 0.000976562Z" fill="white"/>
<path d="M35.5542 3.82715L36.0312 2.82715L37.1702 3.36115L35.6242 3.91615L35.5542 3.82915" fill="white"/>
<path d="M105.04 61.4501L105.254 59.665L106.021 60.6381L105.04 61.4501Z" fill="white"/>
<path d="M104.777 62.6821L105.511 63.7191L104.485 64.4261L104.777 62.6821Z" fill="white"/>
<path d="M20.461 95.2L20.3149 93.9609L21.7009 95.0099L20.461 95.2Z" fill="white"/>
<path d="M95.5278 22.2832L96.7548 22.4902L96.5887 23.7352L95.5278 22.2832Z" fill="white"/>
<path d="M9.81592 84.043L9.99592 82.811L11.0519 84.2111L9.81592 84.041" fill="white"/>
<path d="M2.84719 67.8998L1.86719 67.3588L2.46219 66.2588L2.93919 67.8328L2.84719 67.8978" fill="white"/>
<path d="M95.058 84.7441C95.123 85.2311 95.172 85.5882 95.224 85.9822L94 86.1882L95.0569 84.7441" fill="white"/>
<path d="M58.5361 1.07195L56.7681 0.960949L57.7131 0.147949L58.5361 1.07195Z" fill="white"/>
<path d="M92.0562 88.4039L93.1201 87.1689C93.1391 87.3049 93.1511 87.369 93.1571 87.436C93.2571 88.491 93.2562 88.4909 92.0562 88.4039Z" fill="white"/>
<path d="M45.0478 0.606934L46.0598 1.29493L44.4528 1.60593L44.3838 1.52293L45.0468 0.606934" fill="white"/>
<path d="M63.8288 0.996094L64.5618 2.01609L62.8398 1.73709L63.8288 0.997094" fill="white"/>
<path d="M7.70104 79.0849C7.51504 79.0559 7.40104 79.0479 7.28704 79.0179C7.04704 78.9519 6.81004 78.8749 6.51904 78.7869L6.82504 77.5869L7.70004 79.0869" fill="white"/>
<path d="M86.2402 12.4797L84.9272 11.5027L85.1422 11.4577C86.2092 11.2197 86.2652 11.2677 86.2422 12.4797" fill="white"/>
<path d="M87.7291 92.6768L88.913 91.5518C88.925 91.6316 88.9327 91.7121 88.936 91.7928C88.891 92.9088 89.193 92.8468 87.728 92.6768" fill="white"/>
<path d="M97.583 81.153L98.3831 79.793C98.9151 80.753 98.73 81.087 97.583 81.153Z" fill="white"/>
<path d="M79.8491 8.11692C80.1636 8.00443 80.4841 7.90962 80.8091 7.83293C80.8951 7.81693 81.0661 7.94292 81.1091 8.04092C81.2099 8.34273 81.2941 8.64987 81.3611 8.96093L79.8541 8.11692" fill="white"/>
<path d="M2.50016 36.8778L3.60016 36.2778L3.10016 37.9619L2.49316 36.8728" fill="white"/>
<path d="M36.8041 103.853L36.2041 102.743L37.8871 103.255L36.8021 103.855" fill="white"/>
<path d="M69.1802 103.098L70.8212 102.504L70.2952 103.634L69.1802 103.098Z" fill="white"/>
<path d="M33.3828 101.676L35.0158 102.276L33.8678 102.806L33.3828 101.674" fill="white"/>
<path d="M73.6632 101.386L73.1872 102.56L72.0542 102.088L73.6632 101.388" fill="white"/>
<path d="M77.6001 99.6122L79.1231 98.7183L78.8131 99.9182L77.6001 99.6182" fill="white"/>
<path d="M5.23486 32.2669L4.75586 31.0979L5.89286 30.6489L5.23486 32.2669Z" fill="white"/>
<path d="M101.68 75.4418L100.509 75.9178L101.203 74.3027L101.68 75.4418Z" fill="white"/>
<path d="M81.7199 97.1431L81.4879 98.3491L80.252 98.1001L81.7199 97.1431Z" fill="white"/>
<path d="M25.2529 97.4951L26.7649 98.3821L25.5789 98.708L25.2539 97.4951" fill="white"/>
<path d="M105.244 46.2722L104.924 44.5342L105.944 45.2442L105.244 46.2712" fill="white"/>
<path d="M40.8228 104.043L39.7789 104.701L39.1099 103.66L40.8228 104.043Z" fill="white"/>
<path d="M64.3208 105.279L63.2788 104.628L64.9788 104.2L64.3168 105.279" fill="white"/>
<path d="M61.287 105.816L60.272 105.136L62.01 104.805L61.287 105.816Z" fill="white"/>
<path d="M105.41 42.209L104.746 43.255L104.327 41.563L105.41 42.209Z" fill="white"/>
<path d="M58.2129 106.219L57.2129 105.458L58.9269 105.236L58.2109 106.219" fill="white"/>
<path d="M55.1223 106.387L54.1782 105.581L55.9522 105.464L55.1223 106.387Z" fill="white"/>
<path d="M106.391 57.563L105.441 58.3931L105.541 56.728L106.39 57.5621" fill="white"/>
<path d="M6.11477 28.3402L7.30077 27.9302L6.53177 29.5072L6.11477 28.3402Z" fill="white"/>
<path d="M7.66211 25.6331L8.86911 25.3062L7.98911 26.8311L7.66311 25.6312" fill="white"/>
<path d="M97.2578 24.8032L98.4889 25.0562L98.2458 26.2652L97.2578 24.8032Z" fill="white"/>
<path d="M11.3201 21.6321L11.1831 20.5521L12.2291 20.3921L12.3071 20.4801L11.4281 21.6871L11.3201 21.6321Z" fill="white"/>
<path d="M93.6689 19.8882L94.8999 20.0232L94.8138 21.0932L94.7079 21.1502L93.6689 19.8882Z" fill="white"/>
<path d="M12.9081 86.6179L11.6851 86.5179L11.7851 85.2759L12.9121 86.6208" fill="white"/>
<path d="M5.01377 73.6711L3.86377 73.2311L4.30077 72.0601L5.01377 73.6711Z" fill="white"/>
<path d="M24.6201 9.35675C24.6551 9.17875 24.6672 9.11075 24.6822 9.04275C24.9112 8.03675 24.9122 8.03675 26.0352 8.44875L24.6191 9.35675" fill="white"/>
<path d="M72.7398 3.65481L73.2788 4.75481L71.5928 4.14681L72.7398 3.65381" fill="white"/>
<path d="M38.4448 2.99476C38.4648 2.92697 38.4882 2.86022 38.5148 2.79475C39.0078 1.83475 39.0288 1.82975 40.0078 2.52375L38.4448 2.99975" fill="white"/>
<path d="M43.0592 1.82013L41.3472 2.22013L42.0052 1.18213L43.0592 1.81813" fill="white"/>
<path d="M0.851 54.403V55.938L0 55.187L0.735 54.3311L0.851 54.4" fill="white"/>
<path d="M2.23786 40.7752L1.65186 39.8492L2.56385 39.2822L2.67686 39.3272L2.34986 40.7662L2.23685 40.7752" fill="white"/>
<path d="M104.657 39.1752L104.081 40.2752L103.568 38.5962L104.657 39.1722" fill="white"/>
<path d="M86.6349 93.6823L86.535 94.7822L85.335 94.6702L86.535 93.6372L86.6349 93.6842" fill="white"/>
<path d="M27.2412 7.77084L27.5522 6.58984L28.7612 6.88984L27.2412 7.76984" fill="white"/>
<path d="M29.9219 6.35901L30.3059 5.18701L31.4909 5.56401L29.9209 6.36401" fill="white"/>
<path d="M74.4141 5.30802L75.6071 4.87402L76.044 5.99902L74.4141 5.30802Z" fill="white"/>
<path d="M98.993 27.464L100.042 27.736L99.7161 28.9359L98.916 27.56L98.989 27.46" fill="white"/>
<path d="M32.1869 101.119L31.0559 101.591L30.5679 100.457L32.1859 101.119" fill="white"/>
<path d="M3.29713 69.1909L3.89713 70.8359L2.78613 70.3359L3.29513 69.1959" fill="white"/>
<path d="M87.413 13.3382C87.713 13.3382 88.013 13.3222 88.313 13.3492C88.389 13.3562 88.498 13.4892 88.513 13.5772C88.559 13.8452 88.566 14.1202 88.6 14.5332L87.375 13.4832L87.409 13.3382" fill="white"/>
<path d="M43.837 104.694L42.782 105.378L42.082 104.372L43.838 104.694" fill="white"/>
<path d="M45.8582 105.926L45.0752 104.955L46.8122 105.168L45.8582 105.926Z" fill="white"/>
<path d="M65.8071 2.37719L66.8421 1.72119L67.5061 2.76119L65.8071 2.37719Z" fill="white"/>
<path d="M1.26817 60.317L1.58817 62.017L0.576172 61.3259L1.26817 60.3149" fill="white"/>
<path d="M83.6428 9.4751L83.8958 10.6751L82.4229 9.7381L83.6428 9.4791" fill="white"/>
<path d="M0.463867 45.9401C0.586867 45.8271 0.670867 45.7401 0.763867 45.6681C0.944867 45.5161 1.12887 45.3681 1.40787 45.1401L1.21987 46.8621L0.466867 45.9401" fill="white"/>
<path d="M14.9378 88.8649C13.4908 88.8779 13.6788 89.0469 13.7298 87.7849L13.8448 87.6709L14.9378 88.8649Z" fill="white"/>
<path d="M91.0378 89.4561C91.0609 89.5214 91.0797 89.5882 91.0939 89.6561C91.1689 90.7261 91.1158 90.7721 89.9438 90.6041L91.0378 89.4561Z" fill="white"/>
<path d="M102.244 34.4838L101.558 32.8838C101.87 32.9854 102.176 33.1029 102.475 33.2358C102.519 33.2741 102.552 33.3227 102.572 33.3772C102.592 33.4317 102.598 33.4903 102.59 33.5478C102.512 33.8308 102.39 34.1008 102.245 34.4798" fill="white"/>
<path d="M10.544 22.7861L9.60003 24.2431L9.33203 23.0611L10.543 22.7852" fill="white"/>
<path d="M66.25 103.96L67.913 103.46L67.334 104.535L66.25 103.957" fill="white"/>
<path d="M18.1082 92.0709L19.3432 93.119H18.1142L17.9902 92.119L18.1082 92.0659" fill="white"/>
<path d="M106.515 51.395L105.687 52.315C105.66 51.703 105.638 51.222 105.617 50.742L105.717 50.667L106.517 51.395" fill="white"/>
<path d="M70.4229 3.68984L68.7358 3.18384L69.8018 2.61084L70.4229 3.68884" fill="white"/>
<path d="M101.776 73.0649L102.32 71.585C103.027 72.363 102.91 72.7089 101.776 73.0649Z" fill="white"/>
<path d="M103.251 37.3579L102.642 35.7119L103.753 36.2389L103.253 37.3579" fill="white"/>
<path d="M96.8162 82.2911L97.0652 83.4731L95.8652 83.7731L96.8212 82.2861" fill="white"/>
<path d="M49.8522 105.427L48.9362 106.247L48.1191 105.347L49.8522 105.427Z" fill="white"/>
<path d="M59.9419 1.16381L60.7949 0.507812L61.5429 1.43981L59.9429 1.28181C59.9429 1.24248 59.9419 1.20315 59.9419 1.16381Z" fill="white"/>
<path d="M1.59903 43.7428L0.978027 42.8598L1.83003 42.2598L1.94503 42.2898L1.71803 43.7268L1.59903 43.7458" fill="white"/>
<path d="M14.2869 18.1259L13.3079 19.3139C12.9339 18.2369 13.1349 17.9839 14.2869 18.1259Z" fill="white"/>
<path d="M1.13818 64.3619L1.78418 63.3188L2.16618 64.9808L1.13818 64.3619Z" fill="white"/>
<path d="M5.50216 74.8828L6.28316 76.4248L5.11816 76.0588L5.50216 74.8828Z" fill="white"/>
<path d="M33.1321 3.93604L34.2682 4.38504L32.8542 5.00703L32.7651 4.92504L33.1321 3.93604Z" fill="white"/>
<path d="M18.6962 13.8219L17.5572 14.8839C17.1812 13.9739 17.4362 13.7199 18.6962 13.8219Z" fill="white"/>
<path d="M91.709 17.6341C92.128 17.6341 92.418 17.6221 92.709 17.6441C92.7519 17.6605 92.7901 17.6874 92.8199 17.7224C92.8498 17.7573 92.8705 17.7992 92.88 17.8441C92.899 18.1441 92.8879 18.4511 92.8879 18.8861L91.7119 17.6331" fill="white"/>
</g>
</g>
<defs>
<clipPath id="clip0_1749_820">
<rect width="106.515" height="106.391" fill="white"/>
</clipPath>
</defs>
</svg>
