<svg width="48" height="48" viewBox="0 0 48 48" fill="none" xmlns="http://www.w3.org/2000/svg">
<rect x="2" y="2" width="44" height="44" rx="22" fill="white"/>
<rect x="2" y="2" width="44" height="44" rx="22" stroke="#E00D3A" stroke-width="4"/>
<path d="M21.6 27.4987V20.5012L27.84 24L21.6 27.4987Z" fill="white"/>
<path d="M35.4937 18.3879C35.3571 17.895 35.0897 17.4456 34.7181 17.0846C34.3466 16.7237 33.884 16.4639 33.3766 16.3312C31.5082 15.84 24 15.84 24 15.84C24 15.84 16.4918 15.84 14.6234 16.3312C14.116 16.4639 13.6534 16.7237 13.2819 17.0846C12.9103 17.4456 12.6429 17.895 12.5063 18.3879C12.1574 20.2391 11.9881 22.118 12.0006 24C11.9881 25.8819 12.1574 27.7608 12.5063 29.612C12.6429 30.1049 12.9103 30.5543 13.2819 30.9153C13.6534 31.2762 14.116 31.536 14.6234 31.6687C16.4918 32.16 24 32.16 24 32.16C24 32.16 31.5082 32.16 33.3766 31.6687C33.884 31.536 34.3466 31.2762 34.7181 30.9153C35.0897 30.5543 35.3571 30.1049 35.4937 29.612C35.8426 27.7608 36.0119 25.8819 35.9994 24C36.0119 22.118 35.8426 20.2391 35.4937 18.3879ZM21.6001 27.4971V20.5028L27.8312 24L21.6001 27.4971Z" fill="#201E3D"/>
</svg>
